<svg width="21" height="20" viewBox="0 0 21 20" fill="none" xmlns="http://www.w3.org/2000/svg">
<path d="M11.3551 16.8794C8.81 14.5099 8.81 10.6681 11.3551 8.29856C12.3153 7.4045 13.5008 6.84803 14.7414 6.62865C12.6939 6.26656 10.496 6.82307 8.91118 8.29856C6.36611 10.6681 6.36611 14.5099 8.91118 16.8794C10.4964 18.3553 12.6952 18.9118 14.7433 18.549C13.502 18.3299 12.3158 17.7739 11.3551 16.8794Z" fill="#CEE1F2"/>
<path d="M10.2608 13.3478C10.7107 13.3478 11.0754 13.0083 11.0754 12.5894C11.0754 12.1705 10.7107 11.8309 10.2608 11.8309C9.81089 11.8309 9.44617 12.1705 9.44617 12.5894C9.44617 13.0083 9.81089 13.3478 10.2608 13.3478Z" fill="#F69220"/>
<path d="M13.5192 13.3478C13.9691 13.3478 14.3338 13.0083 14.3338 12.5894C14.3338 12.1705 13.9691 11.8309 13.5192 11.8309C13.0693 11.8309 12.7045 12.1705 12.7045 12.5894C12.7045 13.0083 13.0693 13.3478 13.5192 13.3478Z" fill="#F69220"/>
<path d="M16.778 13.3478C17.2279 13.3478 17.5926 13.0083 17.5926 12.5894C17.5926 12.1705 17.2279 11.8309 16.778 11.8309C16.3281 11.8309 15.9634 12.1705 15.9634 12.5894C15.9634 13.0083 16.3281 13.3478 16.778 13.3478Z" fill="#F69220"/>
<path d="M0.305294 10.7934C0.0970338 12.1497 1.22179 13.3914 2.72902 13.3914C3.01568 13.3914 3.11755 13.3564 4.20508 13.218C4.65048 13.1588 4.95996 12.7746 4.8963 12.3599C4.83267 11.9452 4.41966 11.657 3.97467 11.7163L2.84078 11.8672C2.3015 11.9389 1.84099 11.5105 1.91814 11.0081L2.16933 9.37111C2.19079 9.23129 2.1699 9.0887 2.109 8.95938C0.442314 5.41891 3.25498 1.51689 7.33167 1.51689C9.44428 1.51689 11.3024 2.5857 12.2903 4.20127C12.5129 4.56528 13.0103 4.69228 13.4013 4.48508C13.7923 4.27783 13.9287 3.81472 13.7061 3.45071C12.4408 1.38166 10.0612 0 7.33167 0C3.72152 0 0.732892 2.41975 0.11687 5.61452C-0.127804 6.88351 0.0133714 8.17485 0.524673 9.36371L0.305294 10.7934Z" fill="#0023C4"/>
<path d="M13.5196 5.76306C11.5612 5.76306 9.72005 6.47308 8.3353 7.76237C5.47669 10.4238 5.47669 14.7543 8.3353 17.4158C9.75068 18.7336 11.6191 19.4161 13.5262 19.4161C14.4553 19.4161 15.3759 19.2517 16.2452 18.9276L17.7808 19.1318C19.3912 19.3463 20.7776 18.0583 20.547 16.5566L20.3275 15.1268C20.8389 13.9379 20.9801 12.6466 20.7354 11.3776C20.12 8.18615 17.1331 5.76306 13.5196 5.76306ZM18.6829 15.1342L18.9341 16.7712C19.0112 17.2733 18.5509 17.702 18.0114 17.6302L16.2532 17.3963C16.1031 17.3764 15.9499 17.3958 15.8109 17.4525C15.0654 17.7567 14.283 17.9048 13.5088 17.9048C12.0319 17.9047 10.5855 17.3656 9.48735 16.3432C7.26399 14.2732 7.26399 10.905 9.48735 8.83496C10.5644 7.83222 11.9964 7.27996 13.5196 7.27996C17.5885 7.27996 20.4137 11.1741 18.7432 14.7224C18.6823 14.8518 18.6614 14.9944 18.6829 15.1342Z" fill="#0023C4"/>
</svg>
