<svg width="20" height="22" viewBox="0 0 20 22" fill="none" xmlns="http://www.w3.org/2000/svg">
<path d="M15.7031 1.9111C15.3264 1.81356 14.9384 1.74536 14.5312 1.74536C11.9424 1.74536 9.84375 3.84403 9.84375 6.43286C9.84375 9.02169 11.9424 11.1204 14.5312 11.1204C14.9384 11.1204 15.3264 11.0522 15.7031 10.9546C11.0291 9.74388 11.0298 3.12165 15.7031 1.9111Z" fill="#CEE1F2"/>
<path d="M3.75 9.08916V12.6829C3.75 13.5461 3.20648 14.2454 2.34375 14.2454C1.48043 14.2454 0.78125 14.9458 0.78125 15.8079C0.78125 15.9911 0.809453 16.146 0.857578 16.2895C1.07688 16.9426 1.70527 17.3704 2.39426 17.3704H3.125V16.5892C3.125 16.1558 3.47621 15.8079 3.90625 15.8079C5.15312 15.8079 6.09375 14.8005 6.09375 13.4642C6.09375 13.4642 6.09375 7.60081 6.09375 4.50647C4.64094 5.47967 3.75 7.16268 3.75 9.08916Z" fill="#CEE1F2"/>
<path d="M16.0938 18.1516H2.34375C1.05133 18.1516 0 17.1003 0 15.8079C0 14.5155 1.05133 13.4641 2.34375 13.4641C2.7748 13.4641 3.125 13.1139 3.125 12.6829V8.77663C3.125 6.12999 4.80117 3.76108 7.29598 2.88061C8.27922 2.5419 8.78609 4.01256 7.81629 4.3546C5.94484 5.01456 4.6875 6.79147 4.6875 8.77663V12.6829C4.6875 13.9753 3.63617 15.0266 2.34375 15.0266C1.9127 15.0266 1.5625 15.3768 1.5625 15.8079C1.5625 17.2687 3.25121 16.2796 16.0938 16.5891C16.5248 16.5891 16.875 16.2389 16.875 15.8079C16.875 15.4083 16.62 15.0827 16.0838 15.0266H14.5312C13.4969 15.0266 13.498 13.4641 14.5312 13.4641H16.0739C17.498 13.499 18.4375 14.5816 18.4375 15.8079C18.4375 17.1003 17.3862 18.1516 16.0938 18.1516Z" fill="#0023C4"/>
<path d="M14.5312 11.9016C11.5161 11.9016 9.0625 9.44802 9.0625 6.43286C9.0625 3.41771 11.5161 0.964111 14.5312 0.964111C17.5464 0.964111 20 3.41771 20 6.43286C20 9.44802 17.5464 11.9016 14.5312 11.9016ZM14.5312 2.52661C12.3775 2.52661 10.625 4.27907 10.625 6.43286C10.625 8.58665 12.3775 10.3391 14.5312 10.3391C16.685 10.3391 18.4375 8.58665 18.4375 6.43286C18.4375 4.27907 16.685 2.52661 14.5312 2.52661Z" fill="#0023C4"/>
<circle cx="14.4401" cy="6.36411" r="1.4" fill="#F69220"/>
<path d="M11.383 19.6307C11.2111 19.9271 10.9643 20.1731 10.6675 20.344C10.3706 20.515 10.034 20.605 9.69145 20.605C9.34887 20.605 9.0123 20.515 8.71543 20.344C8.41857 20.1731 8.17184 19.9271 7.99994 19.6307" fill="#0023C4"/>
<path d="M11.383 19.6307C11.2111 19.9271 10.9643 20.1731 10.6675 20.344C10.3706 20.515 10.034 20.605 9.69145 20.605C9.34887 20.605 9.0123 20.515 8.71543 20.344C8.41857 20.1731 8.17184 19.9271 7.99994 19.6307" stroke="#F69220" stroke-width="1.5" stroke-linecap="round" stroke-linejoin="round"/>
</svg>
