<svg width="14" height="14" viewBox="0 0 14 14" fill="none" xmlns="http://www.w3.org/2000/svg">
<path d="M13.0002 0.333984H1.00016C0.600163 0.333984 0.333496 0.600651 0.333496 1.00065V13.0007C0.333496 13.4007 0.600163 13.6673 1.00016 13.6673H13.0002C13.4002 13.6673 13.6668 13.4007 13.6668 13.0007V1.00065C13.6668 0.600651 13.4002 0.333984 13.0002 0.333984ZM10.8002 5.20065L6.26683 9.73398C6.00016 10.0007 5.60016 10.0007 5.3335 9.73398L3.20016 7.60065C2.9335 7.33398 2.9335 6.93398 3.20016 6.66732C3.46683 6.40065 3.86683 6.40065 4.1335 6.66732L5.80016 8.33398L9.86683 4.26732C10.1335 4.00065 10.5335 4.00065 10.8002 4.26732C11.0668 4.53398 11.0668 4.93398 10.8002 5.20065Z" fill="white"/>
</svg>
