<svg width="18" height="22" viewBox="0 0 18 22" fill="none" xmlns="http://www.w3.org/2000/svg">
<path d="M11.5939 1.5327C11.5939 1.36293 11.5176 1.20011 11.3817 1.08006C11.2458 0.960019 11.0615 0.892578 10.8693 0.892578H6.52153C6.32935 0.892578 6.14504 0.960019 6.00914 1.08006C5.87325 1.20011 5.79691 1.36293 5.79691 1.5327C5.79691 1.70247 5.72056 1.86528 5.58467 1.98533C5.44877 2.10538 5.26446 2.17282 5.07228 2.17282C4.8801 2.17282 4.69579 2.24026 4.55989 2.3603C4.424 2.48035 4.34766 2.64317 4.34766 2.81294V3.45305C4.34766 3.62282 4.424 3.78564 4.55989 3.90569C4.69579 4.02573 4.8801 4.09317 5.07228 4.09317H12.3185C12.5107 4.09317 12.695 4.02573 12.8309 3.90569C12.9668 3.78564 13.0432 3.62282 13.0432 3.45305V2.81294C13.0432 2.64317 12.9668 2.48035 12.8309 2.3603C12.695 2.24026 12.5107 2.17282 12.3185 2.17282C12.1263 2.17282 11.942 2.10538 11.8061 1.98533C11.6702 1.86528 11.5939 1.70247 11.5939 1.5327Z" fill="#50A5F1"/>
<path d="M3.02169 2.17285H2.17387C1.59733 2.17285 1.04439 2.37517 0.636713 2.73531C0.229033 3.09545 0 3.5839 0 4.09321V19.4561C0 19.9654 0.229033 20.4538 0.636713 20.814C1.04439 21.1741 1.59733 21.3764 2.17387 21.3764H15.2171C15.7937 21.3764 16.3466 21.1741 16.7543 20.814C17.162 20.4538 17.391 19.9654 17.391 19.4561V4.09321C17.391 3.5839 17.162 3.09545 16.7543 2.73531C16.3466 2.37517 15.7937 2.17285 15.2171 2.17285H14.3693C14.449 2.37257 14.4925 2.58893 14.4925 2.81297V3.45309C14.4925 3.9624 14.2635 4.45085 13.8558 4.81099C13.4481 5.17112 12.8952 5.37345 12.3186 5.37345H5.07237C4.49583 5.37345 3.94289 5.17112 3.53521 4.81099C3.12753 4.45085 2.8985 3.9624 2.8985 3.45309V2.81297C2.8985 2.58893 2.94198 2.37257 3.02169 2.17285ZM9.42012 9.21416V11.1345H11.594C11.7862 11.1345 11.9705 11.202 12.1064 11.322C12.2423 11.4421 12.3186 11.6049 12.3186 11.7746C12.3186 11.9444 12.2423 12.1072 12.1064 12.2273C11.9705 12.3473 11.7862 12.4148 11.594 12.4148H9.42012V14.3351C9.42012 14.5049 9.34378 14.6677 9.20789 14.7878C9.07199 14.9078 8.88768 14.9752 8.6955 14.9752C8.50331 14.9752 8.319 14.9078 8.18311 14.7878C8.04722 14.6677 7.97087 14.5049 7.97087 14.3351V12.4148H5.797C5.60482 12.4148 5.42051 12.3473 5.28461 12.2273C5.14872 12.1072 5.07237 11.9444 5.07237 11.7746C5.07237 11.6049 5.14872 11.4421 5.28461 11.322C5.42051 11.202 5.60482 11.1345 5.797 11.1345H7.97087V9.21416C7.97087 9.04439 8.04722 8.88158 8.18311 8.76153C8.319 8.64149 8.50331 8.57404 8.6955 8.57404C8.88768 8.57404 9.07199 8.64149 9.20789 8.76153C9.34378 8.88158 9.42012 9.04439 9.42012 9.21416Z" fill="#50A5F1"/>
</svg>
