<svg width="15" height="16" viewBox="0 0 15 16" fill="none" xmlns="http://www.w3.org/2000/svg">
<path d="M3.75217 7.50434C1.65095 7.50434 0 9.15529 0 11.2565C0 13.3577 1.65095 15.0087 3.75217 15.0087C5.85338 15.0087 7.50434 13.3577 7.50434 11.2565C7.50434 9.15529 5.85338 7.50434 3.75217 7.50434ZM6.7539 3.75217C4.95286 3.75217 3.30191 4.87782 2.62652 6.52877C5.25304 5.85338 7.87955 7.50434 8.4799 10.0558C8.70503 10.8062 8.70503 11.6317 8.4799 12.3822C10.8062 11.4066 11.8569 8.78008 10.8813 6.52877C10.2059 4.87782 8.55494 3.75217 6.7539 3.75217ZM14.4083 2.85165C13.5829 1.12565 11.7068 0 9.75564 0C7.80451 0 5.92843 1.12565 5.10295 2.85165C8.10468 1.95113 11.2565 3.60208 12.157 6.52877C12.5322 7.65442 12.5322 8.78008 12.157 9.90573C14.7085 8.62999 15.7591 5.47817 14.4083 2.85165Z" fill="white"/>
</svg>
