<svg width="21" height="21" viewBox="0 0 21 21" fill="none" xmlns="http://www.w3.org/2000/svg">
<path fill-rule="evenodd" clip-rule="evenodd" d="M8.16667 2.33333H12.8333C13.4777 2.33333 14 2.85567 14 3.5V5.25H7V3.5C7 2.85567 7.52233 2.33333 8.16667 2.33333ZM4.66667 5.25V3.5C4.66667 1.567 6.23367 0 8.16667 0H12.8333C14.7663 0 16.3333 1.567 16.3333 3.5V5.25H17.5C19.433 5.25 21 6.817 21 8.75V17.5C21 19.433 19.433 21 17.5 21H3.5C1.567 21 0 19.433 0 17.5V8.75C0 6.817 1.567 5.25 3.5 5.25H4.66667Z" fill="#50A5F1"/>
<path fill-rule="evenodd" clip-rule="evenodd" d="M0 14H8.16667V11.6667H0V14ZM12.8333 14H21V11.6667H12.8333V14Z" fill="white"/>
<path d="M12.25 12.8333C12.25 13.7998 11.4665 14.5833 10.5 14.5833C9.5335 14.5833 8.75 13.7998 8.75 12.8333C8.75 11.8668 9.5335 11.0833 10.5 11.0833C11.4665 11.0833 12.25 11.8668 12.25 12.8333Z" fill="#52B9F3"/>
<path fill-rule="evenodd" clip-rule="evenodd" d="M14 12.8333C14 14.7663 12.433 16.3333 10.5 16.3333C8.567 16.3333 7 14.7663 7 12.8333C7 10.9003 8.567 9.33333 10.5 9.33333C12.433 9.33333 14 10.9003 14 12.8333ZM10.5 14.5833C11.4665 14.5833 12.25 13.7998 12.25 12.8333C12.25 11.8668 11.4665 11.0833 10.5 11.0833C9.5335 11.0833 8.75 11.8668 8.75 12.8333C8.75 13.7998 9.5335 14.5833 10.5 14.5833Z" fill="white"/>
</svg>
