<svg width="22" height="23" viewBox="0 0 22 23" fill="none" xmlns="http://www.w3.org/2000/svg">
<path d="M11.5 5.00271H10.5C9.70436 5.00271 8.94129 5.31878 8.37868 5.88139C7.81607 6.444 7.5 7.20706 7.5 8.00271V14.0027C7.5 14.7984 7.81607 15.5614 8.37868 16.124C8.94129 16.6866 9.70436 17.0027 10.5 17.0027H11.5C12.2957 17.0027 13.0587 16.6866 13.6213 16.124C14.1839 15.5614 14.5 14.7984 14.5 14.0027V8.00271C14.5 7.20706 14.1839 6.444 13.6213 5.88139C13.0587 5.31878 12.2957 5.00271 11.5 5.00271ZM12.5 14.0027C12.5 14.2679 12.3946 14.5223 12.2071 14.7098C12.0196 14.8974 11.7652 15.0027 11.5 15.0027H10.5C10.2348 15.0027 9.98043 14.8974 9.7929 14.7098C9.60536 14.5223 9.5 14.2679 9.5 14.0027V8.00271C9.5 7.73749 9.60536 7.48314 9.7929 7.2956C9.98043 7.10806 10.2348 7.00271 10.5 7.00271H11.5C11.7652 7.00271 12.0196 7.10806 12.2071 7.2956C12.3946 7.48314 12.5 7.73749 12.5 8.00271V14.0027ZM20.6 8.00271C20.4713 8.02895 20.349 8.08029 20.2402 8.1538C20.1313 8.22731 20.038 8.32154 19.9656 8.43112C19.8931 8.5407 19.843 8.66347 19.818 8.79243C19.793 8.92139 19.7937 9.05401 19.82 9.18271C20.2104 11.0789 19.979 13.0505 19.1601 14.8047C18.3412 16.559 16.9785 18.0024 15.2741 18.9208C13.5698 19.8391 11.6148 20.1834 9.69931 19.9026C7.78381 19.6217 6.00992 18.7307 4.64097 17.3617C3.27202 15.9928 2.38099 14.2189 2.10014 12.3034C1.81929 10.3879 2.16359 8.43288 3.08194 6.72857C4.00028 5.02426 5.44372 3.6615 7.19798 2.84259C8.95224 2.02368 10.9238 1.79227 12.82 2.18271C13.0852 2.23575 13.3606 2.18127 13.5857 2.03124C13.8107 1.88121 13.967 1.64792 14.02 1.38271C14.073 1.11749 14.0186 0.842066 13.8685 0.617023C13.7185 0.391979 13.4852 0.235751 13.22 0.182708C12.4882 0.0463593 11.7442 -0.0139613 11 0.00270809C8.82441 0.00270809 6.69767 0.647847 4.88873 1.85654C3.07979 3.06524 1.66989 4.7832 0.83733 6.79319C0.00476617 8.80318 -0.213071 11.0149 0.211367 13.1487C0.635804 15.2825 1.68345 17.2425 3.22183 18.7809C4.76021 20.3193 6.72022 21.3669 8.85401 21.7913C10.9878 22.2158 13.1995 21.9979 15.2095 21.1654C17.2195 20.3328 18.9375 18.9229 20.1462 17.114C21.3549 15.305 22 13.1783 22 11.0027C22.0021 10.2638 21.9284 9.52658 21.78 8.80271C21.7561 8.6722 21.7064 8.54777 21.6338 8.43666C21.5613 8.32554 21.4674 8.22998 21.3576 8.15552C21.2478 8.08106 21.1242 8.0292 20.9942 8.00297C20.8641 7.97673 20.7301 7.97665 20.6 8.00271Z" fill="#F46A6A"/>
<rect x="16" y="2.00195" width="5" height="2" rx="1" fill="#F46A6A"/>
</svg>
