<svg width="25" height="25" viewBox="0 0 25 25" fill="none" xmlns="http://www.w3.org/2000/svg">
<rect width="25" height="25" rx="12.5" fill="#556EE6"/>
<rect opacity="0.3" width="6.46552" height="1.07759" rx="0.538793" transform="matrix(-1 0 0 1 16.8103 11.9612)" fill="white"/>
<path d="M15.7115 12.2578L14.8574 11.5461C14.6041 11.3349 14.5867 10.9519 14.8199 10.7187C15.0299 10.5087 15.3671 10.4988 15.5891 10.6961L16.7776 11.7525C17.2251 12.1503 17.2251 12.8495 16.7776 13.2473L15.5891 14.3037C15.3671 14.501 15.0299 14.4911 14.8199 14.2811C14.5867 14.0479 14.6041 13.6648 14.8574 13.4537L15.7115 12.742C15.8627 12.616 15.8627 12.3838 15.7115 12.2578Z" fill="white"/>
<path opacity="0.5" d="M14.655 9.08766V9.26726C14.655 9.56483 14.4138 9.80605 14.1162 9.80605C13.8187 9.80605 13.5774 9.56483 13.5774 9.26726C13.5774 8.96969 13.3362 8.72847 13.0386 8.72847H9.7283C9.17602 8.72847 8.7283 9.17618 8.7283 9.72846V15.2716C8.7283 15.8239 9.17602 16.2716 9.7283 16.2716H13.0386C13.3362 16.2716 13.5774 16.0303 13.5774 15.7328C13.5774 15.4352 13.8187 15.194 14.1162 15.194C14.4138 15.194 14.655 15.4352 14.655 15.7328V15.9124C14.655 16.7059 14.0118 17.3492 13.2182 17.3492H9.65072C8.54615 17.3492 7.65072 16.4537 7.65072 15.3492V9.65088C7.65072 8.54631 8.54615 7.65088 9.65072 7.65088H13.2182C14.0118 7.65088 14.655 8.29415 14.655 9.08766Z" fill="white"/>
</svg>
