<svg width="16" height="16" viewBox="0 0 16 16" fill="none" xmlns="http://www.w3.org/2000/svg">
<path fill-rule="evenodd" clip-rule="evenodd" d="M0 8C0 3.58172 3.58172 0 8 0C10.1217 0 12.1566 0.842855 13.6569 2.34315C15.1571 3.84344 16 5.87827 16 8C16 12.4183 12.4183 16 8 16C3.58172 16 0 12.4183 0 8ZM8.56817 10.1846L11.7682 6.98457C12.0819 6.67088 12.0819 6.16227 11.7682 5.84857C11.4545 5.53487 10.9459 5.53487 10.6322 5.84857L8.00017 8.46457L5.36817 5.84857C5.16524 5.64565 4.86947 5.56639 4.59226 5.64067C4.31506 5.71495 4.09854 5.93147 4.02426 6.20867C3.94999 6.48587 4.02924 6.78165 4.23217 6.98457L7.43217 10.1846C7.58238 10.336 7.78686 10.4212 8.00017 10.4212C8.21348 10.4212 8.41795 10.336 8.56817 10.1846Z" fill="#556EE6"/>
</svg>
