<svg width="13" height="14" viewBox="0 0 13 14" fill="none" xmlns="http://www.w3.org/2000/svg">
<g clip-path="url(#clip0_7704_31858)">
<path d="M12.1116 8.61986L11.3894 8.39958C11.3382 8.22279 11.268 8.05208 11.18 7.89041L11.5411 7.21875C11.5547 7.19311 11.5596 7.16374 11.555 7.13507C11.5505 7.1064 11.5367 7.08 11.5158 7.05986L10.9814 6.53625C10.9612 6.51535 10.9348 6.50157 10.9062 6.49701C10.8775 6.49245 10.8481 6.49735 10.8225 6.51097L10.1544 6.87208C9.99132 6.77721 9.81812 6.7009 9.63803 6.64458L9.41776 5.92236C9.40853 5.89542 9.39095 5.87214 9.36756 5.8559C9.34418 5.83966 9.31622 5.83131 9.28776 5.83208H8.56553C8.53724 5.83233 8.50976 5.84156 8.48704 5.85843C8.46433 5.8753 8.44756 5.89895 8.43915 5.92597L8.21887 6.64819C8.03785 6.70196 7.86343 6.77585 7.69887 6.86847L7.04165 6.50736C7.01601 6.49374 6.98664 6.48884 6.95797 6.4934C6.9293 6.49796 6.9029 6.51173 6.88276 6.53264L6.35192 7.05263C6.33102 7.07278 6.31725 7.09918 6.31269 7.12785C6.30813 7.15652 6.31303 7.18589 6.32665 7.21152L6.68776 7.86875C6.59514 8.03331 6.52125 8.20773 6.46748 8.38875L5.74526 8.60902C5.71824 8.61744 5.69459 8.63421 5.67772 8.65692C5.66084 8.67963 5.65162 8.70712 5.65137 8.73541V9.45764C5.65162 9.48593 5.66084 9.51341 5.67772 9.53613C5.69459 9.55884 5.71824 9.57561 5.74526 9.58402L6.46748 9.8043C6.522 9.98159 6.59587 10.1523 6.68776 10.3135L6.32665 10.9996C6.31303 11.0252 6.30813 11.0546 6.31269 11.0833C6.31725 11.1119 6.33102 11.1383 6.35192 11.1585L6.86109 11.7001C6.88123 11.721 6.90764 11.7348 6.9363 11.7394C6.96497 11.7439 6.99434 11.739 7.01998 11.7254L7.69526 11.3643C7.85477 11.4506 8.02304 11.5196 8.1972 11.5701L8.41748 12.2924C8.42589 12.3194 8.44266 12.343 8.46537 12.3599C8.48809 12.3768 8.51557 12.386 8.54387 12.3862H9.26609C9.29438 12.386 9.32187 12.3768 9.34458 12.3599C9.3673 12.343 9.38407 12.3194 9.39248 12.2924L9.61276 11.5701C9.78573 11.5195 9.95279 11.4505 10.1111 11.3643L10.7936 11.7254C10.8192 11.739 10.8486 11.7439 10.8773 11.7394C10.9059 11.7348 10.9323 11.721 10.9525 11.7001L11.4761 11.1765C11.497 11.1564 11.5108 11.13 11.5153 11.1013C11.5199 11.0726 11.515 11.0433 11.5014 11.0176L11.1403 10.3387C11.2278 10.1794 11.298 10.0111 11.3497 9.8368L12.0719 9.61652C12.0989 9.60811 12.1226 9.59134 12.1395 9.56863C12.1563 9.54591 12.1656 9.51843 12.1658 9.49013V8.74986C12.1698 8.72529 12.1668 8.70011 12.1572 8.67714C12.1477 8.65417 12.1319 8.63433 12.1116 8.61986ZM8.91942 10.3243C8.68114 10.3264 8.44759 10.2578 8.24842 10.1269C8.04925 9.99611 7.89344 9.80906 7.80076 9.58953C7.70809 9.37 7.68272 9.12789 7.72789 8.89392C7.77306 8.65995 7.88672 8.44467 8.05446 8.27541C8.22219 8.10615 8.43643 7.99055 8.66998 7.94326C8.90353 7.89598 9.14587 7.91915 9.36623 8.00984C9.58659 8.10053 9.77504 8.25464 9.90766 8.45262C10.0403 8.65059 10.1111 8.88351 10.1111 9.1218C10.1111 9.43886 9.9859 9.74309 9.76272 9.96829C9.53955 10.1935 9.23647 10.3214 8.91942 10.3243Z" fill="#50A5F1"/>
<path d="M4.86316 11.4112H0.842105V1.87786H7.52421L8 1.14453H0.842105C0.618765 1.14453 0.404572 1.22179 0.246647 1.35932C0.0887215 1.49685 0 1.68337 0 1.87786V11.4112C0 11.6057 0.0887215 11.7922 0.246647 11.9297C0.404572 12.0673 0.618765 12.1445 0.842105 12.1445H5.54105L5.12 11.7779C5.00065 11.6762 4.91236 11.5501 4.86316 11.4112Z" fill="#50A5F1"/>
<path d="M9.69583 0.557053L7.63028 4.11761C7.58222 4.18815 7.55463 4.27061 7.55057 4.35586C7.54651 4.44112 7.56613 4.52583 7.60726 4.60061C7.6484 4.6754 7.70943 4.73734 7.78361 4.77956C7.85778 4.82178 7.9422 4.84264 8.0275 4.83983H12.1622C12.2475 4.84264 12.3319 4.82178 12.4061 4.77956C12.4803 4.73734 12.5413 4.6754 12.5825 4.60061C12.6236 4.52583 12.6432 4.44112 12.6391 4.35586C12.6351 4.27061 12.6075 4.18815 12.5594 4.11761L10.4939 0.557053C10.4532 0.487379 10.3949 0.429585 10.3249 0.389421C10.2549 0.349258 10.1756 0.328125 10.0949 0.328125C10.0142 0.328125 9.93485 0.349258 9.86484 0.389421C9.79484 0.429585 9.73657 0.487379 9.69583 0.557053Z" fill="#50A5F1"/>
</g>
<defs>
<clipPath id="clip0_7704_31858">
<rect width="13" height="13" fill="white" transform="translate(0 0.144531)"/>
</clipPath>
</defs>
</svg>
