<svg width="16" height="16" viewBox="0 0 16 16" fill="none" xmlns="http://www.w3.org/2000/svg">
<path fill-rule="evenodd" clip-rule="evenodd" d="M8 15.5C12.1421 15.5 15.5 12.1421 15.5 8C15.5 3.85786 12.1421 0.5 8 0.5C3.85786 0.5 0.5 3.85786 0.5 8C0.5 12.1421 3.85786 15.5 8 15.5ZM11.182 4.81975C10.9623 4.60008 10.6062 4.60008 10.3865 4.81975L7.99979 7.20599L5.61354 4.81975C5.39387 4.60008 5.03771 4.60008 4.81804 4.81975C4.59837 5.03942 4.59837 5.39557 4.81804 5.61524L7.20429 8.00149L4.81804 10.3882C4.59837 10.6079 4.59837 10.964 4.81804 11.1837L4.8671 11.2274C5.0879 11.4023 5.40956 11.3877 5.61354 11.1837L7.99979 8.79699L10.3865 11.1837C10.6062 11.4034 10.9623 11.4034 11.182 11.1837C11.4017 10.964 11.4017 10.6079 11.182 10.3882L8.79529 8.00149L11.182 5.61524C11.4017 5.39557 11.4017 5.03942 11.182 4.81975Z" fill="#556EE6"/>
</svg>
