<svg width="17" height="18" viewBox="0 0 17 18" fill="none" xmlns="http://www.w3.org/2000/svg">
<path d="M15.6247 4.00033C15.4147 4.00033 15.2133 4.08812 15.0649 4.2444C14.9164 4.40068 14.833 4.61265 14.833 4.83366V13.167C14.833 13.83 14.5828 14.4659 14.1374 14.9348C13.692 15.4036 13.0879 15.667 12.458 15.667H4.54134C4.33138 15.667 4.13001 15.7548 3.98155 15.9111C3.83308 16.0674 3.74967 16.2793 3.74967 16.5003C3.74967 16.7213 3.83308 16.9333 3.98155 17.0896C4.13001 17.2459 4.33138 17.3337 4.54134 17.3337H12.458C13.5078 17.3337 14.5146 16.8947 15.257 16.1133C15.9993 15.3319 16.4163 14.2721 16.4163 13.167V4.83366C16.4163 4.61265 16.3329 4.40068 16.1845 4.2444C16.036 4.08812 15.8346 4.00033 15.6247 4.00033ZM13.2497 11.5003V3.16699C13.2497 2.50395 12.9995 1.86807 12.5541 1.39923C12.1087 0.930384 11.5046 0.666992 10.8747 0.666992H2.95801C2.32812 0.666992 1.72403 0.930384 1.27863 1.39923C0.83323 1.86807 0.583008 2.50395 0.583008 3.16699V11.5003C0.583008 12.1634 0.83323 12.7993 1.27863 13.2681C1.72403 13.7369 2.32812 14.0003 2.95801 14.0003H10.8747C11.5046 14.0003 12.1087 13.7369 12.5541 13.2681C12.9995 12.7993 13.2497 12.1634 13.2497 11.5003ZM6.91634 2.33366H8.49967V6.38366L8.21467 6.13366C8.07242 6.00894 7.89314 5.94064 7.70801 5.94064C7.52287 5.94064 7.34359 6.00894 7.20134 6.13366L6.91634 6.38366V2.33366ZM2.16634 11.5003V3.16699C2.16634 2.94598 2.24975 2.73402 2.39822 2.57774C2.54668 2.42146 2.74804 2.33366 2.95801 2.33366H5.33301V8.16699C5.333 8.3263 5.37637 8.48226 5.45798 8.61642C5.53958 8.75058 5.65601 8.8573 5.79347 8.92395C5.93093 8.99059 6.08366 9.01437 6.23356 8.99246C6.38346 8.97055 6.52425 8.90387 6.63926 8.80033L7.70801 7.85866L8.77676 8.80033C8.92016 8.92941 9.10265 9.00034 9.29134 9.00033C9.40588 8.99947 9.51903 8.97395 9.62384 8.92533C9.76126 8.85838 9.87755 8.75136 9.95894 8.61695C10.0403 8.48254 10.0834 8.32638 10.083 8.16699V2.33366H10.8747C11.0846 2.33366 11.286 2.42146 11.4345 2.57774C11.5829 2.73402 11.6663 2.94598 11.6663 3.16699V11.5003C11.6663 11.7213 11.5829 11.9333 11.4345 12.0896C11.286 12.2459 11.0846 12.3337 10.8747 12.3337H2.95801C2.74804 12.3337 2.54668 12.2459 2.39822 12.0896C2.24975 11.9333 2.16634 11.7213 2.16634 11.5003Z" fill="#50A5F1"/>
</svg>
