<svg width="15" height="15" viewBox="0 0 15 15" fill="none" xmlns="http://www.w3.org/2000/svg">
<path d="M12.1984 1.4138C12.9525 1.47902 13.5397 2.04533 13.6424 2.79527C13.7014 3.2254 13.75 3.6926 13.75 4.0625C13.75 4.4324 13.7014 4.8996 13.6424 5.32973C13.5397 6.07967 12.9525 6.64598 12.1984 6.7112C11.2669 6.79176 9.75803 6.875 7.5 6.875C5.24197 6.875 3.73313 6.79176 2.80164 6.7112C2.04752 6.64597 1.46026 6.07967 1.35756 5.32973C1.29865 4.8996 1.25 4.4324 1.25 4.0625C1.25 3.6926 1.29865 3.2254 1.35756 2.79527C1.46027 2.04533 2.04752 1.47902 2.80164 1.4138C3.73314 1.33324 5.24197 1.25 7.5 1.25C9.75803 1.25 11.2669 1.33324 12.1984 1.4138Z" fill="#50A5F1"/>
<path opacity="0.25" d="M12.1984 8.2888C12.9525 8.35402 13.5397 8.92033 13.6424 9.67027C13.7014 10.1004 13.75 10.5676 13.75 10.9375C13.75 11.3074 13.7014 11.7746 13.6424 12.2047C13.5397 12.9547 12.9525 13.521 12.1984 13.5862C11.2669 13.6668 9.75803 13.75 7.5 13.75C5.24197 13.75 3.73313 13.6668 2.80164 13.5862C2.04752 13.521 1.46026 12.9547 1.35756 12.2047C1.29865 11.7746 1.25 11.3074 1.25 10.9375C1.25 10.5676 1.29865 10.1004 1.35756 9.67027C1.46027 8.92033 2.04752 8.35402 2.80164 8.2888C3.73314 8.20824 5.24197 8.125 7.5 8.125C9.75803 8.125 11.2669 8.20824 12.1984 8.2888Z" fill="#50A5F1"/>
</svg>
