<svg width="16" height="16" viewBox="0 0 16 16" fill="none" xmlns="http://www.w3.org/2000/svg">
<path d="M9 1V4.5C9 4.89782 9.15804 5.27936 9.43934 5.56066C9.72064 5.84196 10.1022 6 10.5 6H14V13.5C14 13.8978 13.842 14.2794 13.5607 14.5607C13.2794 14.842 12.8978 15 12.5 15H9.732C9.908 14.6961 10.0005 14.3511 10 14V10C10.0001 9.55652 9.85282 9.12558 9.58129 8.77495C9.30976 8.42431 8.9294 8.17387 8.5 8.063V8C8.50016 7.47331 8.36166 6.95586 8.09842 6.49968C7.83518 6.04349 7.45648 5.66465 7.0004 5.40123C6.54432 5.13782 6.02692 4.99912 5.50023 4.99908C4.97354 4.99904 4.45613 5.13766 4 5.401V2.5C4 2.10218 4.15804 1.72064 4.43934 1.43934C4.72064 1.15804 5.10218 1 5.5 1H9ZM10 1.25V4.5C10 4.63261 10.0527 4.75979 10.1464 4.85355C10.2402 4.94732 10.3674 5 10.5 5H13.75L10 1.25ZM3.5 8V9H3C2.73478 9 2.48043 9.10536 2.29289 9.29289C2.10536 9.48043 2 9.73478 2 10V14C2 14.2652 2.10536 14.5196 2.29289 14.7071C2.48043 14.8946 2.73478 15 3 15H8C8.26522 15 8.51957 14.8946 8.70711 14.7071C8.89464 14.5196 9 14.2652 9 14V10C9 9.73478 8.89464 9.48043 8.70711 9.29289C8.51957 9.10536 8.26522 9 8 9H7.5V8C7.5 7.46957 7.28929 6.96086 6.91421 6.58579C6.53914 6.21071 6.03043 6 5.5 6C4.96957 6 4.46086 6.21071 4.08579 6.58579C3.71071 6.96086 3.5 7.46957 3.5 8ZM4.5 9V8C4.5 7.73478 4.60536 7.48043 4.79289 7.29289C4.98043 7.10536 5.23478 7 5.5 7C5.76522 7 6.01957 7.10536 6.20711 7.29289C6.39464 7.48043 6.5 7.73478 6.5 8V9H4.5ZM5.5 11.25C5.69891 11.25 5.88968 11.329 6.03033 11.4697C6.17098 11.6103 6.25 11.8011 6.25 12C6.25 12.1989 6.17098 12.3897 6.03033 12.5303C5.88968 12.671 5.69891 12.75 5.5 12.75C5.30109 12.75 5.11032 12.671 4.96967 12.5303C4.82902 12.3897 4.75 12.1989 4.75 12C4.75 11.8011 4.82902 11.6103 4.96967 11.4697C5.11032 11.329 5.30109 11.25 5.5 11.25Z" fill="#50A5F1"/>
</svg>
