<svg width="13" height="18" viewBox="0 0 13 18" fill="none" xmlns="http://www.w3.org/2000/svg">
<path d="M11.625 0.84375H9.09377C8.86999 0.84375 8.65538 0.932645 8.49715 1.09088C8.33892 1.24911 8.25002 1.46372 8.25002 1.6875C8.25002 1.91128 8.33892 2.12589 8.49715 2.28412C8.65538 2.44236 8.86999 2.53125 9.09377 2.53125H9.58596L8.53127 3.59297C7.64798 2.90266 6.55856 2.52879 5.43752 2.53125C4.16764 2.53051 2.94386 3.00705 2.00887 3.86636C1.07389 4.72567 0.496002 5.90498 0.389811 7.17041C0.283621 8.43585 0.656887 9.69497 1.43558 10.6981C2.21428 11.7012 3.34153 12.375 4.59377 12.5859V13.5H3.18752C2.96374 13.5 2.74913 13.5889 2.5909 13.7471C2.43266 13.9054 2.34377 14.12 2.34377 14.3438C2.34377 14.5675 2.43266 14.7821 2.5909 14.9404C2.74913 15.0986 2.96374 15.1875 3.18752 15.1875H4.59377V16.3125C4.59377 16.5363 4.68266 16.7509 4.8409 16.9091C4.99913 17.0674 5.21374 17.1562 5.43752 17.1562C5.6613 17.1562 5.87591 17.0674 6.03414 16.9091C6.19237 16.7509 6.28127 16.5363 6.28127 16.3125V15.1875H7.68752C7.9113 15.1875 8.12591 15.0986 8.28414 14.9404C8.44238 14.7821 8.53127 14.5675 8.53127 14.3438C8.53127 14.12 8.44238 13.9054 8.28414 13.7471C8.12591 13.5889 7.9113 13.5 7.68752 13.5H6.28127V12.5859C7.10934 12.4457 7.88952 12.1017 8.55151 11.5848C9.2135 11.068 9.7365 10.3945 10.0734 9.62519C10.4103 8.85585 10.5505 8.01479 10.4813 7.17778C10.4122 6.34077 10.1359 5.5341 9.67736 4.83047L10.7813 3.72656V4.21875C10.7813 4.44253 10.8702 4.65714 11.0284 4.81537C11.1866 4.97361 11.4012 5.0625 11.625 5.0625C11.8488 5.0625 12.0634 4.97361 12.2216 4.81537C12.3799 4.65714 12.4688 4.44253 12.4688 4.21875V1.6875C12.4688 1.46372 12.3799 1.24911 12.2216 1.09088C12.0634 0.932645 11.8488 0.84375 11.625 0.84375ZM5.43752 10.9688C4.77001 10.9688 4.11749 10.7708 3.56247 10.4C3.00745 10.0291 2.57487 9.50201 2.31943 8.88531C2.06398 8.26861 1.99715 7.59001 2.12737 6.93532C2.2576 6.28063 2.57903 5.67927 3.05103 5.20726C3.52304 4.73526 4.1244 4.41382 4.77909 4.2836C5.43378 4.15337 6.11238 4.22021 6.72908 4.47566C7.34578 4.7311 7.87288 5.16368 8.24373 5.7187C8.61458 6.27372 8.81252 6.92624 8.81252 7.59375C8.81252 8.48886 8.45694 9.3473 7.82401 9.98024C7.19107 10.6132 6.33263 10.9688 5.43752 10.9688Z" fill="#50A5F1"/>
</svg>
