<svg width="14" height="18" viewBox="0 0 14 18" fill="none" xmlns="http://www.w3.org/2000/svg">
<path d="M10.1832 0.321737V0.309737C10.1832 0.138744 10.3205 0 10.4898 0H10.5017H10.5009H13.3697C13.5434 0 13.7001 0.0734969 13.8114 0.190492C13.8712 0.248065 13.9187 0.317315 13.9511 0.394028C13.9835 0.47074 14.0002 0.553313 14 0.636723V3.54735C14 3.6295 13.9677 3.70828 13.9102 3.76637C13.8527 3.82446 13.7747 3.85709 13.6934 3.85709H13.6808H13.6815H13.0334C12.952 3.85709 12.874 3.82446 12.8165 3.76637C12.759 3.70828 12.7267 3.6295 12.7267 3.54735V3.5346V3.53535V2.18991L10.1995 4.75105C11.0124 5.75381 11.4554 7.01059 11.4527 8.30665V8.35915V8.35615L11.4535 8.43115C11.4554 9.83688 10.9302 11.1912 9.98346 12.2215L9.98643 12.2177C9.06435 13.2808 7.77881 13.9529 6.38714 14.0994L6.36338 14.1017V15.4276H7.33002C7.4993 15.4276 7.63665 15.5664 7.63665 15.7373V15.7501V15.7493V16.4041C7.63665 16.4862 7.60434 16.565 7.54684 16.6231C7.48934 16.6812 7.41134 16.7138 7.33002 16.7138H7.3174H7.31814H6.36338V17.6903C6.36338 17.7724 6.33108 17.8512 6.27357 17.9093C6.21607 17.9674 6.13808 18 6.05676 18H6.04414H6.04488H5.39674C5.31542 18 5.23743 17.9674 5.17993 17.9093C5.12242 17.8512 5.09012 17.7724 5.09012 17.6903V17.6775V17.6783V16.7138H4.12348C4.04216 16.7138 3.96416 16.6812 3.90666 16.6231C3.84916 16.565 3.81685 16.4862 3.81685 16.4041V16.3913V16.3921V15.7373C3.81685 15.5664 3.9542 15.4276 4.12348 15.4276H4.1361H4.13535H5.0916V14.0994C4.11413 13.9988 3.18058 13.638 2.38619 13.054L2.40179 13.0652C1.61403 12.4968 0.981205 11.7365 0.562048 10.855L0.5472 10.8205C0.184348 10.0583 -0.00273025 9.22292 3.01082e-05 8.37715C3.01082e-05 8.20691 0.00745439 8.03742 0.022303 7.87092L0.0208181 7.89267C0.113732 6.55472 0.678498 5.29477 1.61258 4.34157L1.61184 4.34232C2.14429 3.78116 2.78378 3.33482 3.49172 3.03023C4.19966 2.72564 4.96136 2.56913 5.73083 2.57014C6.30028 2.57014 6.85042 2.65414 7.36937 2.81088L7.32928 2.80038C8.04985 3.01794 8.72196 3.37422 9.30859 3.84959L9.29746 3.84059L11.8329 1.2892H10.4891C10.4077 1.2892 10.3297 1.25656 10.2722 1.19848C10.2147 1.14039 10.1824 1.06161 10.1824 0.979459V0.96671V0.96746L10.1832 0.321737ZM5.72861 12.8567L5.7932 12.8575C6.36841 12.8582 6.93786 12.7417 7.46751 12.5151C7.99715 12.2884 8.47611 11.9562 8.87576 11.5383L8.8765 11.5368C9.2905 11.1331 9.61966 10.6492 9.8443 10.114C10.0689 9.57884 10.1844 9.00343 10.1839 8.42215L10.1832 8.35315V8.3569L10.1839 8.29165C10.1846 7.7106 10.0693 7.13536 9.84496 6.60034C9.62057 6.06532 9.2917 5.58149 8.87799 5.17778L8.8765 5.17703C8.07245 4.36032 6.95881 3.85559 5.72861 3.85559C4.4984 3.85559 3.38476 4.36107 2.58071 5.17703C2.15846 5.58883 1.82456 6.08396 1.59978 6.63164C1.37499 7.17932 1.26411 7.76785 1.27404 8.36065V8.3569L1.27329 8.42215C1.27329 9.64385 1.77369 10.7478 2.57923 11.536L2.58071 11.5368C2.98037 11.955 3.45941 12.2875 3.98918 12.5144C4.51895 12.7413 5.08858 12.858 5.66401 12.8575L5.73232 12.8567H5.72861Z" fill="#50A5F1"/>
</svg>
