<svg width="20" height="20" viewBox="0 0 20 20" fill="none" xmlns="http://www.w3.org/2000/svg">
<path d="M9.53281 1.66602C7.39647 1.67211 5.34405 2.49844 3.79948 3.97435V2.49935C3.79948 2.27834 3.71168 2.06637 3.5554 1.91009C3.39912 1.75381 3.18716 1.66602 2.96615 1.66602C2.74513 1.66602 2.53317 1.75381 2.37689 1.91009C2.22061 2.06637 2.13281 2.27834 2.13281 2.49935V6.24935C2.13281 6.47036 2.22061 6.68232 2.37689 6.8386C2.53317 6.99489 2.74513 7.08268 2.96615 7.08268H6.71615C6.93716 7.08268 7.14912 6.99489 7.3054 6.8386C7.46168 6.68232 7.54948 6.47036 7.54948 6.24935C7.54948 6.02834 7.46168 5.81637 7.3054 5.66009C7.14912 5.50381 6.93716 5.41602 6.71615 5.41602H4.71615C5.4759 4.61352 6.42323 4.01248 7.47292 3.66696C8.52261 3.32144 9.64172 3.24228 10.7296 3.4366C11.8175 3.63092 12.84 4.09262 13.7051 4.78017C14.5703 5.46773 15.251 6.35956 15.6859 7.37546C16.1209 8.39135 16.2965 9.49944 16.1969 10.6C16.0973 11.7006 15.7257 12.7592 15.1155 13.6806C14.5053 14.6019 13.6757 15.3571 12.7012 15.8782C11.7267 16.3994 10.6379 16.6701 9.53281 16.666C9.3118 16.666 9.09984 16.7538 8.94356 16.9101C8.78728 17.0664 8.69948 17.2783 8.69948 17.4993C8.69948 17.7204 8.78728 17.9323 8.94356 18.0886C9.09984 18.2449 9.3118 18.3327 9.53281 18.3327C11.7429 18.3327 13.8626 17.4547 15.4254 15.8919C16.9882 14.3291 17.8661 12.2095 17.8661 9.99935C17.8661 7.78921 16.9882 5.6696 15.4254 4.10679C13.8626 2.54399 11.7429 1.66602 9.53281 1.66602V1.66602ZM9.53281 6.66602C9.3118 6.66602 9.09984 6.75381 8.94356 6.91009C8.78728 7.06637 8.69948 7.27834 8.69948 7.49935V9.99935C8.69948 10.2204 8.78728 10.4323 8.94356 10.5886C9.09984 10.7449 9.3118 10.8327 9.53281 10.8327H11.1995C11.4205 10.8327 11.6325 10.7449 11.7887 10.5886C11.945 10.4323 12.0328 10.2204 12.0328 9.99935C12.0328 9.77834 11.945 9.56637 11.7887 9.41009C11.6325 9.25381 11.4205 9.16602 11.1995 9.16602H10.3661V7.49935C10.3661 7.27834 10.2783 7.06637 10.1221 6.91009C9.96579 6.75381 9.75383 6.66602 9.53281 6.66602Z" fill="white"/>
</svg>
