<svg width="19" height="16" viewBox="0 0 19 16" fill="none" xmlns="http://www.w3.org/2000/svg">
<path d="M13.1199 10.2999C13.0129 9.8553 13.0174 9.37111 13.1868 8.86492C13.4141 8.18267 13.9402 7.62366 14.5955 7.31114C15.1617 7.04264 15.7011 6.99862 16.1959 7.08226C16.3297 7.10426 16.4456 6.99862 16.4456 6.86217V0.88033C16.4456 0.396149 16.0443 0 15.554 0H3.51736C3.02698 0 2.62576 0.396149 2.62576 0.88033V6.85777C2.62576 6.98982 2.74167 7.09546 2.87541 7.07345C3.45049 6.98982 4.08353 7.07785 4.76114 7.52682C5.23815 7.84374 5.61708 8.30151 5.79986 8.83851C5.97818 9.35351 5.98264 9.85089 5.87565 10.2999C5.84444 10.4363 5.95143 10.564 6.09409 10.564H6.67363C6.77616 10.564 6.86532 10.4935 6.88761 10.3923C7.17292 9.23026 8.23393 8.36754 9.5 8.36754C10.7616 8.36754 11.8226 9.23466 12.1124 10.3923C12.1391 10.4935 12.2238 10.564 12.3264 10.564H12.9059C13.0441 10.564 13.1556 10.4363 13.1199 10.2999ZM11.671 5.39642L8.97396 7.02503C8.53707 7.28913 7.9709 6.97662 7.9709 6.47043V3.21321C7.9709 2.70702 8.53261 2.3945 8.97396 2.6586L11.671 4.28721C12.0901 4.5425 12.0901 5.14113 11.671 5.39642ZM3.2588 11.4751C4.25293 11.4751 5.05983 10.6784 5.05983 9.70124C5.05983 8.71967 4.25293 7.92737 3.2588 7.92737C2.26466 7.92737 1.46222 8.72407 1.46222 9.70124C1.45777 10.6828 2.26466 11.4751 3.2588 11.4751ZM13.9402 9.70124C13.9402 10.6828 14.7471 11.4751 15.7367 11.4751C16.7309 11.4751 17.5378 10.6784 17.5378 9.70124C17.5378 8.71967 16.7309 7.92737 15.7367 7.92737C14.7471 7.92297 13.9402 8.71967 13.9402 9.70124ZM17.5333 12.373H13.9491C13.432 12.373 12.9817 12.6371 12.7187 13.0377C12.6518 13.1389 12.6741 13.2666 12.7677 13.3414C13.1422 13.6407 13.423 14.0457 13.5568 14.5166C13.5835 14.6135 13.6682 14.6839 13.7708 14.6839H18.5497C18.7949 14.6839 18.9955 14.4858 18.9955 14.2437V13.8212C19 13.0201 18.3402 12.373 17.5333 12.373ZM5.05091 12.373H1.46668C0.655326 12.373 0 13.0201 0 13.8212V14.2393C0 14.4814 0.20061 14.6795 0.4458 14.6795H5.22478C5.32731 14.6795 5.41201 14.6091 5.43876 14.5122C5.5725 14.0413 5.85335 13.6363 6.22783 13.337C6.32144 13.2622 6.34373 13.1345 6.27687 13.0333C6.0183 12.6371 5.56804 12.373 5.05091 12.373Z" fill="#50A5F1"/>
<path d="M9.50001 12.7958C10.4941 12.7958 11.301 11.9991 11.301 11.0219C11.301 10.0403 10.4941 9.24805 9.50001 9.24805C8.50588 9.24805 7.70344 10.0447 7.70344 11.0219C7.69898 12.0035 8.50588 12.7958 9.50001 12.7958ZM11.2921 13.6937H7.70789C6.89654 13.6937 6.24121 14.3408 6.24121 15.1419V15.56C6.24121 15.8021 6.44182 16.0002 6.68701 16.0002H12.313C12.5582 16.0002 12.7588 15.8021 12.7588 15.56V15.1419C12.7588 14.3408 12.099 13.6937 11.2921 13.6937Z" fill="#50A5F1"/>
</svg>
