<svg width="16" height="16" viewBox="0 0 16 16" fill="none" xmlns="http://www.w3.org/2000/svg">
<path d="M14.0002 1.33301H2.00016C1.60016 1.33301 1.3335 1.59967 1.3335 1.99967V13.9997C1.3335 14.3997 1.60016 14.6663 2.00016 14.6663H14.0002C14.4002 14.6663 14.6668 14.3997 14.6668 13.9997V1.99967C14.6668 1.59967 14.4002 1.33301 14.0002 1.33301ZM11.8002 6.19967L7.26683 10.733C7.00016 10.9997 6.60016 10.9997 6.3335 10.733L4.20016 8.59967C3.9335 8.33301 3.9335 7.93301 4.20016 7.66634C4.46683 7.39967 4.86683 7.39967 5.1335 7.66634L6.80016 9.33301L10.8668 5.26634C11.1335 4.99967 11.5335 4.99967 11.8002 5.26634C12.0668 5.53301 12.0668 5.93301 11.8002 6.19967Z" fill="white"/>
</svg>
