<svg width="26" height="18" viewBox="0 0 26 18" fill="none" xmlns="http://www.w3.org/2000/svg">
<rect opacity="0.7" width="26" height="17.3333" rx="4" fill="#D7E6FE"/>
<rect x="7" y="4.66699" width="12" height="10" rx="2" fill="#50A5F1"/>
<rect x="12" y="8.66699" width="2" height="1" rx="0.5" fill="white"/>
<path fill-rule="evenodd" clip-rule="evenodd" d="M10.7474 3.86706L10.48 4.57608H8.8C7.80589 4.57608 7 5.43081 7 6.48517V7.7579C7 8.81226 7.80589 9.66699 8.8 9.66699H10.6C10.6 8.61263 11.4059 7.7579 12.4 7.7579H13.6C14.5941 7.7579 15.4 8.61263 15.4 9.66699H17.2C18.1941 9.66699 19 8.81226 19 7.7579V6.48517C19 5.43081 18.1941 4.57608 17.2 4.57608H15.52L15.2526 3.86706C14.9792 3.14226 14.3174 2.66699 13.5813 2.66699H12.4187C11.6826 2.66699 11.0208 3.14226 10.7474 3.86706ZM13.5813 3.93972H12.4187C12.1733 3.93972 11.9527 4.09814 11.8616 4.33974L11.7724 4.57608H14.2276L14.1384 4.33974C14.0473 4.09814 13.8267 3.93972 13.5813 3.93972Z" fill="white"/>
</svg>
