<svg width="15" height="15" viewBox="0 0 15 15" fill="none" xmlns="http://www.w3.org/2000/svg">
<path d="M10.125 8.06244C10.125 8.06244 10.0625 8.06244 10.125 8.06244C10 7.99994 9.9375 7.93744 9.8125 7.93744C11.4375 6.68744 11.75 4.31244 10.4375 2.68744C9.125 1.06244 6.8125 0.749939 5.1875 2.06244C3.5625 3.37494 3.25 5.68744 4.5625 7.31244C4.75 7.56244 4.9375 7.74994 5.1875 7.93744C5.125 7.99994 5 7.99994 4.9375 8.06244C4.9375 8.06244 4.9375 8.06244 4.875 8.06244C2.875 8.99994 1.5 10.8749 1.25 13.0624C1.25 13.3749 1.5 13.6874 1.875 13.7499H13.125C13.4375 13.6874 13.6875 13.3749 13.6875 13.0624C13.5 10.8749 12.125 8.99994 10.125 8.06244ZM5 4.74994C5.125 3.37494 6.375 2.37494 7.6875 2.49994C8.875 2.62494 9.8125 3.56244 9.9375 4.74994H5ZM7.5 10.1249L6.3125 8.93744C7.125 8.74994 7.9375 8.74994 8.75 8.93744L7.5 10.1249Z" fill="#50A5F1"/>
</svg>
