<svg width="16" height="10" viewBox="0 0 16 10" fill="none" xmlns="http://www.w3.org/2000/svg">
<path d="M0.0318408 0.805731L7.03909 4.68738L0 8.58398V1.04286C0 0.961681 0.0113717 0.882638 0.0318408 0.805731Z" fill="#50A5F1"/>
<path d="M7.34869 4.51562L0.150391 0.529296C0.341435 0.215261 0.696233 -0.000504971 1.11016 -0.000504971H14.8927C15.3407 -0.000504971 15.7251 0.251578 15.9002 0.610476L8.84975 4.51562L8.09922 4.10118L7.34869 4.51562Z" fill="#50A5F1"/>
<path d="M15.9994 1.04225V8.47656L9.1582 4.68677L15.9858 0.903393C15.9926 0.950392 15.9994 0.995255 15.9994 1.04225Z" fill="#50A5F1"/>
<path d="M1.10988 10C0.495807 10 0 9.53429 0 8.95962V8.92758L8.09666 4.44349L16 8.82076V8.95962C16 9.53429 15.5042 10 14.8901 10H1.10988Z" fill="#50A5F1"/>
</svg>
