<svg width="13" height="12" viewBox="0 0 13 12" fill="none" xmlns="http://www.w3.org/2000/svg">
<rect x="0.5" y="0.5" width="12" height="10.7619" rx="0.5" fill="#27AAE1" stroke="#27AAE1"/>
<path d="M8.1229 4.60357V4.29688C8.1229 4.26877 8.09669 4.24577 8.06467 4.24577H5.26959C5.23757 4.24577 5.21136 4.26877 5.21136 4.29688V4.60357C5.21136 4.63168 5.23757 4.65468 5.26959 4.65468H8.06467C8.09669 4.65468 8.1229 4.63168 8.1229 4.60357ZM5.26959 5.16582C5.23757 5.16582 5.21136 5.18882 5.21136 5.21694V5.52362C5.21136 5.55173 5.23757 5.57473 5.26959 5.57473H6.6089C6.64093 5.57473 6.66713 5.55173 6.66713 5.52362V5.21694C6.66713 5.18882 6.64093 5.16582 6.6089 5.16582H5.26959ZM8.00644 5.90697C7.13807 5.90697 6.43421 6.52482 6.43421 7.28705C6.43421 8.04929 7.13807 8.66713 8.00644 8.66713C8.8748 8.66713 9.57867 8.04929 9.57867 7.28705C9.57867 6.52482 8.8748 5.90697 8.00644 5.90697ZM8.78891 7.9739C8.58001 8.15727 8.30196 8.25822 8.00644 8.25822C7.71092 8.25822 7.43286 8.15727 7.22396 7.9739C7.01506 7.79053 6.90005 7.54646 6.90005 7.28705C6.90005 7.02765 7.01506 6.78358 7.22396 6.60021C7.43286 6.41684 7.71092 6.31589 8.00644 6.31589C8.30196 6.31589 8.58001 6.41684 8.78891 6.60021C8.99781 6.78358 9.11282 7.02765 9.11282 7.28705C9.11282 7.54646 8.99781 7.79053 8.78891 7.9739ZM8.65425 6.80147H8.3318C8.31288 6.80147 8.29541 6.80914 8.28449 6.82255L7.82228 7.38353L7.65414 7.17971C7.64875 7.17313 7.64165 7.16778 7.63341 7.16411C7.62518 7.16044 7.61606 7.15856 7.60683 7.15863H7.28583C7.23852 7.15863 7.21086 7.20591 7.23852 7.23977L7.7757 7.89212C7.79899 7.92023 7.8463 7.92023 7.86959 7.89212L8.70084 6.88261C8.72923 6.84875 8.70157 6.80147 8.65425 6.80147ZM6.31775 8.05376H4.62906V3.55573H8.7052V5.75363C8.7052 5.78175 8.73141 5.80475 8.76344 5.80475H9.17105C9.20308 5.80475 9.22928 5.78175 9.22928 5.75363V3.30016C9.22928 3.18707 9.12519 3.0957 8.99636 3.0957H4.3379C4.20907 3.0957 4.10498 3.18707 4.10498 3.30016V8.30933C4.10498 8.42242 4.20907 8.51379 4.3379 8.51379H6.31775C6.34977 8.51379 6.37598 8.49079 6.37598 8.46268V8.10488C6.37598 8.07677 6.34977 8.05376 6.31775 8.05376Z" fill="white"/>
</svg>
