<svg width="15" height="15" viewBox="0 0 15 15" fill="none" xmlns="http://www.w3.org/2000/svg">
<path d="M14.9998 2.81355C14.9998 2.47641 14.7173 2.21972 14.4128 2.2267H2.81229C2.29078 2.2267 2.02859 2.86082 2.39984 3.22875L6.66574 7.45768L2.39561 11.7757C2.03043 12.145 2.29295 12.7736 2.81229 12.7736H14.4138C14.7346 12.7736 14.9989 12.5119 14.9997 12.1892C14.9997 12.1887 14.9998 12.1882 14.9998 12.1876V2.81355ZM13.8279 10.7618L10.5604 7.45768L13.8279 4.21855V10.7618ZM4.2357 3.39858H12.9904L8.61307 7.73795L4.2357 3.39858ZM7.49795 8.28269L8.20051 8.97917C8.42893 9.20554 8.79709 9.20554 9.02551 8.97917L9.72806 8.28269L13.0103 11.6017H4.21579L7.49795 8.28269Z" fill="#3699FF"/>
<path d="M1.32806 5.85938H2.81248C3.13612 5.85938 3.39841 5.59708 3.39841 5.27344C3.39841 4.9498 3.13612 4.6875 2.81248 4.6875H1.32806C1.00443 4.6875 0.742126 4.9498 0.742126 5.27344C0.742126 5.59708 1.00454 5.85938 1.32806 5.85938Z" fill="#3699FF"/>
<path d="M2.65629 7.5C2.65629 7.17636 2.39399 6.91406 2.07035 6.91406H0.585938C0.262299 6.91406 0 7.17636 0 7.5C0 7.82364 0.262299 8.08594 0.585938 8.08594H2.07035C2.39388 8.08594 2.65629 7.82364 2.65629 7.5Z" fill="#3699FF"/>
<path d="M3.39841 9.72656C3.39841 9.40292 3.13612 9.14062 2.81248 9.14062H1.32806C1.00443 9.14062 0.742126 9.40292 0.742126 9.72656C0.742126 10.0502 1.00443 10.3125 1.32806 10.3125H2.81248C3.13612 10.3125 3.39841 10.0502 3.39841 9.72656Z" fill="#3699FF"/>
</svg>
