<svg width="23" height="23" viewBox="0 0 23 23" fill="none" xmlns="http://www.w3.org/2000/svg">
<path d="M11.5 2.15625C6.34791 2.15625 2.15625 6.34791 2.15625 11.5C2.15625 16.6521 6.34791 20.8438 11.5 20.8438C16.6521 20.8438 20.8438 16.6521 20.8438 11.5C20.8438 6.34791 16.6521 2.15625 11.5 2.15625ZM13.6648 7.61066L14.7474 8.55672L11.4407 12.3346L10.3581 11.2987L13.6648 7.61066Z" fill="#50A5F1"/>
<path d="M8.62184 15.3918L5.45215 12.2189L6.46873 11.2023L9.63887 14.3752L8.62184 15.3918ZM11.5418 15.4272L8.33523 12.2189L9.35227 11.2028L11.4708 13.3236L16.4629 7.61084L17.5456 8.55689L11.5418 15.4272Z" fill="white"/>
</svg>
