<svg width="16" height="15" viewBox="0 0 16 15" fill="none" xmlns="http://www.w3.org/2000/svg">
<path d="M4.8 13.5H8C8 14.325 7.28 15 6.4 15C5.52 15 4.8 14.325 4.8 13.5ZM8 5.25C8 7.2075 9.336 8.8725 11.2 9.495V11.25H12C12.44 11.25 12.8 11.5875 12.8 12C12.8 12.4125 12.44 12.75 12 12.75H0.8C0.36 12.75 0 12.4125 0 12C0 11.5875 0.36 11.25 0.8 11.25H1.6V6C1.6 3.9075 3.128 2.145 5.2 1.65V1.125C5.2 0.5025 5.736 0 6.4 0C7.064 0 7.6 0.5025 7.6 1.125V1.65C8.168 1.785 8.688 2.0175 9.16 2.325C8.40741 3.13566 7.9951 4.17531 8 5.25Z" fill="#50A5F1"/>
<g clip-path="url(#clip0_1874_12623)">
<path d="M12.1597 2.69061C10.6544 2.69061 9.42969 3.83876 9.42969 5.24999C9.42969 6.66121 10.6544 7.80936 12.1597 7.80936C13.665 7.80936 14.8897 6.66121 14.8897 5.24999C14.8897 3.83876 13.665 2.69061 12.1597 2.69061ZM12.7922 4.18465L13.1085 4.44378L12.1424 5.47861L11.826 5.19486L12.7922 4.18465Z" fill="#50A5F1"/>
<path d="M11.3187 6.31593L10.3926 5.44685L10.6896 5.16839L11.6158 6.03747L11.3187 6.31593ZM12.1718 6.32565L11.2349 5.44685L11.5321 5.16851L12.1511 5.74942L13.6096 4.18463L13.926 4.44377L12.1718 6.32565Z" fill="white"/>
</g>
<defs>
<clipPath id="clip0_1874_12623">
<rect width="6.72" height="6.3" fill="white" transform="translate(8.7998 2.09998)"/>
</clipPath>
</defs>
</svg>
