<svg width="15" height="13" viewBox="0 0 15 13" fill="none" xmlns="http://www.w3.org/2000/svg">
<path d="M13.8126 1.65544C13.8131 5.10235 13.8131 8.54876 13.8131 11.9952C13.8131 12.0104 13.8134 12.0258 13.8137 12.0412C13.8147 12.0844 13.8157 12.1279 13.8091 12.17M13.8126 1.65544L12.7003 2.32869C12.8924 1.89199 13.2407 1.60182 13.7451 1.49057C13.7457 1.50001 13.7462 1.50905 13.7467 1.51775C13.7501 1.57231 13.7526 1.61341 13.7526 1.65544V1.65545C13.7531 5.10235 13.7531 8.54876 13.7531 11.9952C13.7531 12.0137 13.7534 12.0309 13.7538 12.0473C13.7547 12.0885 13.7555 12.1242 13.7498 12.1607L13.8091 12.17M13.8126 1.65544C13.8126 1.61159 13.8099 1.56774 13.8065 1.51179C13.8059 1.50114 13.8052 1.49005 13.8045 1.47844L13.8126 1.65544ZM13.8091 12.17L13.7498 12.1605C13.7361 12.2464 13.7071 12.3111 13.6652 12.3533C13.6248 12.3941 13.5671 12.4193 13.4829 12.417C13.4056 12.4147 13.3509 12.3887 13.3124 12.3486C13.273 12.3075 13.2457 12.2462 13.2342 12.166L13.2342 12.1659C13.2277 12.1204 13.2283 12.0749 13.229 12.0243C13.2292 12.0083 13.2294 11.9918 13.2294 11.9746L13.2294 11.9746C13.2289 10.5727 13.2289 9.17083 13.2289 7.76892C13.2289 7.75477 13.2299 7.73942 13.2312 7.72193C13.2314 7.7195 13.2316 7.71701 13.2318 7.71448C13.233 7.69959 13.2342 7.68318 13.2348 7.66715C13.2361 7.63092 13.2347 7.58461 13.213 7.54355L13.16 7.57158M13.8091 12.17C13.7793 12.3568 13.6781 12.4825 13.481 12.477C13.2989 12.4715 13.2002 12.3518 13.1748 12.1745C13.1676 12.1238 13.1683 12.072 13.169 12.0204C13.1692 12.0051 13.1694 11.9898 13.1694 11.9746C13.1689 10.5727 13.1689 9.17082 13.1689 7.76892C13.1689 7.74981 13.1704 7.72976 13.172 7.70963C13.1759 7.65958 13.1798 7.60909 13.16 7.57158M13.16 7.57158C13.1338 7.52168 13.0896 7.48139 13.0454 7.44103C13.0346 7.43117 13.0237 7.4213 13.0132 7.41128L12.9902 7.38877L12.9684 7.41003C12.9574 7.42041 12.946 7.43063 12.9346 7.44084C12.8908 7.48026 12.847 7.51967 12.821 7.56858C12.8011 7.60626 12.8049 7.65706 12.8086 7.70734C12.8101 7.72723 12.8116 7.74703 12.8116 7.76591M13.16 7.57158L13.2131 7.54376C13.19 7.49949 13.1565 7.46343 13.1247 7.4328C13.1096 7.4183 13.0962 7.40607 13.0834 7.39448C13.0661 7.37881 13.0502 7.36429 13.0332 7.3469L12.9904 7.30297L12.9474 7.34672C12.9306 7.36389 12.9144 7.37834 12.897 7.39401C12.8844 7.40522 12.8712 7.41707 12.8565 7.43098C12.8248 7.46107 12.7913 7.49663 12.768 7.54044L12.768 7.54054C12.7463 7.58147 12.7447 7.62766 12.7459 7.66393C12.7464 7.68021 12.7477 7.69684 12.7488 7.71194C12.749 7.71425 12.7491 7.71653 12.7493 7.71877C12.7506 7.73628 12.7516 7.75168 12.7516 7.76589L12.8116 7.76591M12.8116 7.76591C12.8111 8.9259 12.8106 10.0859 12.8116 11.2459M12.8116 7.76591H12.7516M14.1654 12.0563C14.1661 9.50336 14.1661 6.95044 14.166 4.39753C14.1659 3.54561 14.1659 2.69368 14.1659 1.84176C14.1659 1.80163 14.1663 1.76149 14.1667 1.72138C14.1676 1.62781 14.1686 1.53432 14.1644 1.44107C14.1515 1.16911 13.9917 1.02536 13.7252 1.06793C13.5724 1.09247 13.4155 1.13505 13.2781 1.20517L12.7516 7.76591M14.1654 12.0563C14.1654 12.5256 13.9103 12.8271 13.5113 12.8371M14.1654 12.0563H14.2254M14.1654 12.0563H14.2254M13.5113 12.8371C13.1426 12.8466 12.8438 12.5807 12.8215 12.197M13.5113 12.8371L13.5129 12.8971C13.1119 12.9074 12.7858 12.6167 12.7616 12.2005L12.8215 12.197M13.5113 12.8371L12.7516 11.2459M12.8215 12.197C12.8075 11.9566 12.8091 11.7151 12.8106 11.4737C12.8111 11.3977 12.8116 11.3218 12.8116 11.2459M12.8215 12.197L12.7616 12.2005C12.7475 11.958 12.7491 11.7138 12.7506 11.4719C12.7511 11.3963 12.7516 11.3209 12.7516 11.2459M12.8116 11.2459H12.7516C12.7516 11.2459 12.7516 11.2459 12.7516 11.2459M12.8116 11.2459L12.7516 11.2459M12.7516 7.76591C12.7511 8.92589 12.7506 10.0859 12.7516 11.2459M12.7516 7.76591V11.2459M14.2254 12.0563C14.2261 9.50335 14.2261 6.95044 14.226 4.39752C14.2259 3.5456 14.2259 2.69368 14.2259 1.84176C14.2259 1.80293 14.2263 1.76354 14.2267 1.72382C14.2276 1.62952 14.2286 1.53335 14.2243 1.43839L14.2243 1.43823C14.2174 1.29174 14.1703 1.16983 14.0791 1.09112C13.9872 1.01185 13.8612 0.985454 13.7157 1.00868L13.7157 1.00869C13.5589 1.03386 13.3956 1.07787 13.2508 1.15172L13.2508 1.15174M14.2254 12.0563L13.2508 1.15174M12.4155 6.95952L12.4154 6.95986C12.3953 6.99901 12.3658 7.04564 12.332 7.08392C12.3151 7.10307 12.2957 7.12159 12.2747 7.136C12.254 7.15011 12.2277 7.16294 12.1977 7.16468M12.4155 6.95952L12.1977 7.16468M12.4155 6.95952C12.4362 6.9185 12.4374 6.8726 12.4359 6.83651M12.4155 6.95952L12.4359 6.83651M12.1977 7.16468C12.1666 7.16654 12.1387 7.15481 12.1178 7.14226M12.1977 7.16468L12.1178 7.14226M11.9673 6.97311L11.9673 6.97296C11.9445 6.9325 11.9423 6.88593 11.9431 6.84961C11.9434 6.83242 11.9446 6.81489 11.9457 6.79906L11.946 6.79433C11.9472 6.77663 11.9481 6.76107 11.9481 6.74669L11.9673 6.97311ZM11.9673 6.97311C11.9891 7.01151 12.0217 7.0571 12.0577 7.09352M11.9673 6.97311L12.0577 7.09352M13.2508 1.15174C12.3305 1.62206 11.9652 2.43259 11.9516 3.41613C11.9407 4.20529 11.9433 4.99472 11.9459 5.78355M13.2508 1.15174L11.9459 5.78355M12.4359 6.83651C12.4353 6.82089 12.4341 6.80488 12.4329 6.7903M12.4359 6.83651L12.4329 6.7903M12.4329 6.7903C12.4327 6.78747 12.4325 6.7847 12.4323 6.782M12.4329 6.7903L12.4323 6.782M12.4323 6.782C12.4309 6.76461 12.4299 6.7493 12.4299 6.73517L12.4323 6.782ZM12.0577 7.09352C12.0756 7.11173 12.096 7.12924 12.1178 7.14226M12.0577 7.09352L12.1178 7.14226M11.9459 5.78355C11.9469 6.10471 11.948 6.42577 11.9481 6.74667L11.9459 5.78355ZM12.4267 5.77926C12.4224 4.98783 12.4182 4.1977 12.4423 3.40778L12.4299 6.73515C12.43 6.41626 12.4284 6.09766 12.4267 5.77926ZM12.4423 3.40776C12.4534 3.0457 12.5529 2.66412 12.7003 2.32872L12.4423 3.40776Z" fill="#50A5F1" stroke="#50A5F1" stroke-width="0.12"/>
<path d="M7.2953 10.9828H7.29531C9.50767 10.9894 11.3008 9.18497 11.3033 6.95109C11.3058 4.72842 9.52542 2.9178 7.32742 2.9117C5.11615 2.90559 3.31599 4.71599 3.31549 6.94349C3.31498 9.16316 5.09985 10.9757 7.2953 10.9828ZM7.36425 3.3938L7.36426 3.3938C9.31764 3.4332 10.872 5.05259 10.8324 7.00689C10.7919 8.98574 9.17868 10.546 7.22094 10.5012C5.26533 10.4564 3.7523 8.82434 3.79775 6.80011C3.84017 4.91257 5.47015 3.3554 7.36425 3.3938Z" fill="#50A5F1" stroke="#50A5F1" stroke-width="0.12"/>
<path d="M1.58136 12.4775C1.74761 12.463 1.85282 12.3618 1.86622 12.1855C1.87224 12.1079 1.87221 12.0299 1.87218 11.9522C1.87218 11.9467 1.87217 11.9411 1.87217 11.9356C1.87251 10.7619 1.8724 9.58798 1.87228 8.41413C1.87223 7.82724 1.87217 7.24036 1.87217 6.65354C1.87217 6.63517 1.87018 6.61572 1.86818 6.5963C1.86381 6.55376 1.85945 6.51135 1.87614 6.48074L2.28495 6.47075C2.28187 6.40786 2.24268 6.3544 2.20953 6.31486C2.19632 6.2991 2.18188 6.28314 2.16837 6.26821C2.16408 6.26347 2.15989 6.25883 2.15585 6.25434C2.13841 6.2349 2.12318 6.21724 2.11091 6.20023L2.06421 6.13548L2.015 6.19834C1.99653 6.22193 1.97855 6.24339 1.95991 6.26564C1.94617 6.28203 1.93208 6.29885 1.91717 6.31727C1.88392 6.35833 1.8507 6.40261 1.8236 6.45179L1.82347 6.45201C1.80239 6.49065 1.80306 6.53465 1.80518 6.56593C1.80602 6.57839 1.80736 6.59147 1.80858 6.60327C1.80896 6.60699 1.80933 6.61058 1.80967 6.61399C1.81116 6.62915 1.81217 6.64202 1.81217 6.65354C1.81217 7.24037 1.81223 7.82725 1.81228 8.41415C1.8124 9.58799 1.81251 10.7619 1.81217 11.9356V11.9356L1.81218 11.9517C1.81221 12.0299 1.81223 12.1057 1.8064 12.1809L1.80639 12.181C1.80054 12.258 1.77525 12.3129 1.73852 12.3499C1.70175 12.387 1.64826 12.4114 1.57622 12.4177L1.58136 12.4775ZM1.58136 12.4775C1.40072 12.493 1.28063 12.3934 1.24291 12.2151M1.58136 12.4775L1.57614 12.4178M1.74 12.8773C1.91558 12.8328 2.05536 12.7372 2.1505 12.5952C2.24504 12.454 2.2927 12.2712 2.29296 12.0559L1.74 12.8773ZM1.74 12.8773C1.49561 12.9393 1.26333 12.8812 1.0923 12.738C0.921563 12.5951 0.815208 12.3704 0.814679 12.1045M1.74 12.8773L0.814679 12.1045M0.814679 12.1045L0.874679 12.1044L0.814679 12.1045C0.814679 12.1045 0.814679 12.1045 0.814679 12.1045ZM0.814679 12.1045C0.812875 11.3399 0.81317 10.5752 0.813465 9.81044C0.813576 9.52363 0.813687 9.23681 0.813687 8.94998V8.88998H0.814677M0.814679 12.1045L0.814679 8.94998C0.814679 8.92998 0.814678 8.90998 0.814677 8.88998M0.814677 8.88998C0.814655 8.65136 0.814512 8.41272 0.814369 8.17406C0.813904 7.39794 0.813438 6.62163 0.817161 5.84537L0.877161 5.84566M0.814677 8.88998L0.877161 5.84566M0.877161 5.84566L0.817161 5.84546C0.817398 5.77307 0.810156 5.7175 0.790605 5.67004C0.771504 5.62368 0.738751 5.58051 0.680275 5.53647L0.680262 5.53646C0.295426 5.24647 0.116433 4.8427 0.116433 4.36261V4.36259C0.116433 3.36139 0.116433 2.36018 0.116929 1.35846L0.877161 5.84566ZM0.877161 5.84566C0.873439 6.62174 0.873904 7.39782 0.874369 8.1739M0.877161 5.84566L0.874369 8.1739M0.877161 5.84566C0.877657 5.6939 0.847385 5.58721 0.71637 5.48854L0.877161 5.84566ZM1.24291 12.2151L1.57614 12.4178M1.24291 12.2151C1.22769 12.144 1.22863 12.0689 1.22956 11.9944C1.22978 11.9766 1.23001 11.9588 1.23001 11.9411C1.22971 10.6895 1.22995 9.43781 1.23018 8.18617C1.23034 7.35174 1.2305 6.51731 1.2305 5.68288C1.2305 5.67306 1.23056 5.66327 1.23061 5.65353C1.2314 5.51518 1.23214 5.38575 1.07219 5.29872M1.24291 12.2151L1.57614 12.4178M1.57614 12.4178C1.49836 12.4244 1.43907 12.4061 1.39572 12.3719C1.3519 12.3373 1.3183 12.2816 1.30161 12.2027L1.30158 12.2025C1.28791 12.1386 1.28869 12.072 1.28956 11.9983C1.28978 11.9797 1.29001 11.9607 1.29001 11.9411C1.28971 10.6894 1.28995 9.43783 1.29018 8.1862C1.29034 7.35177 1.2905 6.51733 1.2905 5.68288C1.2905 5.67373 1.29057 5.66436 1.29063 5.6548C1.29108 5.5913 1.29158 5.51958 1.27338 5.45377C1.25084 5.37226 1.20069 5.30034 1.10092 5.24604M1.07219 5.29872L1.10092 5.24604M1.07219 5.29872L1.10087 5.24601C1.10089 5.24602 1.10091 5.24603 1.10092 5.24604M1.07219 5.29872L1.10092 5.24604M1.10092 5.24604C0.737798 5.04798 0.587336 4.72256 0.588285 4.30367L1.10092 5.24604ZM0.189832 1.18767L0.142174 1.15122C0.167527 1.11807 0.201711 1.08427 0.239569 1.0578C0.276502 1.03198 0.322642 1.00915 0.371226 1.00655L0.189832 1.18767ZM0.189832 1.18767C0.233503 1.13057 0.308936 1.06997 0.374443 1.06646C0.421092 1.06396 0.496028 1.1441 0.516375 1.2022M0.189832 1.18767L0.588285 4.30365C0.590271 3.54264 0.589715 2.78162 0.589159 2.02071C0.58902 1.83049 0.588881 1.64029 0.588782 1.45009M0.189832 1.18767L0.142509 1.15079M0.189832 1.18767L0.142509 1.15079M0.516375 1.2022C0.535946 1.25773 0.533261 1.32185 0.530605 1.38529C0.529692 1.40711 0.528782 1.42884 0.528782 1.45012L0.588782 1.45009M0.516375 1.2022L0.573003 1.18236C0.572996 1.18235 0.57299 1.18233 0.572983 1.18231M0.516375 1.2022L0.572963 1.18225C0.57297 1.18227 0.572976 1.18229 0.572983 1.18231M0.588782 1.45009C0.588783 1.43077 0.589591 1.41078 0.590489 1.38931L0.59057 1.38738C0.591429 1.36687 0.592345 1.345 0.592441 1.32323L0.588782 1.45009ZM0.572983 1.18231C0.558957 1.1423 0.528994 1.10033 0.497601 1.06908C0.481494 1.05305 0.463081 1.03788 0.443555 1.02655C0.425128 1.01586 0.399642 1.00503 0.371236 1.00655L0.572983 1.18231ZM0.142509 1.15079C0.113926 1.18746 0.111965 1.235 0.112406 1.26621M0.142509 1.15079L0.112406 1.26621M0.112406 1.26621C0.112638 1.28259 0.113786 1.29937 0.114794 1.31411M0.112406 1.26621L0.114794 1.31411M0.114794 1.31411C0.114852 1.31496 0.11491 1.3158 0.114967 1.31663M0.114794 1.31411L0.114967 1.31663M0.114967 1.31663C0.116064 1.33272 0.116927 1.34629 0.116929 1.35843L0.114967 1.31663ZM0.874369 8.1739C0.874512 8.41259 0.874658 8.65128 0.874679 8.88998L0.874369 8.1739Z" fill="#50A5F1" stroke="#50A5F1" stroke-width="0.12"/>
<path d="M12.4764 9.05516L12.451 8.84914L12.3626 9.03693C11.4229 11.0321 9.92338 12.2293 7.75694 12.4091C5.59627 12.5883 3.91962 11.6634 2.67399 9.85192L2.58634 9.72445L2.56512 9.87768C2.54033 10.0566 2.53555 10.2174 2.56718 10.3687C2.59903 10.5211 2.66708 10.6606 2.78315 10.7981C5.3264 13.8127 9.96116 13.575 12.2033 10.3197C12.4756 9.92457 12.5348 9.5292 12.4764 9.05516Z" fill="#50A5F1" stroke="#50A5F1" stroke-width="0.12"/>
<path d="M7.53714 1.46502C9.16592 1.53236 10.4844 2.24184 11.5921 3.54011L11.7128 3.68148L11.6976 3.49626C11.6923 3.43222 11.6941 3.37209 11.6972 3.31311C11.6979 3.3013 11.6985 3.2894 11.6992 3.27747C11.7019 3.2311 11.7046 3.18414 11.7038 3.1391C11.7017 3.02096 11.6755 2.90641 11.5668 2.79384L11.5667 2.79377C9.38716 0.54444 5.91748 0.358174 3.51324 2.35967L3.5132 2.3597C3.39171 2.46101 3.3099 2.56821 3.26997 2.6949C3.23016 2.82118 3.23418 2.95982 3.27135 3.12005L3.29577 3.2253L3.3722 3.14893C4.53806 1.9842 5.91369 1.39815 7.53714 1.46502ZM7.53714 1.46502L7.53962 1.40507M7.53714 1.46502L7.53962 1.40507M7.53962 1.40507C5.92142 1.33842 4.54624 1.91416 3.38034 3.05648C3.38274 3.06841 3.38538 3.08055 3.38825 3.09293L3.3298 3.10649L3.28739 3.06404C3.29675 3.0547 3.30611 3.04539 3.31549 3.03612C3.26908 2.76723 3.33846 2.58353 3.55163 2.40579C5.93172 0.424389 9.36588 0.608705 11.5236 2.83552C11.6566 2.97318 11.6487 3.1101 11.6394 3.27281C11.637 3.31503 11.6345 3.35899 11.6343 3.40515C11.6507 3.42405 11.6671 3.44307 11.6834 3.46222L11.6378 3.50116L11.578 3.50607C11.5758 3.47917 11.5747 3.45305 11.5744 3.42775C10.4703 2.16505 9.15616 1.4719 7.53962 1.40507Z" fill="#50A5F1" stroke="#50A5F1" stroke-width="0.12"/>
<path d="M2.5104 2.88846V2.8884C2.51059 2.6949 2.51056 2.50124 2.51054 2.30752C2.5105 1.98456 2.51046 1.66143 2.51139 1.33863L2.51139 1.33858C2.51163 1.27206 2.51338 1.1826 2.54532 1.1142C2.56233 1.07777 2.58931 1.04393 2.63128 1.02353C2.67273 1.00338 2.72152 0.999881 2.77575 1.00982L2.77591 1.00985C2.81132 1.01644 2.84077 1.03937 2.86226 1.0611C2.88509 1.08419 2.90595 1.11311 2.92354 1.14332C2.95772 1.202 2.98605 1.27696 2.98672 1.33913C2.99813 2.35573 3.00012 3.37287 2.99118 4.38953L2.5104 2.88846ZM2.5104 2.88846C2.5104 3.03591 2.51027 3.18338 2.51013 3.33085C2.50982 3.67504 2.50951 4.01931 2.5109 4.36373C2.51231 4.75328 2.35533 5.0448 2.02061 5.23973L2.02048 5.2398M2.5104 2.88846L2.02048 5.2398M2.02048 5.2398C2.01803 5.24124 2.01553 5.2427 2.01299 5.24418C1.96203 5.27396 1.89613 5.31245 1.85649 5.36644C1.83405 5.39699 1.81864 5.43387 1.81795 5.4775C1.81728 5.52035 1.8309 5.56425 1.85684 5.60944C1.88271 5.65456 1.91403 5.68832 1.95154 5.70943C1.98956 5.73082 2.02937 5.73665 2.06739 5.73324C2.13906 5.72682 2.20884 5.68665 2.2614 5.65502M2.02048 5.2398L2.2614 5.65502M2.2614 5.65502C2.73382 5.37111 2.98653 4.94293 2.99118 4.38956L2.2614 5.65502Z" fill="#50A5F1" stroke="#50A5F1" stroke-width="0.12"/>
<path d="M0.913633 2.66787V2.60787C0.913633 2.46589 0.913688 2.32399 0.913743 2.18212C0.913853 1.8985 0.913964 1.615 0.913633 1.33125L0.913633 1.33118L0.913633 1.33004C0.913632 1.26794 0.91363 1.1875 0.941433 1.12261C0.956328 1.08784 0.979826 1.05553 1.01617 1.0322C1.05213 1.0091 1.09607 0.997759 1.14709 0.996717L1.14711 0.996717C1.19862 0.99568 1.24338 1.00521 1.28043 1.02699C1.31797 1.04905 1.34267 1.08079 1.35853 1.11546C1.38828 1.18053 1.38896 1.26214 1.38896 1.32517C1.38896 2.18466 1.38846 3.04415 1.38797 3.90362C1.38797 3.90745 1.38798 3.91137 1.38798 3.91537C1.38811 3.97377 1.38826 4.04932 1.36357 4.11049C1.34937 4.14565 1.32625 4.17865 1.28939 4.2023C1.25301 4.22563 1.20831 4.23661 1.15627 4.23705L1.15611 4.23706C1.10555 4.23735 1.06154 4.22764 1.02494 4.20637C0.987839 4.18482 0.96282 4.15398 0.946438 4.11976C0.915578 4.0553 0.913888 3.97455 0.914129 3.90939L0.913633 2.66787ZM0.913633 2.66787H0.914631M0.913633 2.66787H0.914631M0.914631 2.66787C0.914652 2.77186 0.914719 2.87586 0.914787 2.97985C0.91499 3.28978 0.915192 3.59968 0.91413 3.90938L0.914631 2.66787ZM0.973636 2.54787C0.973648 2.42595 0.973696 2.30407 0.973743 2.18221C0.973853 1.89856 0.973964 1.61498 0.973633 1.33118L0.973636 2.54787Z" fill="#50A5F1" stroke="#50A5F1" stroke-width="0.12"/>
<path d="M1.94512 4.23698L1.94505 4.23698C1.89445 4.2352 1.85093 4.22352 1.81525 4.20058C1.77918 4.1774 1.75553 4.14554 1.74036 4.11097C1.71182 4.04593 1.71148 3.96542 1.71148 3.90204V3.90197C1.71205 3.41542 1.71197 2.92914 1.71189 2.4428C1.71183 2.07801 1.71177 1.71318 1.71198 1.34817C1.71198 1.34815 1.71198 1.34814 1.71198 1.34813M1.94512 4.23698L1.95659 1.05867C1.77161 1.05478 1.7718 1.20285 1.77197 1.33613C1.77198 1.34016 1.77198 1.34417 1.77198 1.34817L1.71198 1.34813M1.94512 4.23698C1.99692 4.23875 2.04204 4.22999 2.07955 4.20893C2.11763 4.18755 2.14295 4.15626 2.15928 4.12171C2.18986 4.05702 2.19078 3.97554 2.19078 3.9127M1.94512 4.23698L2.19078 3.9127M1.71198 1.34813C1.71198 1.34341 1.71197 1.33855 1.71195 1.33357C1.71177 1.27205 1.71154 1.19249 1.73711 1.12855C1.75197 1.09139 1.77638 1.05652 1.81568 1.0321C1.85444 1.00801 1.90215 0.997513 1.95784 0.998682L1.71198 1.34813ZM2.19078 3.9127C2.19153 3.5873 2.19143 3.2616 2.19134 2.93612C2.19131 2.82766 2.19128 2.71922 2.19128 2.61083C2.19128 2.49975 2.19142 2.3886 2.19156 2.2774C2.19195 1.97133 2.19234 1.66486 2.18979 1.35823L2.19078 3.9127ZM2.09995 1.04012C2.06227 1.01306 2.01455 0.999861 1.95785 0.998682L2.18988 1.3246C2.19004 1.30217 2.19021 1.27755 2.18942 1.2551C2.18814 1.21913 2.18435 1.17951 2.17223 1.14249C2.15981 1.10455 2.13798 1.06742 2.09995 1.04012Z" fill="#50A5F1" stroke="#50A5F1" stroke-width="0.12"/>
</svg>
