<svg width="16" height="16" viewBox="0 0 16 16" fill="none" xmlns="http://www.w3.org/2000/svg">
<path d="M8 13.0909C8.15823 13.0909 8.3129 13.0483 8.44446 12.9683C8.57602 12.8884 8.67855 12.7748 8.7391 12.642C8.79965 12.5091 8.8155 12.3628 8.78463 12.2218C8.75376 12.0807 8.67757 11.9511 8.56569 11.8494C8.4538 11.7477 8.31126 11.6784 8.15607 11.6503C8.00089 11.6223 7.84003 11.6367 7.69385 11.6917C7.54767 11.7468 7.42273 11.84 7.33482 11.9596C7.24692 12.0792 7.2 12.2198 7.2 12.3636C7.2 12.5565 7.28429 12.7415 7.43431 12.8779C7.58434 13.0143 7.78783 13.0909 8 13.0909ZM12 13.0909C12.1582 13.0909 12.3129 13.0483 12.4445 12.9683C12.576 12.8884 12.6786 12.7748 12.7391 12.642C12.7997 12.5091 12.8155 12.3628 12.7846 12.2218C12.7538 12.0807 12.6776 11.9511 12.5657 11.8494C12.4538 11.7477 12.3113 11.6784 12.1561 11.6503C12.0009 11.6223 11.84 11.6367 11.6939 11.6917C11.5477 11.7468 11.4227 11.84 11.3348 11.9596C11.2469 12.0792 11.2 12.2198 11.2 12.3636C11.2 12.5565 11.2843 12.7415 11.4343 12.8779C11.5843 13.0143 11.7878 13.0909 12 13.0909ZM12 10.1818C12.1582 10.1818 12.3129 10.1392 12.4445 10.0593C12.576 9.97934 12.6786 9.86575 12.7391 9.73286C12.7997 9.59997 12.8155 9.45374 12.7846 9.31266C12.7538 9.17159 12.6776 9.042 12.5657 8.94029C12.4538 8.83858 12.3113 8.76931 12.1561 8.74125C12.0009 8.71319 11.84 8.72759 11.6939 8.78263C11.5477 8.83768 11.4227 8.93089 11.3348 9.05049C11.2469 9.17009 11.2 9.31071 11.2 9.45455C11.2 9.64743 11.2843 9.83241 11.4343 9.96881C11.5843 10.1052 11.7878 10.1818 12 10.1818ZM8 10.1818C8.15823 10.1818 8.3129 10.1392 8.44446 10.0593C8.57602 9.97934 8.67855 9.86575 8.7391 9.73286C8.79965 9.59997 8.8155 9.45374 8.78463 9.31266C8.75376 9.17159 8.67757 9.042 8.56569 8.94029C8.4538 8.83858 8.31126 8.76931 8.15607 8.74125C8.00089 8.71319 7.84003 8.72759 7.69385 8.78263C7.54767 8.83768 7.42273 8.93089 7.33482 9.05049C7.24692 9.17009 7.2 9.31071 7.2 9.45455C7.2 9.64743 7.28429 9.83241 7.43431 9.96881C7.58434 10.1052 7.78783 10.1818 8 10.1818ZM13.6 1.45455H12.8V0.727273C12.8 0.534388 12.7157 0.349403 12.5657 0.213013C12.4157 0.0766231 12.2122 0 12 0C11.7878 0 11.5843 0.0766231 11.4343 0.213013C11.2843 0.349403 11.2 0.534388 11.2 0.727273V1.45455H4.8V0.727273C4.8 0.534388 4.71571 0.349403 4.56569 0.213013C4.41566 0.0766231 4.21217 0 4 0C3.78783 0 3.58434 0.0766231 3.43431 0.213013C3.28429 0.349403 3.2 0.534388 3.2 0.727273V1.45455H2.4C1.76348 1.45455 1.15303 1.68442 0.702944 2.09359C0.252856 2.50276 0 3.05771 0 3.63636V13.8182C0 14.3968 0.252856 14.9518 0.702944 15.361C1.15303 15.7701 1.76348 16 2.4 16H13.6C14.2365 16 14.847 15.7701 15.2971 15.361C15.7471 14.9518 16 14.3968 16 13.8182V3.63636C16 3.05771 15.7471 2.50276 15.2971 2.09359C14.847 1.68442 14.2365 1.45455 13.6 1.45455ZM14.4 13.8182C14.4 14.0111 14.3157 14.1961 14.1657 14.3324C14.0157 14.4688 13.8122 14.5455 13.6 14.5455H2.4C2.18783 14.5455 1.98434 14.4688 1.83431 14.3324C1.68429 14.1961 1.6 14.0111 1.6 13.8182V7.27273H14.4V13.8182ZM14.4 5.81818H1.6V3.63636C1.6 3.44348 1.68429 3.25849 1.83431 3.1221C1.98434 2.98571 2.18783 2.90909 2.4 2.90909H3.2V3.63636C3.2 3.82925 3.28429 4.01423 3.43431 4.15062C3.58434 4.28701 3.78783 4.36364 4 4.36364C4.21217 4.36364 4.41566 4.28701 4.56569 4.15062C4.71571 4.01423 4.8 3.82925 4.8 3.63636V2.90909H11.2V3.63636C11.2 3.82925 11.2843 4.01423 11.4343 4.15062C11.5843 4.28701 11.7878 4.36364 12 4.36364C12.2122 4.36364 12.4157 4.28701 12.5657 4.15062C12.7157 4.01423 12.8 3.82925 12.8 3.63636V2.90909H13.6C13.8122 2.90909 14.0157 2.98571 14.1657 3.1221C14.3157 3.25849 14.4 3.44348 14.4 3.63636V5.81818ZM4 10.1818C4.15823 10.1818 4.3129 10.1392 4.44446 10.0593C4.57602 9.97934 4.67855 9.86575 4.7391 9.73286C4.79965 9.59997 4.8155 9.45374 4.78463 9.31266C4.75376 9.17159 4.67757 9.042 4.56569 8.94029C4.4538 8.83858 4.31126 8.76931 4.15607 8.74125C4.00089 8.71319 3.84003 8.72759 3.69385 8.78263C3.54767 8.83768 3.42273 8.93089 3.33482 9.05049C3.24692 9.17009 3.2 9.31071 3.2 9.45455C3.2 9.64743 3.28429 9.83241 3.43431 9.96881C3.58434 10.1052 3.78783 10.1818 4 10.1818ZM4 13.0909C4.15823 13.0909 4.3129 13.0483 4.44446 12.9683C4.57602 12.8884 4.67855 12.7748 4.7391 12.642C4.79965 12.5091 4.8155 12.3628 4.78463 12.2218C4.75376 12.0807 4.67757 11.9511 4.56569 11.8494C4.4538 11.7477 4.31126 11.6784 4.15607 11.6503C4.00089 11.6223 3.84003 11.6367 3.69385 11.6917C3.54767 11.7468 3.42273 11.84 3.33482 11.9596C3.24692 12.0792 3.2 12.2198 3.2 12.3636C3.2 12.5565 3.28429 12.7415 3.43431 12.8779C3.58434 13.0143 3.78783 13.0909 4 13.0909Z" fill="#50A5F1"/>
</svg>
