<svg width="13" height="13" viewBox="0 0 13 13" fill="none" xmlns="http://www.w3.org/2000/svg">
<rect opacity="0.3" width="6.46552" height="1.07759" rx="0.538793" transform="matrix(-1 0 0 1 10.8101 5.96143)" fill="white"/>
<path d="M9.71121 6.25824L8.8572 5.54656C8.60385 5.33544 8.58647 4.95234 8.81967 4.71914C9.02964 4.50917 9.36689 4.49926 9.58884 4.69654L10.7773 5.75298C11.2248 6.15077 11.2248 6.85001 10.7773 7.2478L9.58884 8.30423C9.36689 8.50152 9.02964 8.49161 8.81967 8.28163C8.58647 8.04843 8.60385 7.66534 8.8572 7.45421L9.71121 6.74254C9.86243 6.61652 9.86243 6.38426 9.71121 6.25824Z" fill="white"/>
<path opacity="0.5" d="M8.65479 3.08766V3.26726C8.65479 3.56483 8.41356 3.80605 8.11599 3.80605C7.81842 3.80605 7.5772 3.56483 7.5772 3.26726C7.5772 2.96969 7.33597 2.72847 7.03841 2.72847H3.72806C3.17578 2.72847 2.72806 3.17618 2.72806 3.72846V9.27157C2.72806 9.82385 3.17578 10.2716 3.72806 10.2716H7.03841C7.33597 10.2716 7.5772 10.0303 7.5772 9.73277C7.5772 9.43521 7.81842 9.19398 8.11599 9.19398C8.41356 9.19398 8.65479 9.43521 8.65479 9.73277V9.91237C8.65479 10.7059 8.01152 11.3492 7.218 11.3492H3.65047C2.5459 11.3492 1.65047 10.4537 1.65047 9.34915V3.65088C1.65047 2.54631 2.5459 1.65088 3.65047 1.65088H7.218C8.01152 1.65088 8.65479 2.29415 8.65479 3.08766Z" fill="white"/>
</svg>
