<svg width="22" height="22" viewBox="0 0 22 22" fill="none" xmlns="http://www.w3.org/2000/svg">
<path d="M13.7498 5.49967H8.24984C8.00672 5.49967 7.77356 5.59625 7.60166 5.76816C7.42975 5.94007 7.33317 6.17323 7.33317 6.41634V10.083C7.33317 10.3261 7.42975 10.5593 7.60166 10.7312C7.77356 10.9031 8.00672 10.9997 8.24984 10.9997H13.7498C13.993 10.9997 14.2261 10.9031 14.398 10.7312C14.5699 10.5593 14.6665 10.3261 14.6665 10.083V6.41634C14.6665 6.17323 14.5699 5.94007 14.398 5.76816C14.2261 5.59625 13.993 5.49967 13.7498 5.49967ZM12.8332 9.16634H9.1665V7.33301H12.8332V9.16634ZM15.5832 1.83301H4.58317C4.34006 1.83301 4.1069 1.92958 3.93499 2.10149C3.76308 2.2734 3.6665 2.50656 3.6665 2.74967V19.2497C3.6665 19.4928 3.76308 19.7259 3.93499 19.8979C4.1069 20.0698 4.34006 20.1663 4.58317 20.1663H15.5832C16.3125 20.1663 17.012 19.8766 17.5277 19.3609C18.0434 18.8452 18.3332 18.1457 18.3332 17.4163V4.58301C18.3332 3.85366 18.0434 3.15419 17.5277 2.63846C17.012 2.12274 16.3125 1.83301 15.5832 1.83301ZM16.4998 17.4163C16.4998 17.6595 16.4033 17.8926 16.2314 18.0645C16.0594 18.2364 15.8263 18.333 15.5832 18.333H5.49984V3.66634H15.5832C15.8263 3.66634 16.0594 3.76292 16.2314 3.93483C16.4033 4.10673 16.4998 4.33989 16.4998 4.58301V17.4163Z" fill="white"/>
</svg>
