<svg width="14" height="14" viewBox="0 0 14 14" fill="none" xmlns="http://www.w3.org/2000/svg">
<rect width="14" height="14" fill="#50A5F1"/>
<path d="M12.2498 1.16699H1.74984C1.39984 1.16699 1.1665 1.40033 1.1665 1.75033V12.2503C1.1665 12.6003 1.39984 12.8337 1.74984 12.8337H12.2498C12.5998 12.8337 12.8332 12.6003 12.8332 12.2503V1.75033C12.8332 1.40033 12.5998 1.16699 12.2498 1.16699ZM10.3248 5.42533L6.35817 9.39199C6.12484 9.62533 5.77484 9.62533 5.5415 9.39199L3.67484 7.52533C3.4415 7.29199 3.4415 6.94199 3.67484 6.70866C3.90817 6.47533 4.25817 6.47533 4.4915 6.70866L5.94984 8.16699L9.50817 4.60866C9.7415 4.37533 10.0915 4.37533 10.3248 4.60866C10.5582 4.84199 10.5582 5.19199 10.3248 5.42533Z" fill="white"/>
</svg>
