<svg width="17" height="17" viewBox="0 0 17 17" fill="none" xmlns="http://www.w3.org/2000/svg">
<path d="M15.625 3.74998C15.415 3.74998 15.2137 3.83339 15.0652 3.98185C14.9167 4.13032 14.8333 4.33168 14.8333 4.54165V12.4583C14.8333 13.0882 14.5831 13.6923 14.1377 14.1377C13.6923 14.5831 13.0882 14.8333 12.4583 14.8333H4.54165C4.33168 14.8333 4.13032 14.9167 3.98185 15.0652C3.83339 15.2137 3.74998 15.415 3.74998 15.625C3.74998 15.8349 3.83339 16.0363 3.98185 16.1848C4.13032 16.3332 4.33168 16.4166 4.54165 16.4166H12.4583C13.5081 16.4166 14.5149 15.9996 15.2573 15.2573C15.9996 14.5149 16.4166 13.5081 16.4166 12.4583V4.54165C16.4166 4.33168 16.3332 4.13032 16.1848 3.98185C16.0363 3.83339 15.8349 3.74998 15.625 3.74998ZM13.25 10.875V2.95831C13.25 2.32842 12.9998 1.72433 12.5544 1.27893C12.109 0.833536 11.5049 0.583313 10.875 0.583313H2.95831C2.32842 0.583313 1.72433 0.833536 1.27893 1.27893C0.833536 1.72433 0.583313 2.32842 0.583313 2.95831V10.875C0.583313 11.5049 0.833536 12.109 1.27893 12.5544C1.72433 12.9998 2.32842 13.25 2.95831 13.25H10.875C11.5049 13.25 12.109 12.9998 12.5544 12.5544C12.9998 12.109 13.25 11.5049 13.25 10.875ZM6.91665 2.16665H8.49998V6.01415L8.21498 5.77665C8.07273 5.65816 7.89345 5.59328 7.70831 5.59328C7.52318 5.59328 7.3439 5.65816 7.20165 5.77665L6.91665 6.01415V2.16665ZM2.16665 10.875V2.95831C2.16665 2.74835 2.25005 2.54699 2.39852 2.39852C2.54699 2.25005 2.74835 2.16665 2.95831 2.16665H5.33331V7.70831C5.3333 7.85965 5.37667 8.00782 5.45828 8.13527C5.53989 8.26272 5.65632 8.36411 5.79378 8.42742C5.93124 8.49073 6.08396 8.51332 6.23386 8.49251C6.38376 8.47169 6.52456 8.40835 6.63956 8.30998L7.70831 7.4154L8.77706 8.30998C8.92047 8.43261 9.10296 8.49999 9.29165 8.49998C9.40618 8.49917 9.51934 8.47492 9.62415 8.42873C9.76156 8.36513 9.87786 8.26346 9.95924 8.13577C10.0406 8.00808 10.0837 7.85973 10.0833 7.70831V2.16665H10.875C11.0849 2.16665 11.2863 2.25005 11.4348 2.39852C11.5832 2.54699 11.6666 2.74835 11.6666 2.95831V10.875C11.6666 11.0849 11.5832 11.2863 11.4348 11.4348C11.2863 11.5832 11.0849 11.6666 10.875 11.6666H2.95831C2.74835 11.6666 2.54699 11.5832 2.39852 11.4348C2.25005 11.2863 2.16665 11.0849 2.16665 10.875Z" fill="#50A5F1"/>
</svg>
