<svg width="30" height="30" viewBox="0 0 30 30" fill="none" xmlns="http://www.w3.org/2000/svg">
<path d="M30 15C30 23.2843 23.2843 30 15 30C6.71573 30 0 23.2843 0 15C0 6.71573 6.71573 0 15 0C23.2843 0 30 6.71573 30 15Z" fill="#556EE6"/>
<path d="M15.0727 18.4727C14.1504 18.4727 13.386 17.7223 13.4859 16.8054C13.5205 16.4874 13.566 16.2074 13.6222 16.0024C13.7738 15.4693 13.9933 15.0417 14.2808 14.7197C14.5683 14.3925 14.9185 14.0942 15.3314 13.825C15.6607 13.6139 15.9534 13.4001 16.2096 13.1837C16.4709 12.962 16.6774 12.7245 16.8289 12.4711C16.9805 12.2177 17.0563 11.9301 17.0563 11.6081C17.0563 11.2966 16.9831 11.0222 16.8368 10.7846C16.6904 10.5471 16.4892 10.365 16.2331 10.2383C15.9822 10.1064 15.7025 10.0404 15.3942 10.0404C15.0858 10.0404 14.7957 10.1116 14.5239 10.2542C14.2573 10.3967 14.0378 10.5999 13.8653 10.8638C13.5671 11.3249 13.1655 11.806 12.6164 11.806H11.8288C10.823 11.806 9.95761 10.9573 10.2916 10.0086C10.4112 9.66892 10.5675 9.36016 10.7605 9.08234C11.2571 8.37503 11.913 7.85247 12.7284 7.51465C13.5438 7.17155 14.4429 7 15.4255 7C16.5023 7 17.4588 7.16891 18.2951 7.50673C19.1366 7.84455 19.7978 8.34336 20.2787 9.00317C20.7596 9.66297 21 10.4706 21 11.426C21 12.0541 20.8955 12.6083 20.6864 13.0887C20.4773 13.569 20.1846 13.9939 19.8083 14.3634C19.4372 14.7276 19.0007 15.0602 18.4989 15.361C18.1069 15.5933 17.7802 15.8361 17.5189 16.0895C17.2628 16.3428 17.0694 16.6331 16.9387 16.9604C16.6207 17.744 16.0571 18.4727 15.2115 18.4727H15.0727ZM15.1354 23.6667C14.5709 23.6667 14.0874 23.4661 13.685 23.0649C13.2877 22.6638 13.0917 22.1782 13.0969 21.6081C13.0917 21.0486 13.2877 20.5709 13.685 20.175C14.0874 19.7738 14.5709 19.5732 15.1354 19.5732C15.6738 19.5732 16.1468 19.7738 16.5545 20.175C16.9622 20.5709 17.1687 21.0486 17.1739 21.6081C17.1687 21.9881 17.0694 22.3339 16.876 22.6453C16.6878 22.9567 16.4395 23.2048 16.1311 23.3896C15.828 23.5743 15.4961 23.6667 15.1354 23.6667Z" fill="white"/>
</svg>
