<svg width="13" height="12" viewBox="0 0 13 12" fill="none" xmlns="http://www.w3.org/2000/svg">
<path d="M11.5574 10.0059H11.3708V11.2222V11.5147L12.9515 10.0059H12.818H11.5574Z" fill="#50A5F1"/>
<path d="M2.97087 1.38763V0.996936V0.812176V0.152042C2.97087 0.0673606 2.8943 0 2.79808 0C2.70187 0 2.62529 0.0692852 2.62529 0.152042V0.812176V0.996936V1.37416C2.48392 1.43382 2.38574 1.57046 2.38574 1.73213C2.38574 1.94768 2.56442 2.12282 2.78434 2.12282C3.00425 2.12282 3.18293 1.94768 3.18293 1.73213C3.18293 1.58009 3.09653 1.45306 2.97087 1.38763Z" fill="#50A5F1"/>
<path d="M5.31536 1.36646V0.996936V0.812176V0.152042C5.31536 0.0673606 5.23878 0 5.14257 0C5.04636 0 4.96978 0.0692852 4.96978 0.152042V0.812176V0.996936V1.39725C4.85394 1.46461 4.77539 1.58778 4.77539 1.73213C4.77539 1.94768 4.95407 2.12282 5.17399 2.12282C5.3939 2.12282 5.57258 1.94768 5.57258 1.73213C5.57062 1.56469 5.46459 1.42227 5.31536 1.36646Z" fill="#50A5F1"/>
<path d="M7.64204 1.36838V0.996936V0.812176V0.152042C7.64204 0.0673606 7.56546 0 7.46925 0C7.375 0 7.29646 0.0692852 7.29646 0.152042V0.812176V0.996936V1.39533C7.17864 1.46269 7.09814 1.58778 7.09814 1.73213C7.09814 1.94768 7.27682 2.12282 7.49674 2.12282C7.71665 2.12282 7.89533 1.94768 7.89533 1.73213C7.89337 1.56469 7.7893 1.42419 7.64204 1.36838Z" fill="#50A5F1"/>
<path d="M10.0394 1.378V0.996936V0.812176V0.152042C10.0394 0.0673606 9.96084 0 9.86659 0C9.77234 0 9.6938 0.0692852 9.6938 0.152042V0.812176V0.996936V1.38185C9.56225 1.44537 9.47192 1.57624 9.47192 1.7302C9.47192 1.94576 9.6506 2.1209 9.87052 2.1209C10.0904 2.1209 10.2691 1.94576 10.2691 1.7302C10.2691 1.57431 10.1749 1.43959 10.0394 1.378Z" fill="#50A5F1"/>
<path d="M12.0128 0.535128H11.0801V0.533203H10.387L10.3831 0.92197C10.713 1.07786 10.7856 1.46855 10.7738 1.7303C10.7522 2.22492 10.3635 2.62715 9.85883 2.62715C9.35225 2.62715 8.96347 2.22492 8.94383 1.7303C8.93205 1.4647 9.07539 1.05669 9.29726 0.935442V0.533203H8.02294L8.01902 0.910422C8.37049 1.13367 8.41368 1.36462 8.41368 1.7303C8.41368 2.22684 8.0033 2.62715 7.49868 2.62715C6.99209 2.62715 6.60528 2.22492 6.58368 1.7303C6.56994 1.44738 6.70935 1.07786 6.93319 0.948914V0.533203H5.69813L5.70599 0.916196C6.04764 1.17986 6.05746 1.49742 6.05157 1.7303C6.03782 2.22684 5.64119 2.62715 5.13656 2.62715C4.62998 2.62715 4.23531 2.22492 4.22157 1.7303C4.21371 1.48587 4.29618 1.1279 4.60838 0.941216V0.533203H4.35312H3.33798V0.929668C3.68356 1.17986 3.6973 1.46855 3.68945 1.7303C3.67571 2.22684 3.27908 2.62715 2.77249 2.62715C2.2659 2.62715 1.86731 2.22492 1.85749 1.7303C1.8516 1.44738 1.94584 1.07786 2.24626 0.929668L2.24234 0.533203H1.26058V0.535128H0.824675C0.331831 0.535128 0 0.864232 0 1.3473V10.5237C0 11.0068 0.331831 11.5688 0.824675 11.5688H10.8308V9.48639H10.9643H12.9553V1.3473C12.9494 0.864232 12.5057 0.535128 12.0128 0.535128ZM3.65214 9.48639H2.05973V7.89668H3.65214V9.48639ZM3.65214 7.30005H2.05973V5.71034H3.65214V7.30005ZM3.66 5.16761H2.06759V3.60677H3.66V5.16761ZM4.29618 3.60484H5.8886V5.16569H4.29618V3.60484ZM4.29618 5.73921H5.8886V7.30005H4.29618V5.73921ZM5.89645 9.48639H4.30403V7.89668H5.89645V9.48639ZM8.16628 9.48639H6.52085V7.89668H8.16628V9.48639ZM8.17217 7.30005H6.51888V5.73921H8.17217V7.30005ZM8.17217 5.16761H6.52281V3.61447H8.17217V5.16761ZM10.4636 9.48639L8.80049 9.50178V7.8986L10.4636 7.89668V9.48639ZM10.4499 7.30005H8.80049L8.80442 5.72766L10.4499 5.71227V7.30005ZM10.4479 5.16761L8.80049 5.16953L8.79657 3.62217L10.4479 3.60677V5.16761Z" fill="#50A5F1"/>
</svg>
