<svg width="35" height="35" viewBox="0 0 35 35" fill="none" xmlns="http://www.w3.org/2000/svg">
<path opacity="0.25" d="M4.375 5.83325C4.375 3.41701 6.33375 1.45825 8.75 1.45825H22.9795C24.1398 1.45825 25.2526 1.91919 26.0731 2.73966L29.3436 6.01018C30.1641 6.83065 30.625 7.94345 30.625 9.10377V29.1666C30.625 31.5828 28.6662 33.5416 26.25 33.5416H8.75C6.33376 33.5416 4.375 31.5828 4.375 29.1666V5.83325Z" fill="#00A3FF"/>
<path d="M21.875 2.7588C21.875 2.04053 22.4573 1.45825 23.1756 1.45825C24.2103 1.45825 25.2027 1.86932 25.9344 2.60102L29.4822 6.14882C30.2139 6.88052 30.625 7.87292 30.625 8.9077C30.625 9.62598 30.0427 10.2083 29.3245 10.2083H23.3333C22.5279 10.2083 21.875 9.55533 21.875 8.74992V2.7588Z" fill="#00A3FF"/>
<path d="M16.9411 13.2357C16.7691 13.3068 16.608 13.4123 16.4682 13.5521L12.0932 17.9271C11.5236 18.4967 11.5236 19.42 12.0932 19.9895C12.6627 20.559 13.586 20.559 14.1555 19.9895L16.041 18.1041V24.7917C16.041 25.5971 16.6939 26.25 17.4993 26.25C18.3048 26.25 18.9577 25.5971 18.9577 24.7917V18.1041L20.8432 19.9895C21.4127 20.559 22.336 20.559 22.9055 19.9895C23.4751 19.42 23.4751 18.4967 22.9055 17.9271L18.5305 13.5521C18.1009 13.1224 17.4697 13.0169 16.9411 13.2357Z" fill="#00A3FF"/>
</svg>
