<svg width="17" height="17" viewBox="0 0 17 17" fill="none" xmlns="http://www.w3.org/2000/svg">
<path d="M15.7596 0.630828C15.1921 0.533083 14.6175 0.482771 14.0417 0.480411C12.077 0.478801 10.1534 1.04216 8.49999 2.10333C6.84235 1.05609 4.919 0.506561 2.95832 0.519994C2.3825 0.522354 1.80787 0.572667 1.2404 0.670411C1.05452 0.702457 0.886195 0.799816 0.765729 0.944955C0.645263 1.0901 0.580577 1.27348 0.583319 1.46208V10.9621C0.581623 11.0784 0.605586 11.1937 0.6535 11.2997C0.701415 11.4057 0.772105 11.4998 0.860539 11.5754C0.948974 11.651 1.05298 11.7062 1.16516 11.737C1.27734 11.7678 1.39493 11.7735 1.50957 11.7537C2.64404 11.5573 3.80635 11.5899 4.92804 11.8496C6.04972 12.1093 7.1081 12.5908 8.04082 13.2658L8.13582 13.3212H8.2229C8.3107 13.3578 8.40487 13.3767 8.49999 13.3767C8.5951 13.3767 8.68927 13.3578 8.77707 13.3212H8.86415L8.95915 13.2658C9.88537 12.5757 10.9407 12.0786 12.0626 11.8039C13.1845 11.5292 14.3501 11.4825 15.4904 11.6667C15.605 11.6865 15.7226 11.6807 15.8348 11.6499C15.947 11.6191 16.051 11.5639 16.1394 11.4883C16.2279 11.4127 16.2986 11.3186 16.3465 11.2126C16.3944 11.1066 16.4183 10.9913 16.4167 10.875V1.37499C16.4084 1.19462 16.3388 1.02247 16.2192 0.88712C16.0997 0.751767 15.9375 0.661336 15.7596 0.630828ZM7.70832 11.1521C6.24364 10.3815 4.61331 9.97939 2.95832 9.98041C2.69707 9.98041 2.43582 9.98041 2.16665 9.98041V2.06374C2.43032 2.04855 2.69465 2.04855 2.95832 2.06374C4.64725 2.06188 6.29932 2.5575 7.70832 3.48874V11.1521ZM14.8333 10.0121C14.5642 10.0121 14.3029 10.0121 14.0417 10.0121C12.3867 10.0111 10.7563 10.4132 9.29165 11.1837V3.48874C10.7007 2.5575 12.3527 2.06188 14.0417 2.06374C14.3053 2.04855 14.5696 2.04855 14.8333 2.06374V10.0121ZM15.7596 13.2975C15.1921 13.1997 14.6175 13.1494 14.0417 13.1471C12.077 13.1455 10.1534 13.7088 8.49999 14.77C6.8466 13.7088 4.92295 13.1455 2.95832 13.1471C2.3825 13.1494 1.80787 13.1997 1.2404 13.2975C1.13735 13.3138 1.03855 13.3504 0.949672 13.4051C0.8608 13.4598 0.783612 13.5315 0.722547 13.6161C0.661482 13.7007 0.617745 13.7965 0.593851 13.8981C0.569957 13.9997 0.566378 14.105 0.583319 14.2079C0.62355 14.4135 0.743624 14.5948 0.917236 14.712C1.09085 14.8292 1.30385 14.8728 1.50957 14.8333C2.64404 14.6369 3.80635 14.6695 4.92804 14.9292C6.04972 15.1889 7.1081 15.6704 8.04082 16.3454C8.1749 16.4409 8.3354 16.4922 8.49999 16.4922C8.66458 16.4922 8.82507 16.4409 8.95915 16.3454C9.89188 15.6704 10.9502 15.1889 12.0719 14.9292C13.1936 14.6695 14.3559 14.6369 15.4904 14.8333C15.6961 14.8728 15.9091 14.8292 16.0827 14.712C16.2563 14.5948 16.3764 14.4135 16.4167 14.2079C16.4336 14.105 16.43 13.9997 16.4061 13.8981C16.3822 13.7965 16.3385 13.7007 16.2774 13.6161C16.2164 13.5315 16.1392 13.4598 16.0503 13.4051C15.9614 13.3504 15.8626 13.3138 15.7596 13.2975Z" fill="#50A5F1"/>
</svg>
