<svg width="11" height="12" viewBox="0 0 11 12" fill="none" xmlns="http://www.w3.org/2000/svg">
<path d="M8.9375 0H0.6875C0.505164 0 0.330295 0.0632141 0.201364 0.175736C0.072433 0.288258 0 0.44087 0 0.6V11.4C0 11.5591 0.072433 11.7117 0.201364 11.8243C0.330295 11.9368 0.505164 12 0.6875 12H8.9375C9.48451 12 10.0091 11.8104 10.3959 11.4728C10.7827 11.1352 11 10.6774 11 10.2V1.8C11 1.32261 10.7827 0.864773 10.3959 0.527208C10.0091 0.189642 9.48451 0 8.9375 0ZM2.75 10.8H1.375V1.2H2.75V10.8ZM9.625 10.2C9.625 10.3591 9.55257 10.5117 9.42364 10.6243C9.29471 10.7368 9.11984 10.8 8.9375 10.8H4.125V1.2H8.9375C9.11984 1.2 9.29471 1.26321 9.42364 1.37574C9.55257 1.48826 9.625 1.64087 9.625 1.8V10.2Z" fill="#50A5F1"/>
</svg>
