<svg width="11" height="11" viewBox="0 0 11 11" fill="none" xmlns="http://www.w3.org/2000/svg">
<path fill-rule="evenodd" clip-rule="evenodd" d="M2.19963 4.4V2.56667C2.19963 2.22961 2.26601 1.89585 2.39498 1.58445C2.52394 1.27304 2.71297 0.990096 2.95127 0.751759C3.18956 0.513422 3.47246 0.324363 3.78381 0.195376C4.09516 0.0663888 4.42887 0 4.76587 0C5.10287 0 5.43658 0.0663888 5.74793 0.195376C6.05928 0.324363 6.34218 0.513422 6.58047 0.751759C6.81877 0.990096 7.0078 1.27304 7.13677 1.58445C7.26573 1.89585 7.33211 2.22961 7.33211 2.56667V4.4H8.43192C8.72361 4.4 9.00336 4.51589 9.20961 4.72218C9.41587 4.92847 9.53174 5.20826 9.53174 5.5V5.90333C9.94611 5.98749 10.3186 6.21233 10.5862 6.53977C10.8538 6.86721 11 7.2771 11 7.7C11 8.1229 10.8538 8.53279 10.5862 8.86023C10.3186 9.18767 9.94611 9.41251 9.53174 9.49667V9.9C9.53174 10.1917 9.41587 10.4715 9.20961 10.6778C9.00336 10.8841 8.72361 11 8.43192 11H1.09982C0.808127 11 0.528384 10.8841 0.322129 10.6778C0.115873 10.4715 0 10.1917 0 9.9L0 5.5C0 5.20826 0.115873 4.92847 0.322129 4.72218C0.528384 4.51589 0.808127 4.4 1.09982 4.4H2.19963ZM2.93284 2.56667C2.93284 2.08044 3.12597 1.61412 3.46972 1.2703C3.81348 0.926488 4.27972 0.733333 4.76587 0.733333C5.25202 0.733333 5.71826 0.926488 6.06202 1.2703C6.40578 1.61412 6.5989 2.08044 6.5989 2.56667V4.4H2.93284V2.56667ZM6.23229 6.6C5.9406 6.6 5.66086 6.71589 5.4546 6.92218C5.24835 7.12847 5.13248 7.40826 5.13248 7.7C5.13248 7.99174 5.24835 8.27153 5.4546 8.47782C5.66086 8.68411 5.9406 8.8 6.23229 8.8H9.16514C9.45682 8.8 9.73657 8.68411 9.94282 8.47782C10.1491 8.27153 10.265 7.99174 10.265 7.7C10.265 7.40826 10.1491 7.12847 9.94282 6.92218C9.73657 6.71589 9.45682 6.6 9.16514 6.6H6.23229Z" fill="white"/>
</svg>
