<svg width="15" height="15" viewBox="0 0 15 15" fill="none" xmlns="http://www.w3.org/2000/svg">
<path d="M13.325 5.96875L12.1438 5.575L12.7 4.4625C12.7564 4.34606 12.7753 4.21498 12.754 4.08736C12.7327 3.95974 12.6724 3.84187 12.5813 3.75L11.25 2.41875C11.1576 2.32631 11.0386 2.26513 10.9097 2.24383C10.7808 2.22253 10.6484 2.24217 10.5313 2.3L9.41875 2.85625L9.025 1.675C8.98342 1.55187 8.90448 1.44477 8.79919 1.36859C8.69389 1.29242 8.56746 1.25097 8.4375 1.25H6.5625C6.43147 1.24966 6.30365 1.29051 6.19711 1.36678C6.09056 1.44304 6.01068 1.55086 5.96875 1.675L5.575 2.85625L4.4625 2.3C4.34606 2.24361 4.21498 2.22475 4.08736 2.24602C3.95974 2.26729 3.84187 2.32765 3.75 2.41875L2.41875 3.75C2.32631 3.84236 2.26513 3.96136 2.24383 4.09029C2.22253 4.21921 2.24217 4.35157 2.3 4.46875L2.85625 5.58125L1.675 5.975C1.55187 6.01659 1.44477 6.09552 1.36859 6.20082C1.29242 6.30612 1.25097 6.43254 1.25 6.5625V8.4375C1.24966 8.56853 1.29051 8.69635 1.36678 8.8029C1.44304 8.90944 1.55086 8.98932 1.675 9.03125L2.85625 9.425L2.3 10.5375C2.24361 10.6539 2.22475 10.785 2.24602 10.9126C2.26729 11.0403 2.32765 11.1581 2.41875 11.25L3.75 12.5813C3.84236 12.6737 3.96136 12.7349 4.09029 12.7562C4.21921 12.7775 4.35157 12.7578 4.46875 12.7L5.58125 12.1438L5.975 13.325C6.01693 13.4491 6.09681 13.557 6.20336 13.6332C6.30991 13.7095 6.43772 13.7503 6.56875 13.75H8.44375C8.57478 13.7503 8.7026 13.7095 8.80914 13.6332C8.91569 13.557 8.99557 13.4491 9.0375 13.325L9.43125 12.1438L10.5438 12.7C10.6595 12.755 10.7893 12.7731 10.9156 12.7518C11.0419 12.7306 11.1586 12.671 11.25 12.5813L12.5813 11.25C12.6737 11.1576 12.7349 11.0386 12.7562 10.9097C12.7775 10.7808 12.7578 10.6484 12.7 10.5313L12.1438 9.41875L13.325 9.025C13.4481 8.98342 13.5552 8.90448 13.6314 8.79919C13.7076 8.69389 13.749 8.56746 13.75 8.4375V6.5625C13.7503 6.43147 13.7095 6.30365 13.6332 6.19711C13.557 6.09056 13.4491 6.01068 13.325 5.96875ZM12.5 7.9875L11.75 8.2375C11.5775 8.29344 11.4193 8.38624 11.2863 8.50944C11.1533 8.63264 11.0486 8.78331 10.9797 8.95099C10.9107 9.11867 10.879 9.29935 10.8868 9.48049C10.8947 9.66163 10.9418 9.8389 11.025 10L11.3813 10.7125L10.6938 11.4L10 11.025C9.83972 10.9451 9.66416 10.9007 9.4852 10.8946C9.30623 10.8885 9.12805 10.9209 8.9627 10.9896C8.79735 11.0584 8.64871 11.1618 8.52683 11.293C8.40494 11.4242 8.31267 11.5801 8.25625 11.75L8.00625 12.5H7.0125L6.7625 11.75C6.70656 11.5775 6.61377 11.4193 6.49056 11.2863C6.36736 11.1533 6.21669 11.0486 6.04901 10.9797C5.88134 10.9107 5.70066 10.879 5.51952 10.8868C5.33838 10.8947 5.1611 10.9418 5 11.025L4.2875 11.3813L3.6 10.6938L3.975 10C4.05819 9.8389 4.10533 9.66163 4.11316 9.48049C4.12098 9.29935 4.08931 9.11867 4.02034 8.95099C3.95136 8.78331 3.84674 8.63264 3.71372 8.50944C3.5807 8.38624 3.42247 8.29344 3.25 8.2375L2.5 7.9875V7.0125L3.25 6.7625C3.42247 6.70656 3.5807 6.61377 3.71372 6.49056C3.84674 6.36736 3.95136 6.21669 4.02034 6.04901C4.08931 5.88134 4.12098 5.70066 4.11316 5.51952C4.10533 5.33838 4.05819 5.1611 3.975 5L3.61875 4.30625L4.30625 3.61875L5 3.975C5.1611 4.05819 5.33838 4.10533 5.51952 4.11316C5.70066 4.12098 5.88134 4.08931 6.04901 4.02034C6.21669 3.95136 6.36736 3.84674 6.49056 3.71372C6.61377 3.5807 6.70656 3.42247 6.7625 3.25L7.0125 2.5H7.9875L8.2375 3.25C8.29344 3.42247 8.38624 3.5807 8.50944 3.71372C8.63264 3.84674 8.78331 3.95136 8.95099 4.02034C9.11867 4.08931 9.29935 4.12098 9.48049 4.11316C9.66163 4.10533 9.8389 4.05819 10 3.975L10.7125 3.61875L11.4 4.30625L11.025 5C10.9451 5.16028 10.9007 5.33584 10.8946 5.51481C10.8885 5.69377 10.9209 5.87196 10.9896 6.0373C11.0584 6.20265 11.1618 6.35129 11.293 6.47318C11.4242 6.59506 11.5801 6.68733 11.75 6.74375L12.5 6.99375V7.9875ZM7.5 5C7.00555 5 6.5222 5.14662 6.11108 5.42133C5.69995 5.69603 5.37952 6.08648 5.1903 6.54329C5.00108 7.00011 4.95158 7.50278 5.04804 7.98773C5.1445 8.47268 5.3826 8.91814 5.73223 9.26777C6.08187 9.6174 6.52732 9.8555 7.01228 9.95197C7.49723 10.0484 7.9999 9.99892 8.45671 9.8097C8.91353 9.62048 9.30397 9.30005 9.57868 8.88893C9.85338 8.4778 10 7.99445 10 7.5C10 6.83696 9.73661 6.20108 9.26777 5.73223C8.79893 5.26339 8.16304 5 7.5 5ZM7.5 8.75C7.25278 8.75 7.0111 8.67669 6.80554 8.53934C6.59998 8.40199 6.43976 8.20676 6.34515 7.97836C6.25054 7.74995 6.22579 7.49862 6.27402 7.25614C6.32225 7.01366 6.4413 6.79093 6.61612 6.61612C6.79093 6.4413 7.01366 6.32225 7.25614 6.27402C7.49862 6.22579 7.74995 6.25054 7.97836 6.34515C8.20676 6.43976 8.40199 6.59998 8.53934 6.80554C8.67669 7.0111 8.75 7.25278 8.75 7.5C8.75 7.83152 8.61831 8.14946 8.38388 8.38388C8.14946 8.61831 7.83152 8.75 7.5 8.75Z" fill="#50A5F1"/>
</svg>
