<svg width="13" height="13" viewBox="0 0 13 13" fill="none" xmlns="http://www.w3.org/2000/svg">
<rect opacity="0.3" width="5.94828" height="0.991379" rx="0.49569" transform="matrix(1 8.74228e-08 8.74228e-08 -1 2.53467 6.99561)" fill="white"/>
<path d="M3.54542 6.72293L4.3311 7.37767C4.56419 7.57191 4.58018 7.92435 4.36563 8.13889C4.17246 8.33207 3.86218 8.34119 3.658 8.15969L2.62449 7.24102C2.18089 6.84671 2.18089 6.15359 2.62449 5.75929L3.658 4.84061C3.86218 4.65911 4.17246 4.66823 4.36563 4.86141C4.58018 5.07595 4.56419 5.4284 4.3311 5.62263L3.54542 6.27738C3.40629 6.39331 3.40629 6.60699 3.54542 6.72293Z" fill="white"/>
<path opacity="0.5" d="M4.51709 9.6391L4.51709 9.47387C4.51709 9.20011 4.73902 8.97818 5.01278 8.97818C5.28654 8.97818 5.50847 9.20011 5.50847 9.47387C5.50847 9.74763 5.7304 9.96956 6.00416 9.96956L8.96968 9.96956C9.52196 9.96956 9.96968 9.52184 9.96968 8.96956L9.96968 4.0299C9.96968 3.47762 9.52196 3.0299 8.96968 3.0299L6.00416 3.0299C5.7304 3.0299 5.50847 3.25183 5.50847 3.52559C5.50847 3.79935 5.28654 4.02128 5.01278 4.02128C4.73902 4.02128 4.51709 3.79935 4.51709 3.52559L4.51709 3.36036C4.51709 2.63033 5.1089 2.03852 5.83893 2.03852L8.96106 2.03852C10.0656 2.03852 10.9611 2.93395 10.9611 4.03852L10.9611 8.96094C10.9611 10.0655 10.0656 10.9609 8.96106 10.9609L5.83893 10.9609C5.1089 10.9609 4.51709 10.3691 4.51709 9.6391Z" fill="white"/>
</svg>
