<svg width="20" height="20" viewBox="0 0 20 20" fill="none" xmlns="http://www.w3.org/2000/svg">
<circle cx="10" cy="10" r="10" fill="#50A5F1"/>
<path d="M12.45 10.525C12.45 10.525 12.3916 10.525 12.45 10.525C12.3333 10.4666 12.275 10.4083 12.1583 10.4083C13.675 9.24163 13.9666 7.02497 12.7416 5.5083C11.5166 3.99163 9.35829 3.69997 7.84163 4.92497C6.32496 6.14997 6.03329 8.3083 7.25829 9.82497C7.43329 10.0583 7.60829 10.2333 7.84163 10.4083C7.78329 10.4666 7.66663 10.4666 7.60829 10.525C7.60829 10.525 7.60829 10.525 7.54996 10.525C5.68329 11.4 4.39996 13.15 4.16663 15.1916C4.16663 15.4833 4.39996 15.775 4.74996 15.8333H15.25C15.5416 15.775 15.775 15.4833 15.775 15.1916C15.6 13.15 14.3166 11.4 12.45 10.525ZM7.66663 7.4333C7.78329 6.14997 8.94996 5.21663 10.175 5.3333C11.2833 5.44997 12.1583 6.32497 12.275 7.4333H7.66663ZM9.99996 12.45L8.89163 11.3416C9.64996 11.1666 10.4083 11.1666 11.1666 11.3416L9.99996 12.45Z" fill="white"/>
</svg>
