<svg width="11" height="14" viewBox="0 0 11 14" fill="none" xmlns="http://www.w3.org/2000/svg">
<path d="M5.50016 13.0938C4.67786 12.3644 3.91565 11.5646 3.22152 10.703C2.17985 9.40913 0.942872 7.48216 0.942872 5.64591C0.941948 3.7281 2.05241 1.99872 3.75607 1.26477C5.45973 0.530815 7.42078 0.936954 8.72412 2.29367C9.58119 3.18106 10.0613 4.38815 10.0575 5.64591C10.0575 7.48216 8.82048 9.40913 7.77881 10.703C7.08468 11.5646 6.32247 12.3644 5.50016 13.0938ZM5.50016 3.61466C4.80238 3.61466 4.1576 4.00181 3.80871 4.63028C3.45982 5.25875 3.45982 6.03306 3.80871 6.66153C4.1576 7.29 4.80238 7.67716 5.50016 7.67716C6.57885 7.67716 7.45329 6.76773 7.45329 5.64591C7.45329 4.52408 6.57885 3.61466 5.50016 3.61466Z" fill="#50A5F1"/>
</svg>
