<svg width="16" height="20" viewBox="0 0 16 20" fill="none" xmlns="http://www.w3.org/2000/svg">
<path d="M11.6379 0.357485V0.344152C11.6379 0.15416 11.7949 0 11.9883 0H12.0019H12.0011H15.2796C15.4782 0 15.6572 0.0816633 15.7845 0.211658C15.8528 0.275628 15.9071 0.352572 15.9441 0.437808C15.9812 0.523045 16.0002 0.614792 16 0.707471V3.9415C16 4.03278 15.9631 4.12031 15.8974 4.18485C15.8316 4.2494 15.7425 4.28566 15.6496 4.28566H15.6351H15.636H14.8953C14.8023 4.28566 14.7132 4.2494 14.6475 4.18485C14.5818 4.12031 14.5448 4.03278 14.5448 3.9415V3.92734V3.92817V2.43323L11.6566 5.27895C12.5856 6.39313 13.0918 7.78954 13.0888 9.22962V9.28795V9.28461L13.0897 9.36794C13.0919 10.9299 12.4916 12.4346 11.4097 13.5794L11.4131 13.5753C10.3593 14.7565 8.89007 15.5032 7.29959 15.666L7.27244 15.6685V17.1418H8.37717C8.57063 17.1418 8.7276 17.2959 8.7276 17.4859V17.5001V17.4993V18.2267C8.7276 18.318 8.69068 18.4056 8.62496 18.4701C8.55924 18.5346 8.47011 18.5709 8.37717 18.5709H8.36275H8.36359H7.27244V19.6558C7.27244 19.7471 7.23552 19.8347 7.1698 19.8992C7.10408 19.9637 7.01495 20 6.92201 20H6.90759H6.90843H6.1677C6.07476 20 5.98563 19.9637 5.91991 19.8992C5.8542 19.8347 5.81728 19.7471 5.81728 19.6558V19.6417V19.6425V18.5709H4.71254C4.61961 18.5709 4.53047 18.5346 4.46476 18.4701C4.39904 18.4056 4.36212 18.318 4.36212 18.2267V18.2126V18.2134V17.4859C4.36212 17.2959 4.51909 17.1418 4.71254 17.1418H4.72697H4.72612H5.81897V15.666C4.70187 15.5542 3.63495 15.1534 2.72708 14.5044L2.7449 14.5169C1.84461 13.8853 1.12138 13.0406 0.642341 12.0612L0.625371 12.0228C0.210683 11.1759 -0.00312028 10.2477 3.44094e-05 9.30795C3.44094e-05 9.11879 0.0085193 8.93046 0.0254891 8.74547L0.0237921 8.76964C0.12998 7.28302 0.775426 5.88308 1.84295 4.82397L1.8421 4.8248C2.45061 4.20129 3.18146 3.70535 3.99054 3.36692C4.79961 3.02849 5.67012 2.85459 6.54952 2.85571C7.20032 2.85571 7.82905 2.94904 8.42214 3.1232L8.37632 3.11154C9.19982 3.35327 9.96795 3.74913 10.6384 4.27732L10.6257 4.26732L13.5233 1.43244H11.9875C11.8946 1.43244 11.8054 1.39618 11.7397 1.33164C11.674 1.2671 11.6371 1.17956 11.6371 1.08829V1.07412V1.07496L11.6379 0.357485ZM6.54698 14.2852L6.6208 14.2861C7.27818 14.2869 7.92899 14.1575 8.53429 13.9056C9.1396 13.6538 9.68699 13.2846 10.1437 12.8203L10.1446 12.8186C10.6177 12.3701 10.9939 11.8324 11.2506 11.2378C11.5074 10.6432 11.6394 10.0038 11.6388 9.35794L11.6379 9.28128V9.28545L11.6388 9.21295C11.6396 8.56733 11.5078 7.92818 11.2514 7.33371C10.9949 6.73924 10.6191 6.20165 10.1463 5.75309L10.1446 5.75226C9.22566 4.8448 7.95293 4.28399 6.54698 4.28399C5.14103 4.28399 3.8683 4.84563 2.94938 5.75226C2.46681 6.20982 2.08522 6.75996 1.82832 7.36849C1.57141 7.97702 1.4447 8.63094 1.45604 9.28961V9.28545L1.45519 9.35794C1.45519 10.7154 2.02708 11.942 2.94769 12.8178L2.94938 12.8186C3.40614 13.2833 3.95361 13.6528 4.55906 13.9049C5.16452 14.157 5.81552 14.2867 6.47316 14.2861L6.55122 14.2852H6.54698Z" fill="#50A5F1"/>
</svg>
