<svg width="14" height="14" viewBox="0 0 14 14" fill="none" xmlns="http://www.w3.org/2000/svg">
<path d="M7 0C3.15 0 0 3.15 0 7C0 10.85 3.15 14 7 14C10.85 14 14 10.85 14 7C14 3.15 10.85 0 7 0ZM9.59 8.61C9.87 8.89 9.87 9.31 9.59 9.59C9.31 9.87 8.89 9.87 8.61 9.59L7 7.98L5.39 9.59C5.11 9.87 4.69 9.87 4.41 9.59C4.13 9.31 4.13 8.89 4.41 8.61L6.02 7L4.41 5.39C4.13 5.11 4.13 4.69 4.41 4.41C4.69 4.13 5.11 4.13 5.39 4.41L7 6.02L8.61 4.41C8.89 4.13 9.31 4.13 9.59 4.41C9.87 4.69 9.87 5.11 9.59 5.39L7.98 7L9.59 8.61Z" fill="white"/>
</svg>
