<svg width="10" height="14" viewBox="0 0 10 14" fill="none" xmlns="http://www.w3.org/2000/svg">
<path d="M8.57143 13.4759L8.57286 9.27484C7.55994 10.0722 6.29914 10.5059 5 10.5036C3.70144 10.5058 2.44121 10.0724 1.42857 9.27554L1.43071 13.4766C1.43095 13.5726 1.45803 13.6667 1.50903 13.7487C1.56002 13.8307 1.63297 13.8974 1.71995 13.9416C1.80692 13.9858 1.90458 14.0057 2.00232 13.9993C2.10005 13.9929 2.19412 13.9603 2.27429 13.9051L5.00071 12.0237L7.72786 13.9051C7.80808 13.9605 7.90228 13.9933 8.00019 13.9998C8.0981 14.0063 8.19595 13.9863 8.28306 13.942C8.37018 13.8977 8.44321 13.8308 8.49419 13.7486C8.54517 13.6664 8.57213 13.5721 8.57214 13.4759H8.57143ZM10 4.90222C10 4.25858 9.87067 3.62124 9.6194 3.0266C9.36812 2.43195 8.99983 1.89164 8.53553 1.43652C8.07124 0.981396 7.52005 0.620372 6.91342 0.374062C6.30679 0.127751 5.65661 0.000976563 5 0.000976562C4.34339 0.000976563 3.69321 0.127751 3.08658 0.374062C2.47995 0.620372 1.92876 0.981396 1.46447 1.43652C1.00017 1.89164 0.631876 2.43195 0.380602 3.0266C0.129329 3.62124 -9.78424e-09 4.25858 0 4.90222C1.97602e-08 6.20211 0.526784 7.44877 1.46447 8.36793C2.40215 9.28709 3.67392 9.80347 5 9.80347C6.32608 9.80347 7.59785 9.28709 8.53553 8.36793C9.47322 7.44877 10 6.20211 10 4.90222ZM5.16357 2.55103L5.815 3.84845L7.275 4.05501C7.425 4.07601 7.48429 4.25666 7.37643 4.35959L6.32 5.36784L6.57 6.7934C6.57578 6.82625 6.57206 6.86003 6.55926 6.89091C6.54647 6.92179 6.52511 6.94854 6.49761 6.96814C6.47011 6.98774 6.43756 6.99941 6.40365 7.00181C6.36973 7.00422 6.33581 6.99727 6.30571 6.98175L5 6.30818L3.695 6.98175C3.66491 6.99727 3.63098 7.00422 3.59707 7.00181C3.56315 6.99941 3.5306 6.98774 3.5031 6.96814C3.4756 6.94854 3.45424 6.92179 3.44145 6.89091C3.42866 6.86003 3.42494 6.82625 3.43071 6.7934L3.68071 5.36854L2.62357 4.36029C2.599 4.33703 2.5816 4.30747 2.57335 4.27498C2.5651 4.2425 2.56633 4.20839 2.57691 4.17656C2.58749 4.14473 2.60698 4.11645 2.63316 4.09496C2.65935 4.07346 2.69117 4.05962 2.725 4.05501L4.185 3.84845L4.83643 2.55103C4.85142 2.52103 4.8747 2.49575 4.90361 2.47807C4.93253 2.4604 4.96592 2.45102 5 2.45102C5.03408 2.45102 5.06747 2.4604 5.09639 2.47807C5.1253 2.49575 5.14858 2.52103 5.16357 2.55103Z" fill="#FF8515"/>
</svg>
