<svg width="20" height="16" viewBox="0 0 20 16" fill="none" xmlns="http://www.w3.org/2000/svg">
<path d="M1.36417 0C0.61 0 0 0.565087 0 1.26295V14.737C0 15.4349 0.61 16 1.36417 16H18.6358C19.39 16 20 15.4349 20 14.737V1.26295C20 0.565087 19.39 0 18.6358 0H1.36417ZM1.81833 1.68368H18.1817V14.3163H15.91V13.4749H11.8183V14.3163H1.81833V1.68368ZM10 5.05259C9.63831 5.05259 9.29144 5.18569 9.03568 5.42262C8.77993 5.65954 8.63625 5.98087 8.63625 6.31593C8.63625 6.65099 8.77993 6.97233 9.03568 7.20925C9.29144 7.44617 9.63831 7.57927 10 7.57927C10.3617 7.57927 10.7086 7.44617 10.9643 7.20925C11.2201 6.97233 11.3638 6.65099 11.3638 6.31593C11.3638 5.98087 11.2201 5.65954 10.9643 5.42262C10.7086 5.18569 10.3617 5.05259 10 5.05259ZM6.36417 6.52707C5.79917 6.52707 5.34 6.95166 5.34 7.47351C5.3476 7.72015 5.4587 7.95432 5.64971 8.12629C5.84071 8.29825 6.09657 8.39445 6.36292 8.39445C6.62926 8.39445 6.88512 8.29825 7.07612 8.12629C7.26713 7.95432 7.37823 7.72015 7.38583 7.47351C7.38583 6.95088 6.92833 6.52707 6.36417 6.52707ZM13.6358 6.52707C13.4992 6.52345 13.3631 6.54527 13.2357 6.59122C13.1083 6.63718 12.9921 6.70634 12.894 6.79462C12.796 6.8829 12.718 6.9885 12.6648 7.10518C12.6116 7.22185 12.5841 7.34723 12.5841 7.4739C12.5841 7.60056 12.6116 7.72594 12.6648 7.84262C12.718 7.95929 12.796 8.06489 12.894 8.15317C12.9921 8.24145 13.1083 8.31061 13.2357 8.35657C13.3631 8.40253 13.4992 8.42434 13.6358 8.42073C13.9019 8.41369 14.1544 8.31085 14.3399 8.13405C14.5254 7.95725 14.6291 7.72043 14.6291 7.4739C14.6291 7.22736 14.5254 6.99054 14.3399 6.81374C14.1544 6.63695 13.9019 6.5341 13.6358 6.52707ZM10 8.42073C9.0175 8.42073 7.98917 8.73029 7.37667 9.19734C7.04886 9.1025 6.70759 9.05358 6.36417 9.05221C5.26917 9.05221 4.09 9.58873 4.09 10.2557V10.9474H15.91V10.2557C15.91 9.58873 14.7308 9.05221 13.6358 9.05221C13.2942 9.05221 12.9442 9.1047 12.6233 9.19734C12.0108 8.73029 10.9825 8.42073 10 8.42073Z" fill="#50A5F1"/>
</svg>
