<svg width="10" height="12" viewBox="0 0 10 12" fill="none" xmlns="http://www.w3.org/2000/svg">
<path d="M7.04898 5.94758C7.04898 5.77231 6.97935 5.60422 6.85542 5.48029C6.73149 5.35636 6.5634 5.28673 6.38814 5.28673H3.30421C3.12894 5.28673 2.96085 5.35636 2.83692 5.48029C2.71299 5.60422 2.64337 5.77231 2.64337 5.94758V6.16786C2.64337 7.0362 3.46281 7.9301 4.84617 7.9301C6.22953 7.9301 7.04898 7.0362 7.04898 6.16786V5.94758ZM6.05772 3.63463C6.05772 3.31331 5.93007 3.00515 5.70286 2.77794C5.47565 2.55073 5.16749 2.42309 4.84617 2.42309C4.52485 2.42309 4.21669 2.55073 3.98948 2.77794C3.76227 3.00515 3.63463 3.31331 3.63463 3.63463C3.63463 3.95595 3.76227 4.26411 3.98948 4.49132C4.21669 4.71853 4.52485 4.84617 4.84617 4.84617C5.16749 4.84617 5.47565 4.71853 5.70286 4.49132C5.93007 4.26411 6.05772 3.95595 6.05772 3.63463ZM8.81122 10.1329H0.91857C0.964142 10.2618 1.04857 10.3734 1.16022 10.4523C1.27187 10.5312 1.40525 10.5735 1.54196 10.5735H9.25178C9.36863 10.5735 9.48069 10.6199 9.56331 10.7025C9.64593 10.7851 9.69234 10.8972 9.69234 11.014C9.69234 11.1309 9.64593 11.2429 9.56331 11.3256C9.48069 11.4082 9.36863 11.4546 9.25178 11.4546H1.54196C1.13301 11.4546 0.740805 11.2921 0.451631 11.003C0.162457 10.7138 0 10.3216 0 9.91263V1.54196C0 1.13301 0.162457 0.740805 0.451631 0.451631C0.740805 0.162457 1.13301 0 1.54196 0H8.15038C8.55933 0 8.95154 0.162457 9.24071 0.451631C9.52989 0.740805 9.69234 1.13301 9.69234 1.54196V9.25178C9.69234 9.48547 9.59951 9.70959 9.43427 9.87483C9.26903 10.0401 9.04491 10.1329 8.81122 10.1329ZM0.881122 1.54196V9.25178H8.81122V1.54196C8.81122 1.3667 8.7416 1.19861 8.61767 1.07468C8.49373 0.950746 8.32565 0.881122 8.15038 0.881122H1.54196C1.3667 0.881122 1.19861 0.950746 1.07468 1.07468C0.950746 1.19861 0.881122 1.3667 0.881122 1.54196Z" fill="white"/>
</svg>
