<svg width="21" height="20" viewBox="0 0 21 20" fill="none" xmlns="http://www.w3.org/2000/svg">
<path d="M8.74503 1C7.40193 0.999899 6.08215 1.33092 4.91664 1.96023C3.75113 2.58953 2.78041 3.49523 2.1008 4.58747C1.42119 5.67971 1.05632 6.9205 1.04239 8.18675C1.02847 9.45299 1.36596 10.7007 2.02139 11.8059L1.07814 14.132C0.99973 14.3254 0.97984 14.5355 1.02069 14.7389C1.06154 14.9423 1.16153 15.131 1.30949 15.2839C1.45746 15.4369 1.64758 15.5481 1.85866 15.6051C2.06973 15.6621 2.29346 15.6627 2.50487 15.6068L5.45194 14.8281C6.49586 15.2931 7.63731 15.531 8.79187 15.524C9.94642 15.517 11.0845 15.2654 12.122 14.7878C13.1596 14.3101 14.0699 13.6187 14.7858 12.7646C15.5016 11.9105 16.0046 10.9157 16.2577 9.85354C16.5107 8.79144 16.5072 7.68929 16.2475 6.62861C15.9878 5.56794 15.4786 4.57588 14.7573 3.72581C14.0361 2.87574 13.1215 2.18942 12.081 1.7176C11.0405 1.24577 9.90079 1.00053 8.74621 1H8.74503ZM2.22758 8.26206C2.22811 6.92297 2.69258 5.6207 3.55032 4.55338C4.40806 3.48606 5.61212 2.71213 6.97929 2.34933C8.34647 1.98654 9.80192 2.05475 11.1242 2.54358C12.4465 3.03241 13.5632 3.9151 14.3045 5.05736C15.0457 6.19961 15.3709 7.53889 15.2306 8.87143C15.0903 10.204 14.4921 11.4568 13.5271 12.4394C12.5621 13.4219 11.2831 14.0803 9.88468 14.3145C8.48627 14.5486 7.04501 14.3457 5.78018 13.7365L5.574 13.636L2.18492 14.5309L3.33318 11.6976L3.1815 11.463C2.556 10.4996 2.22581 9.39163 2.22758 8.26206ZM12.2562 18.8758C11.1474 18.877 10.0515 18.6519 9.0437 18.2161C8.0359 17.7802 7.14007 17.1439 6.41771 16.3509C7.09826 16.5247 7.79844 16.6211 8.50329 16.638C9.60063 17.3688 10.9115 17.7603 12.255 17.7586C13.3238 17.7586 14.3311 17.5162 15.2198 17.0883L15.426 16.9877L18.8151 17.8826L17.6668 15.0493L17.8185 14.8147C18.4228 13.8829 18.7724 12.788 18.7724 11.6138C18.7743 10.3731 18.3758 9.16132 17.6301 8.13917C17.6203 7.47452 17.5269 6.81332 17.3516 6.16947C18.1715 6.85014 18.828 7.68782 19.2773 8.62663C19.7267 9.56545 19.9585 10.5838 19.9574 11.6138C19.9574 12.8997 19.6019 14.1086 18.9798 15.1577L19.9219 17.4838C20.0003 17.6771 20.0202 17.8872 19.9793 18.0906C19.9385 18.294 19.8385 18.4827 19.6905 18.6357C19.5425 18.7886 19.3524 18.8998 19.1413 18.9568C18.9303 19.0138 18.7065 19.0144 18.4951 18.9585L15.5481 18.1798C14.5491 18.6267 13.4317 18.8758 12.2538 18.8758H12.2562Z" fill="#50A5F1" stroke="#50A5F1"/>
</svg>
