<svg width="16" height="14" viewBox="0 0 16 14" fill="none" xmlns="http://www.w3.org/2000/svg">
<path d="M1.3913 0C0.61913 0 0 0.61913 0 1.3913V9.73913C0 10.1081 0.146583 10.462 0.407504 10.7229C0.668424 10.9839 1.02231 11.1304 1.3913 11.1304H9.10609C9.06435 10.9009 9.04348 10.6713 9.04348 10.4348C9.04348 9.32779 9.48323 8.26614 10.266 7.48338C11.0487 6.70062 12.1104 6.26087 13.2174 6.26087C13.4539 6.26087 13.6835 6.28174 13.913 6.32348V1.3913C13.913 1.02231 13.7665 0.668424 13.5055 0.407504C13.2446 0.146583 12.8907 0 12.5217 0H1.3913ZM1.3913 1.3913L6.95652 4.86957L12.5217 1.3913V2.78261L6.95652 6.26087L1.3913 2.78261V1.3913Z" fill="white"/>
<circle cx="13.2174" cy="10.435" r="2.78261" fill="white"/>
<path d="M11.9652 10.0176C11.9651 9.75739 12.046 9.50365 12.1967 9.29158C12.3475 9.07952 12.5605 8.91968 12.8062 8.83425C12.7967 8.77463 12.8003 8.71365 12.8166 8.65553C12.8329 8.59741 12.8617 8.54352 12.9009 8.49758C12.94 8.45165 12.9887 8.41476 13.0436 8.38947C13.0984 8.36417 13.158 8.35107 13.2184 8.35107C13.2788 8.35107 13.3385 8.36417 13.3933 8.38947C13.4481 8.41476 13.4968 8.45165 13.536 8.49758C13.5751 8.54352 13.6039 8.59741 13.6202 8.65553C13.6366 8.71365 13.6401 8.77463 13.6306 8.83425C13.8759 8.92003 14.0885 9.08002 14.2389 9.29206C14.3892 9.50409 14.4698 9.75764 14.4695 10.0176V11.2697L15.0956 11.6871V11.8958H11.3391V11.6871L11.9652 11.2697V10.0176ZM13.6348 12.1045C13.6348 12.2152 13.5908 12.3214 13.5125 12.3997C13.4342 12.4779 13.3281 12.5219 13.2174 12.5219C13.1067 12.5219 13.0005 12.4779 12.9222 12.3997C12.844 12.3214 12.8 12.2152 12.8 12.1045H13.6348Z" fill="white"/>
</svg>
