<svg width="17" height="16" viewBox="0 0 17 16" fill="none" xmlns="http://www.w3.org/2000/svg">
<path d="M16.8456 5.76872H11.9051C11.8202 5.76872 11.7507 5.84009 11.7507 5.92732V6.87891C11.7507 6.96614 11.8202 7.03751 11.9051 7.03751H16.8456C16.9305 7.03751 17 6.96614 17 6.87891V5.92732C17 5.84009 16.9305 5.76872 16.8456 5.76872ZM14.2595 8.46491H11.9051C11.8202 8.46491 11.7507 8.53628 11.7507 8.62351V9.5751C11.7507 9.66233 11.8202 9.7337 11.9051 9.7337H14.2595C14.3445 9.7337 14.4139 9.66233 14.4139 9.5751V8.62351C14.4139 8.53628 14.3445 8.46491 14.2595 8.46491ZM7.81949 3.99438H6.98385C6.8642 3.99438 6.7677 4.09351 6.7677 4.21642V9.13301C6.7677 9.20438 6.80051 9.2698 6.85648 9.31143L9.73009 11.4644C9.82658 11.5358 9.96167 11.516 10.0311 11.4168L10.5271 10.721V10.719C10.5966 10.6199 10.5754 10.4811 10.4789 10.4097L8.03371 8.59377V4.21642C8.03564 4.09351 7.93722 3.99438 7.81949 3.99438Z" fill="#50A5F1"/>
<path d="M14.1423 10.9598H13.0268C12.9187 10.9598 12.8164 11.0173 12.7585 11.1125C12.5134 11.511 12.2278 11.8797 11.8997 12.2167C11.3343 12.7976 10.6762 13.2536 9.94475 13.5708C9.1863 13.8999 8.38154 14.0664 7.55168 14.0664C6.7199 14.0664 5.91514 13.8999 5.15862 13.5708C4.42719 13.2536 3.76909 12.7976 3.20364 12.2167C2.63818 11.6359 2.1943 10.9598 1.88552 10.2085C1.56516 9.43132 1.40305 8.60462 1.40305 7.75017C1.40305 6.89572 1.56516 6.071 1.88552 5.29188C2.1943 4.54051 2.63818 3.86448 3.20364 3.28361C3.76909 2.70274 4.42719 2.24677 5.15862 1.92957C5.91514 1.60048 6.72183 1.43395 7.55168 1.43395C8.38347 1.43395 9.18823 1.60048 9.94475 1.92957C10.6762 2.24677 11.3343 2.70274 11.8997 3.28361C12.2278 3.62064 12.5134 3.98938 12.7585 4.38786C12.8164 4.48302 12.9187 4.54051 13.0268 4.54051H14.1423C14.2754 4.54051 14.3603 4.39777 14.3005 4.27684C13.0422 1.70555 10.4909 0.0343071 7.64239 0.000604712C3.47189 -0.0529226 0.00773276 3.45411 1.31847e-05 7.73431C-0.00770639 12.0224 3.3754 15.5017 7.54976 15.5017C10.4349 15.5017 13.0287 13.8245 14.3005 11.2235C14.3603 11.1026 14.2735 10.9598 14.1423 10.9598Z" fill="#50A5F1"/>
</svg>
