<svg width="13" height="17" viewBox="0 0 13 17" fill="none" xmlns="http://www.w3.org/2000/svg">
<path d="M11.25 0.583313H3.33332C2.49347 0.583313 1.68802 0.916943 1.09415 1.51081C0.500286 2.10467 0.166656 2.91013 0.166656 3.74998V13.25C0.166656 14.0898 0.500286 14.8953 1.09415 15.4892C1.68802 16.083 2.49347 16.4166 3.33332 16.4166H11.25C11.6699 16.4166 12.0726 16.2498 12.3696 15.9529C12.6665 15.656 12.8333 15.2532 12.8333 14.8333V2.16665C12.8333 1.74672 12.6665 1.34399 12.3696 1.04706C12.0726 0.750128 11.6699 0.583313 11.25 0.583313ZM1.74999 3.74998C1.74999 3.33005 1.9168 2.92733 2.21374 2.63039C2.51067 2.33346 2.9134 2.16665 3.33332 2.16665H11.25V10.0833H3.33332C2.77523 10.0857 2.22815 10.2388 1.74999 10.5266V3.74998ZM3.33332 14.8333C2.9134 14.8333 2.51067 14.6665 2.21374 14.3696C1.9168 14.0726 1.74999 13.6699 1.74999 13.25C1.74999 12.8301 1.9168 12.4273 2.21374 12.1304C2.51067 11.8335 2.9134 11.6666 3.33332 11.6666H11.25V14.8333H3.33332ZM4.91666 5.33331H8.08332C8.29329 5.33331 8.49465 5.24991 8.64312 5.10144C8.79158 4.95297 8.87499 4.75161 8.87499 4.54165C8.87499 4.33168 8.79158 4.13032 8.64312 3.98185C8.49465 3.83339 8.29329 3.74998 8.08332 3.74998H4.91666C4.70669 3.74998 4.50533 3.83339 4.35686 3.98185C4.2084 4.13032 4.12499 4.33168 4.12499 4.54165C4.12499 4.75161 4.2084 4.95297 4.35686 5.10144C4.50533 5.24991 4.70669 5.33331 4.91666 5.33331Z" fill="#50A5F1"/>
</svg>
