<svg width="16" height="14" viewBox="0 0 16 14" fill="none" xmlns="http://www.w3.org/2000/svg">
<path d="M1.3913 0C0.61913 0 0 0.61913 0 1.3913V9.73913C0 10.1081 0.146583 10.462 0.407504 10.7229C0.668424 10.9839 1.02231 11.1304 1.3913 11.1304H9.10609C9.06435 10.9009 9.04348 10.6713 9.04348 10.4348C9.04348 9.32779 9.48323 8.26614 10.266 7.48338C11.0487 6.70062 12.1104 6.26087 13.2174 6.26087C13.4539 6.26087 13.6835 6.28174 13.913 6.32348V1.3913C13.913 1.02231 13.7665 0.668424 13.5055 0.407504C13.2446 0.146583 12.8907 0 12.5217 0H1.3913ZM1.3913 1.3913L6.95652 4.86957L12.5217 1.3913V2.78261L6.95652 6.26087L1.3913 2.78261V1.3913Z" fill="#50A5F1"/>
<circle cx="13.2174" cy="10.4347" r="2.78261" fill="#50A5F1"/>
<path d="M11.9652 10.0172C11.9651 9.75702 12.046 9.50328 12.1967 9.29122C12.3475 9.07916 12.5605 8.91931 12.8062 8.83389C12.7967 8.77427 12.8003 8.71329 12.8166 8.65516C12.8329 8.59704 12.8617 8.54315 12.9009 8.49722C12.94 8.45128 12.9887 8.41439 13.0436 8.3891C13.0984 8.36381 13.158 8.35071 13.2184 8.35071C13.2788 8.35071 13.3385 8.36381 13.3933 8.3891C13.4481 8.41439 13.4968 8.45128 13.536 8.49722C13.5751 8.54315 13.6039 8.59704 13.6202 8.65516C13.6366 8.71329 13.6401 8.77427 13.6306 8.83389C13.8759 8.91966 14.0885 9.07966 14.2389 9.29169C14.3892 9.50372 14.4698 9.75728 14.4695 10.0172V11.2694L15.0956 11.6868V11.8955H11.3391V11.6868L11.9652 11.2694V10.0172ZM13.6348 12.1041C13.6348 12.2148 13.5908 12.321 13.5125 12.3993C13.4342 12.4776 13.3281 12.5215 13.2174 12.5215C13.1067 12.5215 13.0005 12.4776 12.9222 12.3993C12.844 12.321 12.8 12.2148 12.8 12.1041H13.6348Z" fill="white"/>
</svg>
