<svg width="26" height="18" viewBox="0 0 26 18" fill="none" xmlns="http://www.w3.org/2000/svg">
<rect opacity="0.7" y="0.333008" width="26" height="17.3333" rx="4" fill="#FFE1B2"/>
<path d="M16.5714 15.4749L16.5729 11.2739C15.5599 12.0713 14.2991 12.5049 13 12.5027C11.7014 12.5048 10.4412 12.0714 9.42857 11.2746L9.43071 15.4756C9.43095 15.5716 9.45803 15.6658 9.50903 15.7478C9.56002 15.8297 9.63297 15.8964 9.71995 15.9406C9.80692 15.9848 9.90458 16.0048 10.0023 15.9983C10.1001 15.9919 10.1941 15.9593 10.2743 15.9041L13.0007 14.0228L15.7279 15.9041C15.8081 15.9595 15.9023 15.9923 16.0002 15.9988C16.0981 16.0053 16.1959 15.9853 16.2831 15.941C16.3702 15.8968 16.4432 15.8299 16.4942 15.7477C16.5452 15.6655 16.5721 15.5711 16.5721 15.4749H16.5714ZM18 6.90125C18 6.25761 17.8707 5.62027 17.6194 5.02562C17.3681 4.43097 16.9998 3.89066 16.5355 3.43554C16.0712 2.98042 15.52 2.6194 14.9134 2.37309C14.3068 2.12677 13.6566 2 13 2C12.3434 2 11.6932 2.12677 11.0866 2.37309C10.48 2.6194 9.92876 2.98042 9.46447 3.43554C9.00017 3.89066 8.63188 4.43097 8.3806 5.02562C8.12933 5.62027 8 6.25761 8 6.90125C8 8.20114 8.52678 9.44779 9.46447 10.367C10.4021 11.2861 11.6739 11.8025 13 11.8025C14.3261 11.8025 15.5979 11.2861 16.5355 10.367C17.4732 9.44779 18 8.20114 18 6.90125ZM13.1636 4.55005L13.815 5.84748L15.275 6.05403C15.425 6.07504 15.4843 6.25568 15.3764 6.35861L14.32 7.36687L14.57 8.79243C14.5758 8.82527 14.5721 8.85905 14.5593 8.88993C14.5465 8.92081 14.5251 8.94757 14.4976 8.96717C14.4701 8.98677 14.4376 8.99843 14.4036 9.00084C14.3697 9.00324 14.3358 8.99629 14.3057 8.98078L13 8.3072L11.695 8.98078C11.6649 8.99629 11.631 9.00324 11.5971 9.00084C11.5632 8.99843 11.5306 8.98677 11.5031 8.96717C11.4756 8.94757 11.4542 8.92081 11.4415 8.88993C11.4287 8.85905 11.4249 8.82527 11.4307 8.79243L11.6807 7.36757L10.6236 6.35931C10.599 6.33605 10.5816 6.30649 10.5734 6.27401C10.5651 6.24152 10.5663 6.20741 10.5769 6.17558C10.5875 6.14375 10.607 6.11547 10.6332 6.09398C10.6593 6.07249 10.6912 6.05864 10.725 6.05403L12.185 5.84748L12.8364 4.55005C12.8514 4.52005 12.8747 4.49477 12.9036 4.4771C12.9325 4.45942 12.9659 4.45005 13 4.45005C13.0341 4.45005 13.0675 4.45942 13.0964 4.4771C13.1253 4.49477 13.1486 4.52005 13.1636 4.55005Z" fill="#FF8515"/>
</svg>
