<svg width="10" height="12" viewBox="0 0 10 12" fill="none" xmlns="http://www.w3.org/2000/svg">
<path d="M9.59105 1.92286L8.41507 0.718905C8.32395 0.625637 8.20037 0.573242 8.07151 0.573242C7.94266 0.573242 7.81908 0.625637 7.72795 0.718905L5.50233 2.99747C5.41119 3.09075 5.35998 3.21727 5.35995 3.34921V4.55317C5.35995 4.68511 5.41115 4.81166 5.50228 4.90496C5.59341 4.99826 5.71701 5.05067 5.84589 5.05067H7.02188C7.15074 5.05064 7.27433 4.99821 7.36544 4.9049L9.59105 2.62633C9.68215 2.53304 9.73333 2.40652 9.73333 2.2746C9.73333 2.14268 9.68215 2.01616 9.59105 1.92286ZM6.82118 4.05566H6.33184V3.55517L8.07151 1.77411L8.56037 2.2746L6.82118 4.05566ZM8.26103 5.52927C8.13215 5.52927 8.00855 5.58169 7.91742 5.67499C7.82628 5.76829 7.77509 5.89483 7.77509 6.02677V7.2168L7.05589 6.4805C6.80259 6.22151 6.45924 6.07603 6.10126 6.07603C5.74327 6.07603 5.39992 6.22151 5.14662 6.4805L4.80743 6.82726L3.59938 5.59046C3.34637 5.33187 3.00347 5.18662 2.64596 5.18662C2.28845 5.18662 1.94555 5.33187 1.69254 5.59046L0.971886 6.32826V3.53925C0.972014 3.40735 1.02325 3.28088 1.11436 3.18761C1.20546 3.09434 1.32899 3.04188 1.45783 3.04175H4.37349C4.50237 3.04175 4.62597 2.98934 4.7171 2.89603C4.80823 2.80273 4.85943 2.67619 4.85943 2.54425C4.85943 2.4123 4.80823 2.28576 4.7171 2.19246C4.62597 2.09916 4.50237 2.04674 4.37349 2.04674H1.45783C1.07131 2.04714 0.700727 2.20451 0.427414 2.48433C0.154102 2.76414 0.000385943 3.14354 0 3.53925V9.5093C0.000385943 9.90502 0.154102 10.2844 0.427414 10.5642C0.700727 10.844 1.07131 11.0014 1.45783 11.0018H7.28914C7.67567 11.0014 8.04625 10.844 8.31956 10.5642C8.59287 10.2844 8.74659 9.90502 8.74697 9.5093V6.02677C8.74697 5.89483 8.69578 5.76829 8.60464 5.67499C8.51351 5.58169 8.38991 5.52927 8.26103 5.52927ZM1.45783 10.0068C1.32899 10.0067 1.20546 9.95422 1.11436 9.86094C1.02325 9.76767 0.972014 9.64121 0.971886 9.5093V7.7352L2.37966 6.29393C2.45176 6.22453 2.547 6.18589 2.64596 6.18589C2.74492 6.18589 2.84016 6.22453 2.91226 6.29393L4.45172 7.86953C4.4561 7.8745 4.45755 7.88047 4.46144 7.88445L6.53496 10.0068H1.45783ZM7.77509 9.5093C7.77265 9.60522 7.74237 9.69823 7.6881 9.77646L5.49456 7.53073L5.83374 7.18347C5.90477 7.11117 6.00085 7.07058 6.10101 7.07058C6.20117 7.07058 6.29726 7.11117 6.36828 7.18347L7.77509 8.62374V9.5093Z" fill="white"/>
</svg>
