<svg width="11" height="11" viewBox="0 0 11 11" fill="none" xmlns="http://www.w3.org/2000/svg">
<path d="M10.0555 10.7082C4.50106 10.716 0.285568 6.45003 0.29151 0.94418C0.29151 0.584619 0.582992 0.291504 0.942552 0.291504H2.66088C2.98352 0.291504 3.2576 0.528567 3.30498 0.847708C3.41853 1.6126 3.64123 2.35724 3.9663 3.05889L4.0332 3.20329C4.12622 3.40407 4.06317 3.64264 3.88309 3.77124C3.35094 4.15126 3.14757 4.91621 3.56214 5.51309C4.08237 6.2621 4.73815 6.91774 5.48699 7.43774C6.08384 7.85219 6.84867 7.64885 7.22868 7.11679C7.35737 6.93662 7.59607 6.87353 7.79697 6.9666L7.94071 7.03318C8.64241 7.35823 9.38711 7.58094 10.1521 7.69447C10.4712 7.74183 10.7082 8.0159 10.7082 8.33855V10.0571C10.7082 10.4167 10.416 10.7082 10.0564 10.7082L10.0555 10.7082Z" fill="#50A5F1"/>
</svg>
