<svg width="24" height="25" viewBox="0 0 24 25" fill="none" xmlns="http://www.w3.org/2000/svg">
<path d="M12 14.7031L11.2929 15.4102L12 16.1173L12.7071 15.4102L12 14.7031ZM13 5.70313C13 5.15084 12.5523 4.70313 12 4.70313C11.4477 4.70313 11 5.15084 11 5.70313L13 5.70313ZM6.29289 10.4102L11.2929 15.4102L12.7071 13.996L7.70711 8.99602L6.29289 10.4102ZM12.7071 15.4102L17.7071 10.4102L16.2929 8.99602L11.2929 13.996L12.7071 15.4102ZM13 14.7031L13 5.70313L11 5.70313L11 14.7031L13 14.7031Z" fill="white"/>
<path d="M5 16.7031L5 17.7031C5 18.8077 5.89543 19.7031 7 19.7031L17 19.7031C18.1046 19.7031 19 18.8077 19 17.7031V16.7031" stroke="white" stroke-width="2"/>
</svg>
