<svg width="22" height="22" viewBox="0 0 22 22" fill="none" xmlns="http://www.w3.org/2000/svg">
<path d="M11 0C4.92486 0 0 4.92486 0 11C0 17.0751 4.92486 22 11 22C17.0751 22 22 17.0751 22 11C22 4.92486 17.0751 0 11 0ZM8.37622 4.0498H15.6084V7.20397L16.0609 6.75281L18.3047 8.99523L13.0061 14.2952L9.68409 15.3748L10.7623 12.0514L14.3932 8.42054V5.25829H9.26246V7.43494H6.97437V16.7417H14.3932V14.7356L15.6084 13.5191V17.9502H5.7578V6.57824L8.37622 4.0498ZM11.3236 12.6113L10.7838 14.2737L12.4448 13.7339L11.3236 12.6113Z" fill="white"/>
</svg>
