<svg width="18" height="18" viewBox="0 0 18 18" fill="none" xmlns="http://www.w3.org/2000/svg">
<path d="M15.9 12.975L14.4 11.475C14.1 11.175 13.65 11.175 13.35 11.475C13.05 11.775 13.05 12.225 13.35 12.525L13.575 12.75H11.625C11.175 12.75 10.875 13.05 10.875 13.5C10.875 13.95 11.175 14.25 11.625 14.25H13.575L13.35 14.475C13.2 14.625 13.125 14.775 13.125 15C13.125 15.45 13.425 15.75 13.875 15.75C14.1 15.75 14.25 15.675 14.4 15.525L15.9 14.025C15.975 13.95 16.05 13.875 16.05 13.8C16.05 13.725 16.125 13.65 16.125 13.5C16.125 13.425 16.125 13.275 16.05 13.2C16.05 13.125 15.975 13.05 15.9 12.975ZM6.37501 12.75H4.42501L4.65001 12.525C4.95001 12.225 4.95001 11.775 4.65001 11.475C4.35001 11.175 3.90001 11.175 3.60001 11.475L2.10001 12.975C2.02501 13.05 1.95001 13.125 1.95001 13.2C1.95001 13.275 1.87501 13.35 1.87501 13.5C1.87501 13.575 1.87501 13.725 1.95001 13.8C2.02501 13.875 2.02501 13.95 2.10001 14.025L3.60001 15.525C3.75001 15.675 3.90001 15.75 4.12501 15.75C4.35001 15.75 4.50001 15.675 4.65001 15.525C4.95001 15.225 4.95001 14.775 4.65001 14.475L4.42501 14.25H6.37501C6.82501 14.25 7.12501 13.95 7.12501 13.5C7.12501 13.05 6.82501 12.75 6.37501 12.75ZM13.5 6.9C14.55 6.9 15.45 6 15.45 4.95C15.45 3.9 14.55 3 13.5 3C12.45 3 11.55 3.9 11.55 4.95C11.55 6 12.45 6.9 13.5 6.9ZM17.025 9.675C15.45 7.725 12.6 7.425 10.65 9C10.425 9.225 10.125 9.45 9.97501 9.675C9.67501 10.125 9.67501 10.725 10.125 11.025C10.275 11.175 10.5 11.25 10.725 11.25H12.15C12.225 11.025 12.375 10.875 12.525 10.65C13.275 9.9 14.475 9.9 15.15 10.65L15.75 11.25H16.2C16.725 11.25 17.175 10.8 17.175 10.275C17.25 10.05 17.175 9.825 17.025 9.675ZM1.65001 8.925C1.42501 9.15 1.12501 9.375 0.975012 9.6C0.675012 10.05 0.675012 10.65 1.12501 10.95C1.27501 11.175 1.50001 11.25 1.72501 11.25H2.25001L2.85001 10.65C3.60001 9.9 4.80001 9.9 5.47501 10.65C5.62501 10.8 5.77501 11.025 5.85001 11.25H7.27501C7.80001 11.25 8.25001 10.8 8.25001 10.275C8.25001 10.05 8.17501 9.825 8.02501 9.675C6.45001 7.725 3.60001 7.425 1.65001 8.925ZM4.50001 6.9C5.55001 6.9 6.45001 6 6.45001 4.95C6.45001 3.9 5.55001 3 4.50001 3C3.45001 3 2.55001 3.9 2.55001 4.95C2.55001 6 3.45001 6.9 4.50001 6.9Z" fill="#50A5F1"/>
</svg>
