<svg width="28" height="32" viewBox="0 0 28 32" fill="none" xmlns="http://www.w3.org/2000/svg">
<path d="M17.5807 15.3663L6.51172 13.0957V29.8738C6.51185 30.0561 6.54281 30.2366 6.60284 30.4049C6.66286 30.5733 6.75077 30.7262 6.86155 30.855C6.97233 30.9837 7.10381 31.0858 7.24848 31.1555C7.39315 31.2251 7.54818 31.2608 7.70472 31.2607H26.8047C26.9614 31.2611 27.1167 31.2256 27.2616 31.1561C27.4065 31.0867 27.5382 30.9846 27.6492 30.8558C27.7602 30.727 27.8483 30.5739 27.9084 30.4054C27.9686 30.237 27.9996 30.0563 27.9997 29.8738V23.6919L17.5807 15.3663Z" fill="#185C37"/>
<path d="M17.5807 0.986329H7.70472C7.54818 0.986176 7.39315 1.02193 7.24848 1.09154C7.10381 1.16115 6.97233 1.26326 6.86155 1.39204C6.75077 1.52082 6.66286 1.67374 6.60284 1.84208C6.54281 2.01042 6.51185 2.19088 6.51172 2.37315V8.55506L17.5807 16.1238L23.4417 18.3944L27.9997 16.1238V8.55506L17.5807 0.986329Z" fill="#21A366"/>
<path d="M6.51172 8.55469H17.5807V16.1234H6.51172V8.55469Z" fill="#107C41"/>
<path opacity="0.1" d="M14.4337 7.04102H6.51172V25.9628H14.4337C14.7494 25.961 15.0517 25.8144 15.2752 25.5548C15.4987 25.2953 15.6254 24.9436 15.6277 24.576V8.42784C15.6254 8.06028 15.4987 7.7086 15.2752 7.44902C15.0517 7.18943 14.7494 7.04284 14.4337 7.04102Z" fill="black"/>
<path opacity="0.2" d="M13.7827 7.79883H6.51172V26.7207H13.7827C14.0984 26.7188 14.4007 26.5722 14.6242 26.3127C14.8477 26.0531 14.9744 25.7014 14.9767 25.3338V9.18565C14.9744 8.81809 14.8477 8.46642 14.6242 8.20683C14.4007 7.94724 14.0984 7.80066 13.7827 7.79883Z" fill="black"/>
<path opacity="0.2" d="M13.7827 7.79883H6.51172V25.2069H13.7827C14.0984 25.2051 14.4007 25.0585 14.6242 24.7989C14.8477 24.5393 14.9744 24.1877 14.9767 23.8201V9.18565C14.9744 8.81809 14.8477 8.46642 14.6242 8.20683C14.4007 7.94724 14.0984 7.80066 13.7827 7.79883Z" fill="black"/>
<path opacity="0.2" d="M13.1317 7.79883H6.51172V25.2069H13.1317C13.4474 25.2051 13.7497 25.0585 13.9732 24.7989C14.1967 24.5393 14.3234 24.1877 14.3257 23.8201V9.18565C14.3234 8.81809 14.1967 8.46642 13.9732 8.20683C13.7497 7.94724 13.4474 7.80066 13.1317 7.79883Z" fill="black"/>
<path d="M1.194 7.79883H13.132C13.4482 7.79852 13.7516 7.94442 13.9755 8.20447C14.1994 8.46451 14.3255 8.81743 14.326 9.18565V23.0632C14.3255 23.4314 14.1994 23.7844 13.9755 24.0444C13.7516 24.3045 13.4482 24.4504 13.132 24.45H1.194C1.03738 24.4503 0.882244 24.4147 0.737458 24.3452C0.592672 24.2756 0.461075 24.1735 0.350189 24.0447C0.239303 23.916 0.151301 23.763 0.0912137 23.5946C0.0311263 23.4261 0.000131172 23.2456 0 23.0632V9.18565C0.000131172 9.00328 0.0311263 8.82273 0.0912137 8.65431C0.151301 8.4859 0.239303 8.33292 0.350189 8.20413C0.461075 8.07533 0.592672 7.97325 0.737458 7.9037C0.882244 7.83416 1.03738 7.79852 1.194 7.79883Z" fill="url(#paint0_linear_7151_36112)"/>
<path d="M3.7002 20.6329L6.2112 16.1103L3.9112 11.6133H5.7582L7.0132 14.4929C7.12919 14.7654 7.2132 14.968 7.2512 15.103H7.2682C7.3502 14.8841 7.4372 14.6734 7.5282 14.4673L8.8702 11.6179H10.5702L8.2112 16.0893L10.6302 20.6364H8.8212L7.3712 17.4796C7.30387 17.3439 7.24666 17.2017 7.2002 17.0546H7.1762C7.13391 17.1979 7.07754 17.3351 7.0082 17.4633L5.5152 20.6329H3.7002Z" fill="white"/>
<path d="M26.8061 0.98633H17.5811V8.55506H28.0001V2.37315C27.9999 2.19078 27.9689 2.01023 27.9088 1.84181C27.8488 1.6734 27.7608 1.52042 27.6499 1.39163C27.539 1.26283 27.4074 1.16075 27.2626 1.0912C27.1178 1.02166 26.9627 0.986024 26.8061 0.98633Z" fill="#33C481"/>
<path d="M17.5811 16.123H28.0001V23.6918H17.5811V16.123Z" fill="#107C41"/>
<defs>
<linearGradient id="paint0_linear_7151_36112" x1="2.494" y1="6.70893" x2="14.1206" y2="24.0012" gradientUnits="userSpaceOnUse">
<stop stop-color="#18884F"/>
<stop offset="0.5" stop-color="#117E43"/>
<stop offset="1" stop-color="#0B6631"/>
</linearGradient>
</defs>
</svg>
