<svg width="18" height="18" viewBox="0 0 18 18" fill="none" xmlns="http://www.w3.org/2000/svg">
<path d="M1.87499 6.675L8.62499 10.575C8.77499 10.65 8.84999 10.65 8.99999 10.65C9.14999 10.65 9.22499 10.65 9.37499 10.575L16.125 6.675C16.275 6.6 16.35 6.525 16.425 6.375C16.575 6 16.5 5.55 16.125 5.325L9.37499 1.425C9.14999 1.275 8.84999 1.275 8.62499 1.425L1.87499 5.325C1.72499 5.4 1.64999 5.475 1.57499 5.625C1.42499 6 1.49999 6.45 1.87499 6.675ZM16.125 8.325L15.975 8.25L9.37499 12.075C9.14999 12.225 8.84999 12.225 8.62499 12.075L2.02499 8.25L1.87499 8.325C1.49999 8.55 1.42499 9 1.57499 9.375C1.64999 9.525 1.72499 9.6 1.87499 9.675L8.62499 13.575C8.84999 13.725 9.14999 13.725 9.37499 13.575L16.125 9.675C16.5 9.45 16.575 9 16.425 8.625C16.35 8.475 16.275 8.4 16.125 8.325ZM16.125 11.325L15.975 11.25L9.37499 15.075C9.14999 15.225 8.84999 15.225 8.62499 15.075L2.02499 11.25L1.87499 11.325C1.49999 11.55 1.42499 12 1.57499 12.375C1.64999 12.525 1.72499 12.6 1.87499 12.675L8.62499 16.575C8.84999 16.725 9.14999 16.725 9.37499 16.575L16.125 12.675C16.5 12.45 16.575 12 16.425 11.625C16.35 11.475 16.275 11.4 16.125 11.325Z" fill="#50A5F1"/>
</svg>
