<svg width="18" height="17" viewBox="0 0 18 17" fill="none" xmlns="http://www.w3.org/2000/svg">
<path d="M9 3.75C9 4.61195 8.65759 5.4386 8.0481 6.0481C7.4386 6.65759 6.61195 7 5.75 7C4.88805 7 4.0614 6.65759 3.4519 6.0481C2.84241 5.4386 2.5 4.61195 2.5 3.75C2.5 2.88805 2.84241 2.0614 3.4519 1.4519C4.0614 0.84241 4.88805 0.5 5.75 0.5C6.61195 0.5 7.4386 0.84241 8.0481 1.4519C8.65759 2.0614 9 2.88805 9 3.75ZM13.5 7C14.163 7 14.7989 6.73661 15.2678 6.26777C15.7366 5.79893 16 5.16304 16 4.5C16 3.83696 15.7366 3.20107 15.2678 2.73223C14.7989 2.26339 14.163 2 13.5 2C12.837 2 12.2011 2.26339 11.7322 2.73223C11.2634 3.20107 11 3.83696 11 4.5C11 5.16304 11.2634 5.79893 11.7322 6.26777C12.2011 6.73661 12.837 7 13.5 7ZM10.24 8.43C10.1478 8.62458 10.0813 8.8303 10.042 9.042C9.46824 9.14892 8.94997 9.45322 8.57701 9.90215C8.20406 10.3511 7.99993 10.9164 8 11.5V13.692C7.385 13.884 6.643 14 5.75 14C0.5 14 0.5 10 0.5 10C0.5 9.46957 0.710714 8.96086 1.08579 8.58579C1.46086 8.21071 1.96957 8 2.5 8H9C9.468 8 9.899 8.16 10.24 8.43ZM11 10V9.5C11 9.10218 11.158 8.72064 11.4393 8.43934C11.7206 8.15804 12.1022 8 12.5 8H14.5C14.8978 8 15.2794 8.15804 15.5607 8.43934C15.842 8.72064 16 9.10218 16 9.5V10H16.5C16.8978 10 17.2794 10.158 17.5607 10.4393C17.842 10.7206 18 11.1022 18 11.5V13H16V12.5C16 12.3674 15.9473 12.2402 15.8536 12.1464C15.7598 12.0527 15.6326 12 15.5 12C15.3674 12 15.2402 12.0527 15.1464 12.1464C15.0527 12.2402 15 12.3674 15 12.5V13H12V12.5C12 12.3674 11.9473 12.2402 11.8536 12.1464C11.7598 12.0527 11.6326 12 11.5 12C11.3674 12 11.2402 12.0527 11.1464 12.1464C11.0527 12.2402 11 12.3674 11 12.5V13H9V11.5C9 11.1022 9.15804 10.7206 9.43934 10.4393C9.72064 10.158 10.1022 10 10.5 10H11ZM12 9.5V10H15V9.5C15 9.36739 14.9473 9.24021 14.8536 9.14645C14.7598 9.05268 14.6326 9 14.5 9H12.5C12.3674 9 12.2402 9.05268 12.1464 9.14645C12.0527 9.24021 12 9.36739 12 9.5ZM16 14H18V15.5C18 15.8978 17.842 16.2794 17.5607 16.5607C17.2794 16.842 16.8978 17 16.5 17H10.5C10.1022 17 9.72064 16.842 9.43934 16.5607C9.15804 16.2794 9 15.8978 9 15.5V14H11V14.5C11 14.6326 11.0527 14.7598 11.1464 14.8536C11.2402 14.9473 11.3674 15 11.5 15C11.6326 15 11.7598 14.9473 11.8536 14.8536C11.9473 14.7598 12 14.6326 12 14.5V14H15V14.5C15 14.6326 15.0527 14.7598 15.1464 14.8536C15.2402 14.9473 15.3674 15 15.5 15C15.6326 15 15.7598 14.9473 15.8536 14.8536C15.9473 14.7598 16 14.6326 16 14.5V14Z" fill="#50A5F1"/>
</svg>
