<svg width="18" height="17" viewBox="0 0 18 17" fill="none" xmlns="http://www.w3.org/2000/svg">
<path d="M8.5 3.75C8.5 4.61195 8.15759 5.4386 7.5481 6.0481C6.9386 6.65759 6.11195 7 5.25 7C4.38805 7 3.5614 6.65759 2.9519 6.0481C2.34241 5.4386 2 4.61195 2 3.75C2 2.88805 2.34241 2.0614 2.9519 1.4519C3.5614 0.84241 4.38805 0.5 5.25 0.5C6.11195 0.5 6.9386 0.84241 7.5481 1.4519C8.15759 2.0614 8.5 2.88805 8.5 3.75ZM13 7C13.663 7 14.2989 6.73661 14.7678 6.26777C15.2366 5.79893 15.5 5.16304 15.5 4.5C15.5 3.83696 15.2366 3.20107 14.7678 2.73223C14.2989 2.26339 13.663 2 13 2C12.337 2 11.7011 2.26339 11.2322 2.73223C10.7634 3.20107 10.5 3.83696 10.5 4.5C10.5 5.16304 10.7634 5.79893 11.2322 6.26777C11.7011 6.73661 12.337 7 13 7ZM9.74 8.43C9.64782 8.62458 9.58126 8.8303 9.542 9.042C8.96824 9.14892 8.44997 9.45322 8.07701 9.90215C7.70406 10.3511 7.49993 10.9164 7.5 11.5V13.692C6.885 13.884 6.143 14 5.25 14C0 14 0 10 0 10C0 9.46957 0.210714 8.96086 0.585786 8.58579C0.960859 8.21071 1.46957 8 2 8H8.5C8.968 8 9.399 8.16 9.74 8.43ZM10.5 10V9.5C10.5 9.10218 10.658 8.72064 10.9393 8.43934C11.2206 8.15804 11.6022 8 12 8H14C14.3978 8 14.7794 8.15804 15.0607 8.43934C15.342 8.72064 15.5 9.10218 15.5 9.5V10H16C16.3978 10 16.7794 10.158 17.0607 10.4393C17.342 10.7206 17.5 11.1022 17.5 11.5V13H15.5V12.5C15.5 12.3674 15.4473 12.2402 15.3536 12.1464C15.2598 12.0527 15.1326 12 15 12C14.8674 12 14.7402 12.0527 14.6464 12.1464C14.5527 12.2402 14.5 12.3674 14.5 12.5V13H11.5V12.5C11.5 12.3674 11.4473 12.2402 11.3536 12.1464C11.2598 12.0527 11.1326 12 11 12C10.8674 12 10.7402 12.0527 10.6464 12.1464C10.5527 12.2402 10.5 12.3674 10.5 12.5V13H8.5V11.5C8.5 11.1022 8.65804 10.7206 8.93934 10.4393C9.22064 10.158 9.60218 10 10 10H10.5ZM11.5 9.5V10H14.5V9.5C14.5 9.36739 14.4473 9.24021 14.3536 9.14645C14.2598 9.05268 14.1326 9 14 9H12C11.8674 9 11.7402 9.05268 11.6464 9.14645C11.5527 9.24021 11.5 9.36739 11.5 9.5ZM15.5 14H17.5V15.5C17.5 15.8978 17.342 16.2794 17.0607 16.5607C16.7794 16.842 16.3978 17 16 17H10C9.60218 17 9.22064 16.842 8.93934 16.5607C8.65804 16.2794 8.5 15.8978 8.5 15.5V14H10.5V14.5C10.5 14.6326 10.5527 14.7598 10.6464 14.8536C10.7402 14.9473 10.8674 15 11 15C11.1326 15 11.2598 14.9473 11.3536 14.8536C11.4473 14.7598 11.5 14.6326 11.5 14.5V14H14.5V14.5C14.5 14.6326 14.5527 14.7598 14.6464 14.8536C14.7402 14.9473 14.8674 15 15 15C15.1326 15 15.2598 14.9473 15.3536 14.8536C15.4473 14.7598 15.5 14.6326 15.5 14.5V14Z" fill="#50A5F1"/>
</svg>
