<svg width="15" height="19" viewBox="0 0 15 19" fill="none" xmlns="http://www.w3.org/2000/svg">
<circle cx="7.5" cy="11.5" r="7.5" fill="#F46A6A"/>
<path d="M7.74561 8.20801C7.88102 8.20801 8.00798 8.17415 8.12646 8.10645C8.24919 8.03451 8.3444 7.93929 8.41211 7.8208C8.48405 7.70231 8.52002 7.57324 8.52002 7.43359C8.52002 7.23047 8.44385 7.05908 8.2915 6.91943C8.13916 6.77979 7.95719 6.70996 7.74561 6.70996C7.54248 6.70996 7.36475 6.77979 7.2124 6.91943C7.06429 7.05485 6.99023 7.22201 6.99023 7.4209C6.99023 7.56055 7.02409 7.69173 7.0918 7.81445C7.15951 7.93294 7.25049 8.02816 7.36475 8.1001C7.48324 8.17204 7.61019 8.20801 7.74561 8.20801ZM9.28174 15L9.35156 14.4922L8.33594 14.2637V9.54102L8.17725 9.38232L6.39355 9.52832L6.31104 10.0107L7.26953 10.3599V14.2637L6.31104 14.4985L6.23486 15H9.28174Z" fill="white"/>
</svg>
