<svg width="18" height="18" viewBox="0 0 18 18" fill="none" xmlns="http://www.w3.org/2000/svg">
<path d="M16.5 9.14453C16.5 5.00228 13.1422 1.64453 9 1.64453C4.85775 1.64453 1.5 5.00228 1.5 9.14453C1.5 13.2868 4.85775 16.6445 9 16.6445" stroke="#50A5F1" stroke-width="1.5" stroke-linecap="round" stroke-linejoin="round"/>
<path d="M9.75003 1.68164C9.75003 1.68164 12 4.64414 12 9.14414M8.25003 16.6066C8.25003 16.6066 6.00003 13.6441 6.00003 9.14414C6.00003 4.64414 8.25003 1.68164 8.25003 1.68164M1.97253 11.7691H9.00003M1.97253 6.51914H16.0275" stroke="#50A5F1" stroke-width="1.5" stroke-linecap="round" stroke-linejoin="round"/>
<path d="M16.4093 13.5823C16.7798 13.8103 16.7565 14.3645 16.3755 14.408L14.4503 14.6263L13.587 16.3603C13.416 16.7045 12.8873 16.5358 12.7995 16.1098L11.8583 11.5228C11.784 11.1628 12.108 10.9363 12.4208 11.129L16.4093 13.5823V13.5823Z" stroke="#50A5F1" stroke-width="1.5"/>
</svg>
