<svg width="16" height="16" viewBox="0 0 16 16" fill="none" xmlns="http://www.w3.org/2000/svg">
<path d="M6 4.66732C6 3.56274 6.89542 2.66732 8 2.66732C9.10457 2.66732 10 3.56274 10 4.66732V6.00065H11.3333V4.66732C11.3333 2.82638 9.84094 1.33398 8 1.33398C6.15906 1.33398 4.66666 2.82638 4.66666 4.66732V6.00065H6V4.66732ZM8 12.0007C7.6319 12.0007 7.33342 11.7024 7.33333 11.3343C7.33333 11.3342 7.33333 11.3341 7.33333 11.334V9.33398C7.33333 8.96579 7.6318 8.66732 8 8.66732C8.36819 8.66732 8.66666 8.96579 8.66666 9.33398V11.334C8.66676 11.7021 8.36844 12.0006 8.00034 12.0007C8.00023 12.0007 8.00011 12.0007 8 12.0007Z" fill="#F46A6A"/>
<path d="M11.3333 6H4.66666C3.56209 6 2.66666 6.89543 2.66666 8V12.6667C2.66666 13.7712 3.56209 14.6667 4.66666 14.6667H11.3333C12.4379 14.6667 13.3333 13.7712 13.3333 12.6667V8C13.3333 6.89543 12.4379 6 11.3333 6ZM8.66666 11.3333C8.66674 11.7014 8.36844 11.9999 8.00036 12C8.00024 12 8.00012 12 8 12C7.63192 12.0001 7.33341 11.7018 7.33333 11.3337C7.33333 11.3336 7.33333 11.3335 7.33333 11.3333V9.33333C7.33333 8.96513 7.63179 8.66667 8 8.66667C8.3682 8.66667 8.66666 8.96513 8.66666 9.33333V11.3333Z" fill="#F46A6A"/>
</svg>
