<svg width="12" height="14" viewBox="0 0 12 14" fill="none" xmlns="http://www.w3.org/2000/svg">
<path d="M9.33333 5.00065H4V3.66732C4 3.13398 4.2 2.66732 4.6 2.26732C5.4 1.46732 6.66666 1.46732 7.4 2.26732C7.66666 2.53398 7.8 2.86732 7.93333 3.20065C8 3.53398 8.4 3.73398 8.73333 3.66732C9.06666 3.60065 9.33333 3.20065 9.2 2.86732C9.06666 2.26732 8.73333 1.73398 8.33333 1.33398C7.73333 0.667318 6.86666 0.333984 6 0.333984C4.13333 0.333984 2.66666 1.80065 2.66666 3.66732V5.00065C1.53333 5.00065 0.666664 5.86732 0.666664 7.00065V11.6673C0.666664 12.8007 1.53333 13.6673 2.66666 13.6673H9.33333C10.4667 13.6673 11.3333 12.8007 11.3333 11.6673V7.00065C11.3333 5.86732 10.4667 5.00065 9.33333 5.00065ZM6.73333 9.33398L6.66666 9.40065V10.334C6.66666 10.734 6.4 11.0007 6 11.0007C5.6 11.0007 5.33333 10.734 5.33333 10.334V9.40065C4.93333 9.00065 4.86666 8.40065 5.26666 8.00065C5.66666 7.60065 6.26666 7.53398 6.66666 7.93398C7.06666 8.26732 7.13333 8.93398 6.73333 9.33398Z" fill="#50A5F1"/>
</svg>
