<svg width="18" height="18" viewBox="0 0 18 18" fill="none" xmlns="http://www.w3.org/2000/svg">
<path d="M12.75 6.75H6.75V5.25C6.75 4.65 6.975 4.125 7.425 3.675C8.325 2.775 9.75 2.775 10.575 3.675C10.875 3.975 11.025 4.35 11.175 4.725C11.25 5.1 11.7 5.325 12.075 5.25C12.45 5.175 12.75 4.725 12.6 4.35C12.45 3.675 12.075 3.075 11.625 2.625C10.95 1.875 9.975 1.5 9 1.5C6.9 1.5 5.25 3.15 5.25 5.25V6.75C3.975 6.75 3 7.725 3 9V14.25C3 15.525 3.975 16.5 5.25 16.5H12.75C14.025 16.5 15 15.525 15 14.25V9C15 7.725 14.025 6.75 12.75 6.75ZM9.825 11.625L9.75 11.7V12.75C9.75 13.2 9.45 13.5 9 13.5C8.55 13.5 8.25 13.2 8.25 12.75V11.7C7.8 11.25 7.725 10.575 8.175 10.125C8.625 9.675 9.3 9.6 9.75 10.05C10.2 10.425 10.275 11.175 9.825 11.625Z" fill="#34C38F"/>
</svg>
