<svg width="17" height="17" viewBox="0 0 17 17" fill="none" xmlns="http://www.w3.org/2000/svg">
<path d="M11.6666 4.54158H3.74992C3.27492 4.54158 2.95825 4.85825 2.95825 5.33325V7.31242H8.89575C9.37075 7.31242 9.68742 7.62909 9.68742 8.10408V14.0416H11.6666C12.1416 14.0416 12.4583 13.7249 12.4583 13.2499V5.33325C12.4583 4.85825 12.1416 4.54158 11.6666 4.54158ZM7.70825 8.49992H1.37492C0.899919 8.49992 0.583252 8.81658 0.583252 9.29158V15.6249C0.583252 16.0999 0.899919 16.4166 1.37492 16.4166H7.70825C8.18325 16.4166 8.49992 16.0999 8.49992 15.6249V9.29158C8.49992 8.81658 8.18325 8.49992 7.70825 8.49992ZM15.6249 0.583252H6.12492C5.64992 0.583252 5.33325 0.899919 5.33325 1.37492V3.35409H12.8541C13.3291 3.35409 13.6458 3.67075 13.6458 4.14575V11.6666H15.6249C16.0999 11.6666 16.4166 11.3499 16.4166 10.8749V1.37492C16.4166 0.899919 16.0999 0.583252 15.6249 0.583252Z" fill="#556EE6"/>
</svg>
