<svg width="22" height="23" viewBox="0 0 22 23" fill="none" xmlns="http://www.w3.org/2000/svg">
<path d="M17 5.00075H18V6.00075C18 6.26597 18.1054 6.52033 18.2929 6.70786C18.4804 6.8954 18.7348 7.00075 19 7.00075C19.2652 7.00075 19.5196 6.8954 19.7071 6.70786C19.8946 6.52033 20 6.26597 20 6.00075V5.00075H21C21.2652 5.00075 21.5196 4.8954 21.7071 4.70786C21.8946 4.52033 22 4.26597 22 4.00076C22 3.73554 21.8946 3.48118 21.7071 3.29365C21.5196 3.10611 21.2652 3.00076 21 3.00076H20V2.00075C20 1.73554 19.8946 1.48118 19.7071 1.29365C19.5196 1.10611 19.2652 1.00075 19 1.00075C18.7348 1.00075 18.4804 1.10611 18.2929 1.29365C18.1054 1.48118 18 1.73554 18 2.00075V3.00076H17C16.7348 3.00076 16.4804 3.10611 16.2929 3.29365C16.1054 3.48118 16 3.73554 16 4.00076C16 4.26597 16.1054 4.52033 16.2929 4.70786C16.4804 4.8954 16.7348 5.00075 17 5.00075ZM11.5 6.00075H10.5C9.70436 6.00075 8.94129 6.31683 8.37868 6.87943C7.81607 7.44204 7.5 8.20511 7.5 9.00076V15.0008C7.5 15.7964 7.81607 16.5595 8.37868 17.1221C8.94129 17.6847 9.70436 18.0008 10.5 18.0008H11.5C12.2957 18.0008 13.0587 17.6847 13.6213 17.1221C14.1839 16.5595 14.5 15.7964 14.5 15.0008V9.00076C14.5 8.20511 14.1839 7.44204 13.6213 6.87943C13.0587 6.31683 12.2957 6.00075 11.5 6.00075ZM12.5 15.0008C12.5 15.266 12.3946 15.5203 12.2071 15.7079C12.0196 15.8954 11.7652 16.0008 11.5 16.0008H10.5C10.2348 16.0008 9.98043 15.8954 9.7929 15.7079C9.60536 15.5203 9.5 15.266 9.5 15.0008V9.00076C9.5 8.73554 9.60536 8.48118 9.7929 8.29365C9.98043 8.10611 10.2348 8.00075 10.5 8.00075H11.5C11.7652 8.00075 12.0196 8.10611 12.2071 8.29365C12.3946 8.48118 12.5 8.73554 12.5 9.00076V15.0008ZM20.6 9.00076C20.4713 9.027 20.349 9.07834 20.2402 9.15184C20.1313 9.22535 20.038 9.31959 19.9656 9.42917C19.8931 9.53875 19.843 9.66152 19.818 9.79048C19.793 9.91944 19.7937 10.0521 19.82 10.1808C20.2104 12.077 19.979 14.0485 19.1601 15.8028C18.3412 17.557 16.9785 19.0005 15.2741 19.9188C13.5698 20.8372 11.6148 21.1815 9.69931 20.9006C7.78381 20.6198 6.00992 19.7287 4.64097 18.3598C3.27202 16.9908 2.38099 15.217 2.10014 13.3014C1.81929 11.3859 2.16359 9.43093 3.08194 7.72662C4.00028 6.02231 5.44372 4.65955 7.19798 3.84064C8.95224 3.02173 10.9238 2.79032 12.82 3.18076C13.0852 3.2338 13.3606 3.17931 13.5857 3.02928C13.8107 2.87925 13.967 2.64597 14.02 2.38076C14.073 2.11554 14.0186 1.84011 13.8685 1.61507C13.7185 1.39003 13.4852 1.2338 13.22 1.18075C12.4882 1.04441 11.7442 0.984086 11 1.00075C8.82441 1.00075 6.69767 1.64589 4.88873 2.85459C3.07979 4.06328 1.66989 5.78125 0.83733 7.79124C0.00476617 9.80122 -0.213071 12.013 0.211367 14.1467C0.635804 16.2805 1.68345 18.2406 3.22183 19.7789C4.76021 21.3173 6.72022 22.365 8.85401 22.7894C10.9878 23.2138 13.1995 22.996 15.2095 22.1634C17.2195 21.3309 18.9375 19.921 20.1462 18.112C21.3549 16.3031 22 14.1763 22 12.0008C22.0021 11.2618 21.9284 10.5246 21.78 9.80076C21.7561 9.67025 21.7064 9.54582 21.6338 9.4347C21.5613 9.32359 21.4674 9.22802 21.3576 9.15357C21.2478 9.07911 21.1242 9.02725 20.9942 9.00102C20.8641 8.97478 20.7301 8.97469 20.6 9.00076Z" fill="#34C38F"/>
</svg>
