<svg width="19" height="13" viewBox="0 0 19 13" fill="none" xmlns="http://www.w3.org/2000/svg">
<path d="M9.52461 10.1318L4.1001 6.23683C3.97234 6.16132 3.86645 6.05382 3.7929 5.92492C3.71935 5.79602 3.68066 5.65017 3.68066 5.50176C3.68066 5.35335 3.71935 5.20751 3.7929 5.07861C3.86645 4.94971 3.97234 4.8422 4.1001 4.7667L9.52461 0.869327C9.65391 0.793269 9.80105 0.752779 9.95106 0.751966C10.1011 0.751152 10.2486 0.790045 10.3788 0.864695C10.5089 0.939346 10.6169 1.0471 10.692 1.17701C10.767 1.30692 10.8063 1.45437 10.8059 1.60439V3.12558C12.5872 3.12558 17.9309 3.12558 19.1184 12.6256C16.1497 7.28183 10.8059 7.87558 10.8059 7.87558V9.39676C10.8059 10.0618 10.0863 10.4631 9.52461 10.133V10.1318Z" fill="#556EE6"/>
<path d="M6.21279 1.09895C6.2592 1.16176 6.29276 1.2331 6.31155 1.30891C6.33035 1.38471 6.334 1.46347 6.32231 1.54069C6.31062 1.6179 6.28381 1.69205 6.24341 1.75889C6.20302 1.82573 6.14984 1.88394 6.08691 1.9302L1.32266 5.4357C1.30661 5.44761 1.28996 5.45871 1.27279 5.46895C1.24697 5.48446 1.2256 5.5064 1.21077 5.53262C1.19594 5.55883 1.18814 5.58845 1.18814 5.61857C1.18814 5.64869 1.19594 5.67831 1.21077 5.70452C1.2256 5.73074 1.24697 5.75268 1.27279 5.7682C1.28996 5.77844 1.30661 5.78953 1.32266 5.80145L6.08691 9.30932C6.15125 9.35495 6.20586 9.41293 6.24754 9.4799C6.28921 9.54686 6.31713 9.62146 6.32966 9.69933C6.34219 9.7772 6.33908 9.85679 6.32051 9.93345C6.30194 10.0101 6.26828 10.0823 6.2215 10.1458C6.17472 10.2093 6.11575 10.2628 6.04805 10.3033C5.98035 10.3438 5.90526 10.3703 5.82717 10.3815C5.74908 10.3926 5.66956 10.388 5.59326 10.3681C5.51695 10.3481 5.44538 10.3132 5.38273 10.2653L0.639852 6.7752C0.443772 6.6528 0.282065 6.48252 0.169956 6.28038C0.057847 6.07824 -0.000976563 5.8509 -0.000976562 5.61976C-0.000976563 5.38861 0.057847 5.16127 0.169956 4.95913C0.282065 4.757 0.443772 4.58671 0.639852 4.46432L5.38273 0.97307C5.5095 0.879714 5.66816 0.840531 5.82382 0.864136C5.97948 0.887741 6.11939 0.972202 6.21279 1.09895Z" fill="#556EE6"/>
</svg>
