<svg width="16" height="16" viewBox="0 0 16 16" fill="none" xmlns="http://www.w3.org/2000/svg">
<path d="M15.4991 6.25371C15.4518 6.11652 15.3656 5.99603 15.2511 5.90683C15.1366 5.81764 14.9987 5.76358 14.8541 5.75121L10.5866 5.12871L8.67413 1.25121C8.61271 1.1244 8.51683 1.01746 8.39744 0.942638C8.27806 0.867811 8.14002 0.828125 7.99913 0.828125C7.85824 0.828125 7.72019 0.867811 7.60081 0.942638C7.48143 1.01746 7.38554 1.1244 7.32413 1.25121L5.41163 5.12121L1.14413 5.75121C1.00532 5.77094 0.874822 5.82918 0.767441 5.91933C0.660061 6.00947 0.580099 6.12791 0.536629 6.26121C0.496837 6.39146 0.493267 6.5301 0.526299 6.66223C0.559332 6.79436 0.627722 6.915 0.724129 7.01121L3.82163 10.0112L3.07163 14.2712C3.04135 14.4125 3.05254 14.5596 3.10387 14.6947C3.15519 14.8298 3.24446 14.9472 3.36093 15.0328C3.47739 15.1183 3.61611 15.1684 3.76038 15.177C3.90464 15.1856 4.04832 15.1523 4.17413 15.0812L7.99913 13.0787L11.8241 15.0812C11.9294 15.1406 12.0483 15.1716 12.1691 15.1712C12.328 15.1718 12.4829 15.1219 12.6116 15.0287C12.728 14.9454 12.8181 14.8304 12.8712 14.6975C12.9244 14.5646 12.9384 14.4193 12.9116 14.2787L12.1616 10.0187L15.2591 7.01871C15.3674 6.92697 15.4474 6.80638 15.4899 6.67097C15.5324 6.53555 15.5356 6.39086 15.4991 6.25371ZM10.8866 9.25371C10.7998 9.33801 10.7347 9.44207 10.6968 9.557C10.659 9.67192 10.6494 9.79431 10.6691 9.91371L11.2091 13.0637L8.38913 11.5637C8.27953 11.5095 8.1589 11.4813 8.03663 11.4813C7.91435 11.4813 7.79373 11.5095 7.68413 11.5637L4.86413 13.0637L5.40413 9.91371C5.42381 9.79431 5.4143 9.67192 5.37643 9.557C5.33856 9.44207 5.27344 9.33801 5.18663 9.25371L2.93663 7.00371L6.09413 6.54621C6.21563 6.52931 6.33113 6.48286 6.4305 6.41095C6.52988 6.33903 6.6101 6.24384 6.66413 6.13371L7.99913 3.27621L9.40913 6.14121C9.46316 6.25134 9.54338 6.34653 9.64275 6.41845C9.74213 6.49036 9.85763 6.53681 9.97913 6.55371L13.1366 7.01121L10.8866 9.25371Z" fill="#5D5FEF"/>
</svg>
