<svg width="13" height="14" viewBox="0 0 13 14" fill="none" xmlns="http://www.w3.org/2000/svg">
<g clip-path="url(#clip0_7704_31854)">
<path d="M11.7614 5.82185L11.375 5.70629H8.2514C8.4568 6.08918 8.53097 6.52887 8.46255 6.95795C8.39412 7.38704 8.18687 7.78184 7.87257 8.08186C7.55826 8.38187 7.15425 8.57053 6.72244 8.61893C6.29064 8.66733 5.85488 8.57279 5.48196 8.3498C5.10903 8.12682 4.81952 7.78769 4.6578 7.3844C4.49608 6.98111 4.47107 6.53592 4.58661 6.11706C4.70215 5.69819 4.95186 5.32878 5.29746 5.06543C5.64307 4.80208 6.0655 4.65933 6.50001 4.65907C6.57818 4.65447 6.65656 4.65447 6.73473 4.65907C6.65916 4.34007 6.70418 4.00439 6.86112 3.71657L7.61584 2.40935L7.30528 1.3874C7.29288 1.34418 7.26755 1.30579 7.23269 1.27739C7.19783 1.24899 7.15512 1.23193 7.11028 1.22852H5.88973C5.84284 1.22873 5.79724 1.24391 5.75957 1.27184C5.7219 1.29977 5.69412 1.33899 5.68028 1.38379L5.31917 2.57546C5.02018 2.66356 4.73192 2.78468 4.45973 2.93657L3.3764 2.35157C3.33455 2.32935 3.28666 2.32121 3.23982 2.32837C3.19298 2.33552 3.1497 2.35759 3.1164 2.39129L2.2389 3.24713C2.2052 3.28043 2.18313 3.32371 2.17597 3.37055C2.16882 3.41738 2.17695 3.46528 2.19918 3.50713L2.78418 4.59046C2.63253 4.86151 2.51142 5.14854 2.42306 5.44629L1.22779 5.8074C1.18298 5.82124 1.14376 5.84901 1.11583 5.88668C1.08791 5.92435 1.07273 5.96995 1.07251 6.01685V7.2374C1.07273 7.2843 1.08791 7.3299 1.11583 7.36757C1.14376 7.40523 1.18298 7.43301 1.22779 7.44685L2.43029 7.80796C2.51961 8.10075 2.6407 8.38289 2.7914 8.64935L2.19918 9.78323C2.17695 9.82508 2.16882 9.87298 2.17597 9.91981C2.18313 9.96665 2.2052 10.0099 2.2389 10.0432L3.10195 10.9063C3.13526 10.94 3.17854 10.9621 3.22537 10.9692C3.27221 10.9764 3.32011 10.9682 3.36195 10.946L4.47779 10.3502C4.74175 10.4926 5.02018 10.6064 5.30834 10.6896L5.66945 11.9066C5.68329 11.9514 5.71106 11.9906 5.74873 12.0185C5.7864 12.0464 5.832 12.0616 5.8789 12.0618H7.09945C7.14634 12.0616 7.19194 12.0464 7.22961 12.0185C7.26728 11.9906 7.29506 11.9514 7.3089 11.9066L7.67001 10.686C7.95571 10.6024 8.2317 10.4886 8.49334 10.3466L9.61639 10.946C9.65824 10.9682 9.70614 10.9764 9.75297 10.9692C9.79981 10.9621 9.84309 10.94 9.87639 10.9063L10.7394 10.0432C10.7732 10.0099 10.7952 9.96665 10.8024 9.91981C10.8095 9.87298 10.8014 9.82508 10.7792 9.78323L10.1797 8.66379C10.3232 8.40115 10.4382 8.12393 10.5228 7.83685L11.7397 7.47574C11.7845 7.4619 11.8238 7.43412 11.8517 7.39645C11.8796 7.35878 11.8948 7.31318 11.895 7.26629V6.0349C11.8971 5.99 11.8855 5.94552 11.8616 5.90743C11.8377 5.86935 11.8027 5.83948 11.7614 5.82185Z" fill="#50A5F1"/>
<path d="M9.69583 0.557053L7.63028 4.11761C7.58222 4.18815 7.55463 4.27061 7.55057 4.35586C7.54651 4.44112 7.56613 4.52583 7.60726 4.60061C7.6484 4.6754 7.70943 4.73734 7.78361 4.77956C7.85778 4.82178 7.9422 4.84264 8.0275 4.83983H12.1622C12.2475 4.84264 12.3319 4.82178 12.4061 4.77956C12.4803 4.73734 12.5413 4.6754 12.5825 4.60061C12.6236 4.52583 12.6432 4.44112 12.6391 4.35586C12.6351 4.27061 12.6075 4.18815 12.5594 4.11761L10.4939 0.557053C10.4532 0.487379 10.3949 0.429585 10.3249 0.389421C10.2549 0.349258 10.1756 0.328125 10.0949 0.328125C10.0142 0.328125 9.93485 0.349258 9.86484 0.389421C9.79484 0.429585 9.73657 0.487379 9.69583 0.557053V0.557053Z" fill="#50A5F1"/>
</g>
<defs>
<clipPath id="clip0_7704_31854">
<rect width="13" height="13" fill="white" transform="translate(0 0.144531)"/>
</clipPath>
</defs>
</svg>
