<svg width="15" height="15" viewBox="0 0 15 15" fill="none" xmlns="http://www.w3.org/2000/svg">
<g clip-path="url(#clip0_1051_15075)">
<path d="M13.9934 1.12129C13.988 1.09538 13.9754 1.07153 13.957 1.05254C13.9386 1.03355 13.9151 1.0202 13.8894 1.01406C12.1735 0.594534 8.20871 2.08955 6.06066 4.23672C5.67754 4.61675 5.32827 5.02944 5.01682 5.47012C4.35442 5.41152 3.69201 5.46045 3.12746 5.70654C1.53459 6.40762 1.07082 8.23691 0.941623 9.02383C0.934295 9.0669 0.937059 9.11108 0.949699 9.1529C0.962338 9.19473 0.984508 9.23304 1.01447 9.26485C1.04442 9.29665 1.08135 9.32107 1.12234 9.33618C1.16333 9.3513 1.20727 9.3567 1.25071 9.35195L3.80861 9.06982C3.81044 9.26267 3.82208 9.4553 3.84348 9.64697C3.85635 9.78007 3.91543 9.90446 4.01047 9.99853L5.001 10.9867C5.09516 11.0816 5.2195 11.1407 5.35256 11.1537C5.54315 11.175 5.73471 11.1867 5.92648 11.1886L5.64582 13.7433C5.64114 13.7867 5.64658 13.8306 5.66171 13.8716C5.67685 13.9125 5.70127 13.9494 5.73306 13.9794C5.76485 14.0093 5.80314 14.0315 5.84493 14.0441C5.88673 14.0568 5.93088 14.0596 5.97395 14.0523C6.75939 13.9264 8.59191 13.4626 9.28889 11.8697C9.53498 11.3052 9.58537 10.646 9.52853 9.98681C9.97028 9.67534 10.3841 9.32597 10.7652 8.94268C12.9199 6.79873 14.4065 2.92246 13.9934 1.12129ZM8.61535 6.38506C8.41859 6.18843 8.28457 5.93786 8.23023 5.66505C8.1759 5.39224 8.20369 5.10944 8.3101 4.85243C8.41651 4.59542 8.59675 4.37574 8.82803 4.22117C9.0593 4.06661 9.33122 3.98412 9.60939 3.98412C9.88756 3.98412 10.1595 4.06661 10.3908 4.22117C10.622 4.37574 10.8023 4.59542 10.9087 4.85243C11.0151 5.10944 11.0429 5.39224 10.9886 5.66505C10.9342 5.93786 10.8002 6.18843 10.6034 6.38506C10.473 6.51572 10.318 6.61937 10.1474 6.6901C9.97688 6.76082 9.79404 6.79722 9.60939 6.79722C9.42475 6.79722 9.24191 6.76082 9.07134 6.6901C8.90077 6.61937 8.74582 6.51572 8.61535 6.38506Z" fill="#50A5F1"/>
<path d="M4.93359 11.703C4.77305 11.8639 4.51553 11.9266 4.20557 11.9802C3.50918 12.0988 2.89424 11.4971 3.01934 10.7931C3.06709 10.5262 3.2083 10.1521 3.29619 10.0642C3.3154 10.0453 3.32819 10.0209 3.33273 9.99439C3.33728 9.96787 3.33336 9.94059 3.32152 9.91643C3.30968 9.89226 3.29053 9.87244 3.26679 9.85978C3.24305 9.84712 3.21592 9.84227 3.18926 9.8459C2.79983 9.89355 2.43754 10.0701 2.16006 10.3475C1.47129 11.0368 1.40625 13.5947 1.40625 13.5947C1.40625 13.5947 3.96562 13.5297 4.65439 12.8403C4.93261 12.5631 5.10939 12.2002 5.15625 11.8103C5.16709 11.6878 5.01797 11.6148 4.93359 11.703Z" fill="#50A5F1"/>
</g>
<defs>
<clipPath id="clip0_1051_15075">
<rect width="15" height="15" fill="white"/>
</clipPath>
</defs>
</svg>
