<svg width="16" height="16" viewBox="0 0 16 16" fill="none" xmlns="http://www.w3.org/2000/svg">
<path d="M14.2882 12.2457V7.31975C14.4913 7.20678 14.6654 7.04823 14.7968 6.85657C14.9282 6.66491 15.0134 6.44536 15.0455 6.21521C15.0777 5.98506 15.056 5.75059 14.9822 5.53023C14.9084 5.30988 14.7844 5.10966 14.6201 4.94534C14.4558 4.78102 14.2556 4.65707 14.0352 4.58325C13.8149 4.50943 13.5804 4.48776 13.3503 4.51993C13.1201 4.5521 12.9006 4.63725 12.7089 4.76866C12.5172 4.90008 12.3587 5.07418 12.2457 5.27727H9.78273V2.81428C9.98582 2.70131 10.1599 2.54276 10.2913 2.3511C10.4228 2.15944 10.5079 1.9399 10.5401 1.70974C10.5722 1.47959 10.5506 1.24512 10.4767 1.02477C10.4029 0.804413 10.279 0.604197 10.1147 0.439874C9.95033 0.27555 9.75012 0.151603 9.52977 0.0777839C9.30941 0.00396509 9.07494 -0.0177105 8.84479 0.0144628C8.61464 0.0466362 8.39509 0.13178 8.20343 0.263196C8.01177 0.394611 7.85322 0.568712 7.74025 0.771798H2.81428C2.70131 0.568712 2.54276 0.394611 2.3511 0.263196C2.15944 0.13178 1.9399 0.0466362 1.70974 0.0144628C1.47959 -0.0177105 1.24512 0.00396509 1.02477 0.0777839C0.804413 0.151603 0.604197 0.27555 0.439874 0.439874C0.27555 0.604197 0.151603 0.804413 0.0777839 1.02477C0.00396509 1.24512 -0.0177105 1.47959 0.0144628 1.70974C0.0466362 1.9399 0.13178 2.15944 0.263196 2.3511C0.394611 2.54276 0.568712 2.70131 0.771798 2.81428V7.74025C0.568712 7.85322 0.394611 8.01177 0.263196 8.20343C0.13178 8.39509 0.0466362 8.61464 0.0144628 8.84479C-0.0177105 9.07494 0.00396509 9.30941 0.0777839 9.52977C0.151603 9.75012 0.27555 9.95033 0.439874 10.1147C0.604197 10.279 0.804413 10.4029 1.02477 10.4767C1.24512 10.5506 1.47959 10.5722 1.70974 10.5401C1.9399 10.5079 2.15944 10.4228 2.3511 10.2913C2.54276 10.1599 2.70131 9.98582 2.81428 9.78273H5.27727V12.2457C5.07418 12.3587 4.90008 12.5172 4.76866 12.7089C4.63725 12.9006 4.5521 13.1201 4.51993 13.3503C4.48776 13.5804 4.50943 13.8149 4.58325 14.0352C4.65707 14.2556 4.78102 14.4558 4.94534 14.6201C5.10966 14.7844 5.30988 14.9084 5.53023 14.9822C5.75059 15.056 5.98506 15.0777 6.21521 15.0455C6.44536 15.0134 6.66491 14.9282 6.85657 14.7968C7.04823 14.6654 7.20678 14.4913 7.31975 14.2882H12.2457C12.3587 14.4913 12.5172 14.6654 12.7089 14.7968C12.9006 14.9282 13.1201 15.0134 13.3503 15.0455C13.5804 15.0777 13.8149 15.056 14.0352 14.9822C14.2556 14.9084 14.4558 14.7844 14.6201 14.6201C14.7844 14.4558 14.9084 14.2556 14.9822 14.0352C15.056 13.8149 15.0777 13.5804 15.0455 13.3503C15.0134 13.1201 14.9282 12.9006 14.7968 12.7089C14.6654 12.5172 14.4913 12.3587 14.2882 12.2457ZM4.52635 6.02818C4.52794 6.29027 4.59808 6.54738 4.72981 6.77396C4.86155 7.00054 5.05028 7.1887 5.27727 7.31975V8.28091H2.81428C2.6863 8.05509 2.49944 7.86823 2.27362 7.74025V2.81428C2.49944 2.6863 2.6863 2.49944 2.81428 2.27362H7.74025C7.86823 2.49944 8.05509 2.6863 8.28091 2.81428V5.27727H7.31975C7.15251 4.99537 6.89765 4.77592 6.59404 4.6524C6.29044 4.52888 5.95476 4.50808 5.63822 4.59317C5.32169 4.67826 5.04169 4.86457 4.84093 5.12367C4.64018 5.38276 4.5297 5.70042 4.52635 6.02818ZM8.28091 6.77909V7.74025C8.05509 7.86823 7.86823 8.05509 7.74025 8.28091H6.77909V7.31975C7.00491 7.19177 7.19177 7.00491 7.31975 6.77909H8.28091ZM12.7864 12.2457C12.5606 12.3737 12.3737 12.5606 12.2457 12.7864H7.31975C7.19177 12.5606 7.00491 12.3737 6.77909 12.2457V9.78273H7.74025C7.85322 9.98582 8.01177 10.1599 8.20343 10.2913C8.39509 10.4228 8.61464 10.5079 8.84479 10.5401C9.07494 10.5722 9.30941 10.5506 9.52977 10.4767C9.75012 10.4029 9.95033 10.279 10.1147 10.1147C10.279 9.95033 10.4029 9.75012 10.4767 9.52977C10.5506 9.30941 10.5722 9.07494 10.5401 8.84479C10.5079 8.61464 10.4228 8.39509 10.2913 8.20343C10.1599 8.01177 9.98582 7.85322 9.78273 7.74025V6.77909H12.2457C12.3737 7.00491 12.5606 7.19177 12.7864 7.31975V12.2457Z" fill="#50A5F1"/>
</svg>
