<svg width="19" height="5" viewBox="0 0 19 5" fill="none" xmlns="http://www.w3.org/2000/svg">
<path d="M5 2.5C5 1.2625 3.9875 0.25 2.75 0.25C1.5125 0.25 0.5 1.2625 0.5 2.5C0.5 3.7375 1.5125 4.75 2.75 4.75C3.9875 4.75 5 3.7375 5 2.5ZM7.25 2.5C7.25 3.7375 8.2625 4.75 9.5 4.75C10.7375 4.75 11.75 3.7375 11.75 2.5C11.75 1.2625 10.7375 0.25 9.5 0.25C8.2625 0.25 7.25 1.2625 7.25 2.5ZM14 2.5C14 3.7375 15.0125 4.75 16.25 4.75C17.4875 4.75 18.5 3.7375 18.5 2.5C18.5 1.2625 17.4875 0.249999 16.25 0.249999C15.0125 0.249999 14 1.2625 14 2.5Z" fill="#556EE6"/>
</svg>
