<svg width="14" height="14" viewBox="0 0 14 14" fill="none" xmlns="http://www.w3.org/2000/svg">
<path d="M7 0C5.61553 0 4.26215 0.410543 3.11101 1.17971C1.95987 1.94888 1.06266 3.04213 0.532846 4.32121C0.00303299 5.6003 -0.13559 7.00776 0.134506 8.36563C0.404603 9.7235 1.07129 10.9708 2.05026 11.9497C3.02922 12.9287 4.2765 13.5954 5.63437 13.8655C6.99224 14.1356 8.3997 13.997 9.67879 13.4672C10.9579 12.9373 12.0511 12.0401 12.8203 10.889C13.5895 9.73784 14 8.38447 14 7C13.9979 5.14413 13.2597 3.36489 11.9474 2.0526C10.6351 0.740302 8.85587 0.00212317 7 0ZM10.6449 5.32929L6.31365 9.66054C6.24867 9.72556 6.17151 9.77713 6.08659 9.81232C6.00167 9.84751 5.91065 9.86562 5.81873 9.86562C5.72681 9.86562 5.63579 9.84751 5.55087 9.81232C5.46595 9.77713 5.38879 9.72556 5.32381 9.66054L3.3551 7.69179C3.2252 7.56026 3.15262 7.38267 3.1532 7.1978C3.15378 7.01293 3.22747 6.8358 3.35819 6.70508C3.4889 6.57435 3.66603 6.50065 3.8509 6.50007C4.03577 6.49948 4.21336 6.57206 4.3449 6.70195L5.81873 8.17578L9.6551 4.33945C9.78665 4.20956 9.96424 4.13698 10.1491 4.13757C10.334 4.13815 10.5111 4.21185 10.6418 4.34258C10.7725 4.4733 10.8462 4.65043 10.8468 4.8353C10.8474 5.02017 10.7748 5.19776 10.6449 5.32929Z" fill="#50A5F1"/>
</svg>
