<svg width="18" height="18" viewBox="0 0 18 18" fill="none" xmlns="http://www.w3.org/2000/svg">
<path d="M8.25 6.89453H11.25C11.4489 6.89453 11.6397 6.81551 11.7803 6.67486C11.921 6.53421 12 6.34344 12 6.14453C12 5.94562 11.921 5.75485 11.7803 5.6142C11.6397 5.47355 11.4489 5.39453 11.25 5.39453H9.75V4.64453C9.75 4.44562 9.67098 4.25485 9.53033 4.1142C9.38968 3.97355 9.19891 3.89453 9 3.89453C8.80109 3.89453 8.61032 3.97355 8.46967 4.1142C8.32902 4.25485 8.25 4.44562 8.25 4.64453V5.39453C7.65327 5.39453 7.08097 5.63158 6.65901 6.05354C6.23706 6.4755 6 7.04779 6 7.64453C6 8.24127 6.23706 8.81357 6.65901 9.23552C7.08097 9.65748 7.65327 9.89453 8.25 9.89453H9.75C9.94891 9.89453 10.1397 9.97355 10.2803 10.1142C10.421 10.2549 10.5 10.4456 10.5 10.6445C10.5 10.8434 10.421 11.0342 10.2803 11.1749C10.1397 11.3155 9.94891 11.3945 9.75 11.3945H6.75C6.55109 11.3945 6.36032 11.4735 6.21967 11.6142C6.07902 11.7549 6 11.9456 6 12.1445C6 12.3434 6.07902 12.5342 6.21967 12.6749C6.36032 12.8155 6.55109 12.8945 6.75 12.8945H8.25V13.6445C8.25 13.8434 8.32902 14.0342 8.46967 14.1749C8.61032 14.3155 8.80109 14.3945 9 14.3945C9.19891 14.3945 9.38968 14.3155 9.53033 14.1749C9.67098 14.0342 9.75 13.8434 9.75 13.6445V12.8945C10.3467 12.8945 10.919 12.6575 11.341 12.2355C11.7629 11.8136 12 11.2413 12 10.6445C12 10.0478 11.7629 9.4755 11.341 9.05354C10.919 8.63158 10.3467 8.39453 9.75 8.39453H8.25C8.05109 8.39453 7.86032 8.31551 7.71967 8.17486C7.57902 8.03421 7.5 7.84344 7.5 7.64453C7.5 7.44562 7.57902 7.25485 7.71967 7.1142C7.86032 6.97355 8.05109 6.89453 8.25 6.89453ZM9 0.894531C7.36831 0.894531 5.77325 1.37839 4.41655 2.28491C3.05984 3.19143 2.00242 4.4799 1.378 5.98739C0.753575 7.49488 0.590197 9.15368 0.908525 10.754C1.22685 12.3544 2.01259 13.8244 3.16637 14.9782C4.32016 16.1319 5.79016 16.9177 7.39051 17.236C8.99085 17.5543 10.6497 17.391 12.1571 16.7665C13.6646 16.1421 14.9531 15.0847 15.8596 13.728C16.7661 12.3713 17.25 10.7762 17.25 9.14453C17.25 6.9565 16.3808 4.85808 14.8336 3.3109C13.2865 1.76373 11.188 0.894531 9 0.894531ZM9 15.8945C7.66498 15.8945 6.35994 15.4987 5.2499 14.757C4.13987 14.0153 3.27471 12.961 2.76382 11.7276C2.25293 10.4942 2.11925 9.13704 2.3797 7.82767C2.64015 6.5183 3.28303 5.31557 4.22703 4.37156C5.17104 3.42756 6.37377 2.78468 7.68314 2.52423C8.99251 2.26378 10.3497 2.39745 11.5831 2.90834C12.8165 3.41924 13.8707 4.2844 14.6124 5.39443C15.3541 6.50446 15.75 7.80951 15.75 9.14453C15.75 10.9347 15.0388 12.6516 13.773 13.9175C12.5071 15.1834 10.7902 15.8945 9 15.8945Z" fill="#50A5F1"/>
</svg>
