<svg width="15" height="19" viewBox="0 0 15 19" fill="none" xmlns="http://www.w3.org/2000/svg">
<path d="M11.0661 3.99844C11.3856 2.11902 10.0488 0.348172 8.0804 0.043153C6.11198 -0.261866 4.25728 1.01444 3.93781 2.89387C3.61835 4.7733 4.9551 6.54414 6.92353 6.84916C8.89195 7.15418 10.7467 5.87787 11.0661 3.99844Z" fill="#5D5FEF"/>
<path d="M4.98524 16.8071L3.6061 15.51C3.39326 15.3099 3.31833 15.0164 3.40955 14.7438C3.50511 14.4659 3.74945 14.271 4.04591 14.2305L4.63665 14.1476L3.80917 12.5291C3.76791 12.4492 3.68212 12.3984 3.58981 12.3984C3.49642 12.3984 3.41063 12.4492 3.36937 12.5291L2.39311 14.4379L0.210387 14.7438C0.119169 14.7562 0.0431536 14.8174 0.0138334 14.9024C-0.0144009 14.9864 0.00840372 15.0787 0.0746457 15.1409L1.65577 16.6277L1.2822 18.7262C1.267 18.8144 1.30501 18.9025 1.37994 18.9554C1.42229 18.9844 1.47333 18.9989 1.52328 18.9989C1.56237 18.9989 1.60147 18.9896 1.6373 18.972L3.58981 17.9818L4.679 18.5344L4.98524 16.8071Z" fill="#5D5FEF"/>
<path d="M10.0176 16.8071L11.3967 15.51C11.6096 15.3099 11.6845 15.0164 11.5933 14.7438C11.4977 14.4659 11.2534 14.271 10.9569 14.2305L10.3662 14.1476L11.1936 12.5291C11.2349 12.4492 11.3207 12.3984 11.413 12.3984C11.5064 12.3984 11.5922 12.4492 11.6334 12.5291L12.6097 14.4379L14.7924 14.7438C14.8836 14.7562 14.9597 14.8174 14.989 14.9024C15.0172 14.9864 14.9944 15.0787 14.9282 15.1409L13.3471 16.6277L13.7206 18.7262C13.7358 18.8144 13.6978 18.9025 13.6229 18.9554C13.5805 18.9844 13.5295 18.9989 13.4795 18.9989C13.4404 18.9989 13.4013 18.9896 13.3655 18.972L11.413 17.9818L10.3238 18.5344L10.0176 16.8071Z" fill="#5D5FEF"/>
<path d="M11.0768 14.9024C11.0475 14.8174 10.9715 14.7562 10.8803 14.7438L8.69753 14.4379L7.72128 12.5291C7.68001 12.4492 7.59423 12.3984 7.50192 12.3984C7.40853 12.3984 7.32274 12.4492 7.28148 12.5291L6.30522 14.4379L4.1225 14.7438C4.03128 14.7562 3.95526 14.8174 3.92594 14.9024C3.89771 14.9864 3.92051 15.0787 3.98676 15.1409L5.56787 16.6277L5.19431 18.7262C5.17911 18.8144 5.21712 18.9025 5.29205 18.9554C5.3344 18.9844 5.38544 18.9989 5.43539 18.9989C5.47448 18.9989 5.51358 18.9896 5.54941 18.972L7.50192 17.9818L9.45334 18.972C9.53588 19.0134 9.6347 19.0072 9.71071 18.9554C9.78564 18.9025 9.82365 18.8144 9.80844 18.7262L9.43488 16.6277L11.016 15.1409C11.0822 15.0787 11.105 14.9864 11.0768 14.9024Z" fill="#5D5FEF"/>
<path d="M10.7077 12.2994C10.8391 12.0444 11.1171 11.8795 11.4135 11.8795C11.7111 11.8795 11.9891 12.0444 12.1216 12.3015L12.5136 13.0687C13.6625 12.5172 14.3662 11.7758 14.3662 10.9598C14.3662 9.25423 11.293 7.87109 7.5009 7.87109C3.70882 7.87109 0.636719 9.25319 0.636719 10.9588C0.636719 11.7748 1.3404 12.5161 2.48824 13.0677L2.88026 12.3005C3.01274 12.0433 3.29074 11.8785 3.58829 11.8785C3.88583 11.8785 4.16274 12.0433 4.29414 12.2984L5.08796 13.8505C5.36053 13.8961 5.64179 13.9355 5.92956 13.9656L5.94259 13.9635L6.79288 12.3005C6.92536 12.0433 7.20336 11.8785 7.5009 11.8785C7.79845 11.8785 8.07536 12.0433 8.20676 12.2984L9.05813 13.9635L9.07116 13.9656C9.35894 13.9355 9.63911 13.8972 9.91168 13.8505L10.7077 12.2994Z" fill="#5D5FEF"/>
</svg>
