<svg width="16" height="20" viewBox="0 0 16 20" fill="none" xmlns="http://www.w3.org/2000/svg">
<path d="M14.633 0H1.40527C0.709998 0 0.0147303 0.699298 0.0147303 1.44945V2.00571H0V4.00507H0.960412C1.14601 3.55053 1.56435 3.23266 2.0534 3.23266C2.71331 3.23266 3.24655 3.808 3.24655 4.52001C3.24655 5.23202 2.71331 5.80735 2.0534 5.80735C1.53195 5.80735 1.09298 5.44817 0.928006 4.94594H0V7.37124H0.969251C1.1578 6.92623 1.57319 6.61472 2.05634 6.61472C2.71626 6.61472 3.24949 7.19006 3.24949 7.90207C3.24949 8.61408 2.71626 9.18941 2.05634 9.18941C1.53195 9.18941 1.08415 8.82387 0.92506 8.31529H0V10.8518H0.930952C1.09593 10.356 1.53489 9.99678 2.0534 9.99678C2.71331 9.99678 3.24655 10.5721 3.24655 11.2841C3.24655 11.9961 2.71331 12.5715 2.0534 12.5715C1.56141 12.5715 1.14012 12.2504 0.957466 11.7927H0V14.1735H0.951574C1.13128 13.7062 1.55846 13.3788 2.0534 13.3788C2.71331 13.3788 3.24655 13.9542 3.24655 14.6662C3.24655 15.3782 2.71331 15.9535 2.0534 15.9535C1.54078 15.9535 1.10477 15.6039 0.936844 15.1144H0V18.08H0.0147303V18.506C0.0147303 19.2561 0.709998 19.7552 1.40527 19.7552H12.6916L12.7181 16.1411H16V1.44945C16 0.699298 15.3312 0 14.633 0ZM13.7787 13.8652H4.52513C4.27177 13.8652 4.0685 13.6427 4.0685 13.3725C4.0685 13.0991 4.27472 12.8798 4.52513 12.8798H13.7816C14.035 12.8798 14.2383 13.1023 14.2383 13.3725C14.2383 13.6427 14.032 13.8652 13.7787 13.8652ZM13.7787 11.6624H4.52513C4.27177 11.6624 4.0685 11.4431 4.0685 11.1697C4.0685 10.8963 4.27472 10.6738 4.52513 10.6738H13.7816C14.035 10.6738 14.2383 10.8963 14.2383 11.1697C14.2383 11.4431 14.032 11.6624 13.7787 11.6624ZM13.7787 9.50727H4.52513C4.27177 9.50727 4.0685 9.28477 4.0685 9.01459C4.0685 8.74123 4.27472 8.51872 4.52513 8.51872H13.7816C14.035 8.51872 14.2383 8.74123 14.2383 9.01459C14.2383 9.28477 14.032 9.50727 13.7787 9.50727ZM13.7787 7.35217H4.52513C4.27177 7.35217 4.0685 7.12966 4.0685 6.85948C4.0685 6.58612 4.27472 6.36679 4.52513 6.36679H13.7816C14.035 6.36679 14.2383 6.58929 14.2383 6.85948C14.2383 7.12966 14.032 7.35217 13.7787 7.35217ZM13.7787 5.24156H4.52513C4.27177 5.24156 4.0685 5.02223 4.0685 4.74887C4.0685 4.47551 4.27472 4.25618 4.52513 4.25618H13.7816C14.035 4.25618 14.2383 4.47869 14.2383 4.74887C14.2383 5.01905 14.032 5.24156 13.7787 5.24156Z" fill="#50A5F1"/>
</svg>
