<svg width="22" height="22" viewBox="0 0 22 22" fill="none" xmlns="http://www.w3.org/2000/svg">
<path d="M19.2497 11.0001C19.0066 11.0001 18.7734 11.0967 18.6015 11.2686C18.4296 11.4405 18.333 11.6737 18.333 11.9168V17.4168C18.333 17.6599 18.2364 17.893 18.0645 18.065C17.8926 18.2369 17.6595 18.3334 17.4163 18.3334H4.58301C4.33989 18.3334 4.10673 18.2369 3.93483 18.065C3.76292 17.893 3.66634 17.6599 3.66634 17.4168V4.58344C3.66634 4.34032 3.76292 4.10717 3.93483 3.93526C4.10673 3.76335 4.33989 3.66677 4.58301 3.66677H10.083C10.3261 3.66677 10.5593 3.5702 10.7312 3.39829C10.9031 3.22638 10.9997 2.99322 10.9997 2.75011C10.9997 2.50699 10.9031 2.27383 10.7312 2.10193C10.5593 1.93002 10.3261 1.83344 10.083 1.83344H4.58301C3.85366 1.83344 3.15419 2.12317 2.63846 2.6389C2.12274 3.15462 1.83301 3.85409 1.83301 4.58344V17.4168C1.83301 18.1461 2.12274 18.8456 2.63846 19.3613C3.15419 19.877 3.85366 20.1668 4.58301 20.1668H17.4163C18.1457 20.1668 18.8452 19.877 19.3609 19.3613C19.8766 18.8456 20.1663 18.1461 20.1663 17.4168V11.9168C20.1663 11.6737 20.0698 11.4405 19.8979 11.2686C19.7259 11.0967 19.4928 11.0001 19.2497 11.0001ZM5.49967 11.6968V15.5834C5.49967 15.8266 5.59625 16.0597 5.76816 16.2316C5.94007 16.4035 6.17323 16.5001 6.41634 16.5001H10.303C10.4236 16.5008 10.5432 16.4777 10.6549 16.4321C10.7666 16.3864 10.8682 16.3192 10.9538 16.2343L17.2972 9.88177L19.9005 7.33344C19.9864 7.24822 20.0546 7.14684 20.1012 7.03514C20.1477 6.92343 20.1717 6.80362 20.1717 6.68261C20.1717 6.5616 20.1477 6.44178 20.1012 6.33008C20.0546 6.21837 19.9864 6.11699 19.9005 6.03177L16.0138 2.09927C15.9286 2.01336 15.8272 1.94516 15.7155 1.89862C15.6038 1.85209 15.484 1.82812 15.363 1.82812C15.242 1.82812 15.1222 1.85209 15.0105 1.89862C14.8988 1.94516 14.7974 2.01336 14.7122 2.09927L12.1272 4.69344L5.76551 11.0459C5.68055 11.1316 5.61333 11.2332 5.56772 11.3449C5.5221 11.4565 5.49898 11.5761 5.49967 11.6968ZM15.363 4.04261L17.9572 6.63677L16.6555 7.93844L14.0613 5.34427L15.363 4.04261ZM7.33301 12.0726L12.7688 6.63677L15.363 9.23094L9.92717 14.6668H7.33301V12.0726Z" fill="#50A5F1"/>
</svg>
