<svg width="16" height="16" viewBox="0 0 16 16" fill="none" xmlns="http://www.w3.org/2000/svg">
<path d="M0.874994 5.675L7.62499 9.575C7.77499 9.65 7.84999 9.65 7.99999 9.65C8.14999 9.65 8.22499 9.65 8.37499 9.575L15.125 5.675C15.275 5.6 15.35 5.525 15.425 5.375C15.575 5 15.5 4.55 15.125 4.325L8.37499 0.425C8.14999 0.275 7.84999 0.275 7.62499 0.425L0.874994 4.325C0.724994 4.4 0.649994 4.475 0.574994 4.625C0.424994 5 0.499994 5.45 0.874994 5.675ZM15.125 7.325L14.975 7.25L8.37499 11.075C8.14999 11.225 7.84999 11.225 7.62499 11.075L1.02499 7.25L0.874994 7.325C0.499994 7.55 0.424994 8 0.574994 8.375C0.649994 8.525 0.724994 8.6 0.874994 8.675L7.62499 12.575C7.84999 12.725 8.14999 12.725 8.37499 12.575L15.125 8.675C15.5 8.45 15.575 8 15.425 7.625C15.35 7.475 15.275 7.4 15.125 7.325ZM15.125 10.325L14.975 10.25L8.37499 14.075C8.14999 14.225 7.84999 14.225 7.62499 14.075L1.02499 10.25L0.874994 10.325C0.499994 10.55 0.424994 11 0.574994 11.375C0.649994 11.525 0.724994 11.6 0.874994 11.675L7.62499 15.575C7.84999 15.725 8.14999 15.725 8.37499 15.575L15.125 11.675C15.5 11.45 15.575 11 15.425 10.625C15.35 10.475 15.275 10.4 15.125 10.325Z" fill="#50A5F1"/>
</svg>
