<svg width="14" height="14" viewBox="0 0 14 14" fill="none" xmlns="http://www.w3.org/2000/svg">
<path d="M13.4564 11.3585L8.05471 1.41853C7.94718 1.22043 7.78818 1.05503 7.59448 0.93977C7.40078 0.824511 7.17955 0.763672 6.95415 0.763672C6.72875 0.763672 6.50753 0.824511 6.31383 0.93977C6.12012 1.05503 5.96112 1.22043 5.8536 1.41853L0.455819 11.3585C0.349078 11.5497 0.294307 11.7654 0.296967 11.9843C0.299628 12.2032 0.359627 12.4176 0.470981 12.6061C0.582336 12.7946 0.741154 12.9505 0.931601 13.0585C1.12205 13.1664 1.33747 13.2226 1.55637 13.2213H12.3558C12.5725 13.2211 12.7854 13.1646 12.9738 13.0575C13.1621 12.9504 13.3194 12.7962 13.4303 12.61C13.5412 12.4239 13.6019 12.2121 13.6065 11.9955C13.6111 11.7789 13.5593 11.5647 13.4564 11.3741V11.3585ZM6.45638 3.88798C6.45638 3.74358 6.51374 3.6051 6.61584 3.503C6.71794 3.4009 6.85642 3.34354 7.00082 3.34354C7.14522 3.34354 7.2837 3.4009 7.3858 3.503C7.4879 3.6051 7.54526 3.74358 7.54526 3.88798V8.55465C7.54526 8.69904 7.4879 8.83752 7.3858 8.93963C7.2837 9.04173 7.14522 9.09909 7.00082 9.09909C6.85642 9.09909 6.71794 9.04173 6.61584 8.93963C6.51374 8.83752 6.45638 8.69904 6.45638 8.55465V3.88798ZM7.00082 11.6074C6.86237 11.6074 6.72703 11.5664 6.61192 11.4895C6.49681 11.4125 6.40709 11.3032 6.3541 11.1753C6.30112 11.0474 6.28726 10.9066 6.31427 10.7709C6.34128 10.6351 6.40795 10.5103 6.50584 10.4124C6.60374 10.3146 6.72847 10.2479 6.86426 10.2209C7.00004 10.1939 7.14079 10.2077 7.2687 10.2607C7.39661 10.3137 7.50593 10.4034 7.58285 10.5185C7.65977 10.6336 7.70082 10.769 7.70082 10.9074C7.70082 10.9993 7.68271 11.0904 7.64754 11.1753C7.61236 11.2602 7.5608 11.3374 7.49579 11.4024C7.43079 11.4674 7.35363 11.519 7.2687 11.5541C7.18377 11.5893 7.09274 11.6074 7.00082 11.6074Z" fill="#F69220"/>
</svg>
