<svg width="16" height="18" viewBox="0 0 16 18" fill="none" xmlns="http://www.w3.org/2000/svg">
<path d="M13.1787 7.9661V0.308347C13.1787 0.118813 13.0355 0 12.812 0H0.406821C0.183356 0 0 0.118813 0 0.308347V14.9562C0 15.1458 0.183356 15.3268 0.406821 15.3268H5.53506C6.36875 14.6026 7.18526 13.7625 8.0075 12.9704C9.72933 11.2985 11.4196 9.59553 13.1787 7.9661ZM11.2735 2.5573C11.2735 2.82321 11.1589 3.03821 11.0185 3.03821H2.16016C2.01978 3.03821 1.90518 2.82321 1.90518 2.5573V2.50355C1.90518 2.23764 2.01978 2.02264 2.16016 2.02264H11.0185C11.1589 2.02264 11.2735 2.23764 11.2735 2.50355V2.5573ZM11.2735 4.86849C11.2735 5.1344 11.1589 5.34939 11.0185 5.34939H2.16016C2.01978 5.34939 1.90518 5.1344 1.90518 4.86849V4.81757C1.90518 4.55165 2.01978 4.33666 2.16016 4.33666H11.0185C11.1589 4.33666 11.2735 4.55165 11.2735 4.81757V4.86849ZM11.2735 7.1825C11.2735 7.44842 11.1589 7.66341 11.0185 7.66341H2.16016C2.01978 7.66341 1.90518 7.44842 1.90518 7.1825V7.13158C1.90518 6.86567 2.01978 6.65068 2.16016 6.65068H11.0185C11.1589 6.65068 11.2735 6.86567 11.2735 7.13158V7.1825Z" fill="white"/>
<path d="M15.7429 9.6519C16.0609 9.28414 16.1326 8.80041 15.677 8.26858C15.677 8.26858 15.104 7.69432 14.3105 8.09602L14.3047 8.09319L14.2904 8.10733C14.2503 8.12714 14.2102 8.14977 14.1672 8.17523C14.1672 8.17523 14.1185 8.18654 14.1414 8.19786C14.1071 8.20069 14.1386 8.19786 14.1042 8.20069L14.0669 8.20634L12.3279 9.87821C12.2935 9.9065 12.262 9.93761 12.2334 9.9659L7.59219 14.3874C7.44894 14.5232 7.41456 14.5798 7.28564 14.7354L7.29423 14.7297L7.29996 14.7269L5.49219 17.9999L8.80405 16.3139C8.8413 16.3309 9.01892 16.2036 9.21374 16.0169L13.8349 11.5982C13.8635 11.5699 13.895 11.5416 13.9237 11.5105L15.7544 9.73676L15.7515 9.69433C15.7458 9.6915 15.7458 9.67736 15.7429 9.6519ZM13.8922 9.99985C13.5598 9.6519 13.0241 9.48499 12.9267 9.45953L14.044 8.38456C14.2045 8.42134 14.6657 8.55147 15.0439 8.87679C15.4364 9.21908 15.5424 9.64341 15.5682 9.76788L14.362 10.9362C14.3592 10.6986 14.2302 10.3591 13.8922 9.99985ZM13.8005 11.1795L9.21374 15.5501C9.18509 15.5784 9.10487 15.6604 9.07622 15.6887C8.83557 15.9235 8.82411 16.1045 8.80119 16.2318L7.01347 17.1512C6.99341 17.0352 6.87022 16.5204 6.32588 16.6166L7.34867 14.7637C7.47186 14.7495 7.7956 14.7269 8.05344 14.4921C8.08209 14.4638 8.03912 14.5034 8.06777 14.4751L12.7949 9.96873C12.8608 9.90367 12.898 9.86972 12.9324 9.83294C13.0012 9.8584 13.0785 9.89235 13.1588 9.92913C13.1301 9.95742 13.1043 9.98287 13.0699 10.014L8.19382 14.6166C8.10787 14.6986 7.96749 14.84 7.87868 14.9787C7.67527 15.304 7.68673 15.5133 7.89014 15.7227C8.10787 15.9433 8.39437 15.8839 8.74389 15.6604C8.81265 15.6265 8.93584 15.5246 9.00173 15.4624L13.8922 10.7806C13.9294 10.7438 13.9638 10.7099 13.9953 10.6788C14.0412 10.7608 14.0755 10.8372 14.0985 10.9051C13.981 11.0126 13.9122 11.0748 13.8005 11.1795Z" fill="white"/>
</svg>
