<svg width="82" height="81" viewBox="0 0 82 81" fill="none" xmlns="http://www.w3.org/2000/svg">
<path d="M64.2188 0.897217H17.7825C8.48575 0.897217 0.949219 8.45185 0.949219 17.771V64.1264C0.949219 73.4455 8.48575 81.0001 17.7825 81.0001H64.2188C73.5156 81.0001 81.0521 73.4455 81.0521 64.1264V17.771C81.0521 8.45185 73.5156 0.897217 64.2188 0.897217Z" fill="#81D9FA"/>
<path d="M81.0518 51.9257V18.7744C81.0385 14.0374 79.2452 9.49846 76.0637 6.14887C72.8822 2.79929 68.571 0.911282 64.0717 0.897217H41.5566L81.0518 51.9257Z" fill="#50A5F1"/>
<path d="M0.949219 33.5317V64.3701C0.962391 68.7767 2.73053 72.999 5.86746 76.1149C9.00438 79.2308 13.2552 80.987 17.6915 81.0001H39.8881L0.949219 33.5317Z" fill="#50A5F1"/>
<path opacity="0.5" d="M9.94114 79.22L37.663 0.897217H17.7593C13.3051 0.910521 9.03703 2.69644 5.88739 5.86492C2.73775 9.03339 0.962444 13.3269 0.949219 17.8078V64.2645C0.9574 67.3437 1.79866 70.3625 3.38276 72.9972C4.96686 75.6319 7.23405 77.7831 9.94114 79.22V79.22Z" fill="#50A5F1"/>
<path opacity="0.5" d="M72.0665 3.27051L44.3379 81H64.2376C68.6929 80.9868 72.962 79.2144 76.1124 76.0699C79.2628 72.9254 81.0385 68.6644 81.0517 64.2175V18.1127C81.045 15.0577 80.2052 12.0621 78.6222 9.44732C77.0393 6.83255 74.773 4.69726 72.0665 3.27051V3.27051Z" fill="#50A5F1"/>
<ellipse cx="41.1512" cy="41.2454" rx="22.2508" ry="23.7342" fill="white"/>
<path d="M51.2276 35.4808C52.4096 32.4562 52.4875 29.9359 51.0704 28.4243C49.4948 26.7451 45.7135 27.2495 41.7014 29.2625H41.2272C38.3944 29.2625 35.6367 30.3572 33.5896 32.2871C31.8596 33.9678 30.5997 36.1513 30.0476 38.5855C30.4411 38.0856 32.6468 35.3117 35.1653 33.8001C35.2459 33.8001 35.8745 33.3803 35.8745 33.3803C35.7952 33.3803 34.616 34.6412 34.3809 34.8934C28.8669 40.9397 25.6405 50.0951 28.1604 52.7816C29.8126 54.5453 32.8053 54.1255 36.2695 52.1111C37.7644 52.8676 39.4193 53.2013 41.2272 53.2013C43.59 53.2013 45.7956 52.5294 47.6841 51.1854C49.6533 49.8415 51.0718 47.7455 51.9382 45.3082H45.797C45.0099 46.9029 43.1978 47.9961 41.3093 47.9961C38.6308 47.9961 36.4252 45.6435 36.3473 42.9571V42.7064H52.411V42.4542C52.411 42.0344 52.4903 41.5301 52.4903 41.1963C52.4889 39.1759 52.0161 37.2446 51.2276 35.4808ZM29.8904 52.2787C28.6305 50.9347 29.0268 48.3299 30.5204 45.2237C31.2297 47.3242 32.4103 49.1725 33.9067 50.5149C34.3809 50.9333 34.9289 51.3531 35.4823 51.6898C32.9597 53.1183 30.914 53.3705 29.8904 52.2787V52.2787ZM46.0306 39.5127H36.4252V39.4281C36.5824 36.8233 38.8645 34.5552 41.5443 34.5552C44.0642 34.5552 46.1113 36.6557 46.2684 39.4281V39.5127H46.0306V39.5127ZM50.834 34.8088C50.3424 33.9338 49.7317 33.1414 49.022 32.4577C47.9244 31.3679 46.6413 30.5124 45.2421 29.9374C47.7634 28.678 49.8883 28.5119 50.9912 29.6867C51.8575 30.7785 51.7797 32.6253 50.834 34.8088C50.834 34.8934 50.834 34.8934 50.834 34.8088C50.834 34.8934 50.834 34.8934 50.834 34.8088Z" fill="#50A5F1"/>
<path opacity="0.5" d="M52.127 81.0001H64.0131C68.5282 80.9868 72.8546 79.2028 76.0473 76.0378C79.24 72.8728 81.0396 68.584 81.053 64.108V17.7023C81.045 14.594 80.1741 11.5479 78.5358 8.89768C76.8974 6.24745 74.5549 4.09538 71.7647 2.67725L52.127 81.0001Z" fill="#189AEE"/>
<path opacity="0.5" d="M29.319 0.897217H17.6632C13.2344 0.910507 8.99079 2.69447 5.85916 5.85947C2.72752 9.02447 0.962369 13.3133 0.949219 17.7893V64.195C0.957092 67.3033 1.81132 70.3494 3.41831 72.9996C5.0253 75.6498 7.32304 77.8019 10.0598 79.22L29.319 0.897217Z" fill="#50A5F1"/>
</svg>
