<svg width="112" height="111" viewBox="0 0 112 111" fill="none" xmlns="http://www.w3.org/2000/svg">
<g filter="url(#filter0_d_14403_41148)">
<rect x="15.9492" y="10" width="80.1029" height="80.1029" rx="15" fill="white"/>
</g>
<g clip-path="url(#clip0_14403_41148)">
<path fill-rule="evenodd" clip-rule="evenodd" d="M76.9127 56.3368C77.1419 58.1282 77.1419 59.9415 76.9127 61.733C75.5867 72.0872 66.7303 80.0901 56.0008 80.0901C45.2714 80.0901 36.4167 72.0872 35.089 61.733C34.861 59.9415 34.861 58.1283 35.089 56.3368C35.3266 54.4818 35.8119 52.6669 36.5319 50.9406C39.7082 43.3306 47.2299 37.9814 56.0008 37.9814C64.7718 37.9814 72.2935 43.3297 75.4698 50.9406H69.4251C67.7738 48.2108 65.3274 46.0495 62.4129 44.7456C59.4985 43.4418 56.2549 43.0576 53.1159 43.6444C49.9769 44.2312 47.0921 45.761 44.8472 48.0293C42.6023 50.2976 41.1043 53.1962 40.5536 56.3377C40.2453 58.1232 40.2453 59.9483 40.5536 61.7339C41.1896 65.3641 43.0873 68.6541 45.9128 71.0249C48.7382 73.3957 52.3104 74.6955 56.0008 74.6955C59.6913 74.6955 63.2635 73.3957 66.0889 71.0249C68.9144 68.6541 70.8121 65.3641 71.4481 61.7339H65.9172C65.2628 64.1304 63.7596 66.2082 61.6868 67.5813C59.614 68.9545 57.1126 69.5296 54.6473 69.1999C52.1819 68.8703 49.9201 67.6581 48.2822 65.7887C46.6442 63.9193 45.7414 61.5198 45.7414 59.0358C45.7414 56.5518 46.6442 54.1522 48.2822 52.2828C49.9201 50.4134 52.1819 49.2013 54.6473 48.8716C57.1126 48.5419 59.614 49.117 61.6868 50.4902C63.7596 51.8634 65.2628 53.9412 65.9172 56.3377H76.9092L76.9127 56.3368ZM60.0531 61.733C60.6553 60.831 60.9384 59.7538 60.8576 58.6727C60.7768 57.5916 60.3366 56.5684 59.6069 55.7657C58.8772 54.963 57.8999 54.4267 56.8301 54.242C55.7604 54.0574 54.6595 54.235 53.7024 54.7465C52.7452 55.2581 51.9867 56.0744 51.5471 57.0657C51.1076 58.057 51.0123 59.1665 51.2764 60.2181C51.5405 61.2697 52.1488 62.203 53.0048 62.8699C53.8607 63.5367 54.9152 63.8989 56.0008 63.8988C56.8031 63.9015 57.5935 63.7049 58.3008 63.3269C59.0081 62.9488 59.6103 62.4011 60.0531 61.733V61.733Z" fill="#50A5F1"/>
<path fill-rule="evenodd" clip-rule="evenodd" d="M68.7575 25.6121L56.4814 20.0129L44.2061 25.6121L31.929 31.2114V37.2897C31.6583 37.3635 31.4186 37.5221 31.2451 37.7423C31.0715 37.9625 30.9735 38.2326 30.9654 38.5127C30.9573 38.7928 31.0395 39.068 31.2 39.2979C31.3605 39.5277 31.5907 39.7 31.8566 39.7892L31.82 39.9103L31.3594 41.4872H33.2027L32.7421 39.9129L32.7063 39.7892C32.9733 39.7005 33.2045 39.5282 33.3657 39.2979C33.5269 39.0675 33.6094 38.7915 33.6011 38.5106C33.5928 38.2298 33.494 37.9591 33.3195 37.7387C33.1449 37.5183 32.9039 37.3599 32.6322 37.2871V31.532L42.1647 35.8801V39.2343C46.3323 36.2297 51.3417 34.6126 56.4818 34.6126C61.6219 34.6126 66.6314 36.2297 70.7989 39.2343V35.8801L81.0337 31.2114L68.7575 25.6121Z" fill="#50A5F1"/>
</g>
<defs>
<filter id="filter0_d_14403_41148" x="0.949219" y="0" width="110.104" height="110.103" filterUnits="userSpaceOnUse" color-interpolation-filters="sRGB">
<feFlood flood-opacity="0" result="BackgroundImageFix"/>
<feColorMatrix in="SourceAlpha" type="matrix" values="0 0 0 0 0 0 0 0 0 0 0 0 0 0 0 0 0 0 127 0" result="hardAlpha"/>
<feOffset dy="5"/>
<feGaussianBlur stdDeviation="7.5"/>
<feComposite in2="hardAlpha" operator="out"/>
<feColorMatrix type="matrix" values="0 0 0 0 0 0 0 0 0 0 0 0 0 0 0 0 0 0 0.05 0"/>
<feBlend mode="normal" in2="BackgroundImageFix" result="effect1_dropShadow_14403_41148"/>
<feBlend mode="normal" in="SourceGraphic" in2="effect1_dropShadow_14403_41148" result="shape"/>
</filter>
<clipPath id="clip0_14403_41148">
<rect width="50.0643" height="60.0772" fill="white" transform="translate(30.9688 20.0129)"/>
</clipPath>
</defs>
</svg>
